Foldit-Thin-Condensed.ufo
<glyph name="exclam.color0" format="2">
  <advance width="600"/>
  <unicode hex="0021"/>
  <outline>
    <contour>
      <point x="84" y="0" type="line"/>
      <point x="53" y="0" type="line"/>
      <point x="53" y="24" type="line"/>
      <point x="84" y="24" type="line"/>
    </contour>
  </outline>
</glyph>
<glyph name="exclam.color1" format="2">
  <advance width="137"/>
  <unicode hex="0021"/>
  <outline>
    <contour>
      <point x="53" y="680" type="line"/>
      <point x="76" y="703" type="line"/>
      <point x="77" y="703" type="line"/>
      <point x="77" y="104" type="line"/>
      <point x="53" y="104" type="line"/>
    </contour>
  </outline>
</glyph>
<glyph name="exclam" format="2">
  <advance width="137"/>
  <unicode hex="0021"/>
  <outline>
    <contour>
      <point x="84" y="0" type="line"/>
      <point x="53" y="0" type="line"/>
      <point x="53" y="24" type="line"/>
      <point x="84" y="24" type="line"/>
    </contour>
    <contour>
      <point x="53" y="680" type="line"/>
      <point x="76" y="703" type="line"/>
      <point x="77" y="703" type="line"/>
      <point x="77" y="104" type="line"/>
      <point x="53" y="104" type="line"/>
    </contour>
  </outline>
</glyph>
<glyph name="quotedbl.color1" format="2">
  <advance width="198"/>
  <unicode hex="0022"/>
  <outline>
    <contour>
      <point x="81" y="585" type="line"/>
      <point x="61" y="585" type="line"/>
      <point x="60" y="585" type="line"/>
      <point x="70" y="665" type="line"/>
      <point x="94" y="665" type="line"/>
    </contour>
  </outline>
</glyph>
<glyph name="quotedbl" format="2">
  <advance width="198"/>
  <unicode hex="0022"/>
  <outline>
    <contour>
      <point x="94" y="665" type="line"/>
      <point x="53" y="665" type="line"/>
      <point x="53" y="700" type="line"/>
      <point x="71" y="700" type="line"/>
    </contour>
    <contour>
      <point x="81" y="585" type="line"/>
      <point x="61" y="585" type="line"/>
      <point x="60" y="585" type="line"/>
      <point x="70" y="665" type="line"/>
      <point x="94" y="665" type="line"/>
    </contour>
    <contour>
      <point x="145" y="665" type="line"/>
      <point x="104" y="665" type="line"/>
      <point x="104" y="700" type="line"/>
      <point x="122" y="700" type="line"/>
    </contour>
    <contour>
      <point x="132" y="585" type="line"/>
      <point x="112" y="585" type="line"/>
      <point x="111" y="585" type="line"/>
      <point x="121" y="665" type="line"/>
      <point x="145" y="665" type="line"/>
    </contour>
  </outline>
</glyph>
<glyph name="numbersign.color0" format="2">
  <advance width="325"/>
  <unicode hex="0023"/>
  <outline>
    <contour>
      <point x="261" y="700" type="line"/>
      <point x="261" y="699" type="line"/>
      <point x="176" y="0" type="line"/>
      <point x="153" y="0" type="line"/>
      <point x="153" y="1" type="line"/>
      <point x="238" y="700" type="line"/>
    </contour>
  </outline>
</glyph>
<glyph name="numbersign.color1" format="2">
  <advance width="325"/>
  <unicode hex="0023"/>
  <outline>
    <contour>
      <point x="242" y="202" type="line"/>
      <point x="32" y="202" type="line"/>
      <point x="35" y="226" type="line"/>
      <point x="245" y="226" type="line"/>
      <point x="245" y="225" type="line"/>
    </contour>
  </outline>
</glyph>
<glyph name="numbersign.color3" format="2">
  <advance width="325"/>
  <unicode hex="0023"/>
  <outline>
    <contour>
      <point x="279" y="508" type="line"/>
      <point x="69" y="508" type="line"/>
      <point x="72" y="532" type="line"/>
      <point x="282" y="532" type="line"/>
      <point x="282" y="531" type="line"/>
    </contour>
  </outline>
</glyph>
<glyph name="numbersign" format="2">
  <advance width="325"/>
  <unicode hex="0023"/>
  <outline>
    <contour>
      <point x="261" y="700" type="line"/>
      <point x="261" y="699" type="line"/>
      <point x="176" y="0" type="line"/>
      <point x="153" y="0" type="line"/>
      <point x="153" y="1" type="line"/>
      <point x="238" y="700" type="line"/>
    </contour>
    <contour>
      <point x="242" y="202" type="line"/>
      <point x="32" y="202" type="line"/>
      <point x="35" y="226" type="line"/>
      <point x="245" y="226" type="line"/>
      <point x="245" y="225" type="line"/>
    </contour>
    <contour>
      <point x="161" y="700" type="line"/>
      <point x="161" y="699" type="line"/>
      <point x="76" y="0" type="line"/>
      <point x="53" y="0" type="line"/>
      <point x="53" y="1" type="line"/>
      <point x="138" y="700" type="line"/>
    </contour>
    <contour>
      <point x="279" y="508" type="line"/>
      <point x="69" y="508" type="line"/>
      <point x="72" y="532" type="line"/>
      <point x="282" y="532" type="line"/>
      <point x="282" y="531" type="line"/>
    </contour>
  </outline>
</glyph>
<glyph name="dollar.color1" format="2">
  <advance width="253"/>
  <unicode hex="0024"/>
  <outline>
    <contour>
      <point x="177" y="700" type="line"/>
      <point x="200" y="677" type="line"/>
      <point x="200" y="676" type="line"/>
      <point x="77" y="676" type="line"/>
      <point x="77" y="700" type="line"/>
    </contour>
  </outline>
</glyph>
<glyph name="dollar.color4" format="2">
  <advance width="600"/>
  <unicode hex="0024"/>
  <outline>
    <contour>
      <point x="137" y="756" type="line"/>
      <point x="138" y="-31" type="line"/>
      <point x="115" y="-54" type="line"/>
      <point x="114" y="-54" type="line"/>
      <point x="113" y="733" type="line"/>
      <point x="136" y="756" type="line"/>
    </contour>
  </outline>
</glyph>
<glyph name="percent.color2" format="2">
  <advance width="412"/>
  <unicode hex="0025"/>
  <outline>
    <contour>
      <point x="128" y="680" type="line"/>
      <point x="151" y="657" type="line"/>
      <point x="151" y="656" type="line"/>
      <point x="77" y="656" type="line"/>
      <point x="77" y="680" type="line"/>
    </contour>
  </outline>
</glyph>
<glyph name="percent.color3" format="2">
  <advance width="412"/>
  <unicode hex="0025"/>
  <outline>
    <contour>
      <point x="151" y="403" type="line"/>
      <point x="128" y="380" type="line"/>
      <point x="127" y="380" type="line"/>
      <point x="127" y="656" type="line"/>
      <point x="151" y="656" type="line"/>
    </contour>
  </outline>
</glyph>
<glyph name="percent.color4" format="2">
  <advance width="412"/>
  <unicode hex="0025"/>
  <outline>
    <contour>
      <point x="76" y="380" type="line"/>
      <point x="53" y="403" type="line"/>
      <point x="53" y="404" type="line"/>
      <point x="127" y="404" type="line"/>
      <point x="127" y="380" type="line"/>
    </contour>
  </outline>
</glyph>
<glyph name="percent.color6" format="2">
  <advance width="412"/>
  <unicode hex="0025"/>
  <outline>
    <contour>
      <point x="336" y="320" type="line"/>
      <point x="359" y="297" type="line"/>
      <point x="359" y="296" type="line"/>
      <point x="285" y="296" type="line"/>
      <point x="285" y="320" type="line"/>
    </contour>
  </outline>
</glyph>
<glyph name="percent.color7" format="2">
  <advance width="412"/>
  <unicode hex="0025"/>
  <outline>
    <contour>
      <point x="359" y="43" type="line"/>
      <point x="336" y="20" type="line"/>
      <point x="335" y="20" type="line"/>
      <point x="335" y="296" type="line"/>
      <point x="359" y="296" type="line"/>
    </contour>
  </outline>
</glyph>
<glyph name="percent.color8" format="2">
  <advance width="412"/>
  <unicode hex="0025"/>
  <outline>
    <contour>
      <point x="284" y="20" type="line"/>
      <point x="261" y="43" type="line"/>
      <point x="261" y="44" type="line"/>
      <point x="335" y="44" type="line"/>
      <point x="335" y="20" type="line"/>
    </contour>
  </outline>
</glyph>
<glyph name="ampersand.color1" format="2">
  <advance width="372"/>
  <unicode hex="0026"/>
  <outline>
    <contour>
      <point x="180" y="670" type="line"/>
      <point x="180" y="646" type="line"/>
      <point x="90" y="646" type="line"/>
      <point x="90" y="670" type="line"/>
    </contour>
  </outline>
</glyph>
<glyph name="ampersand.color2" format="2">
  <advance width="600"/>
  <unicode hex="0026"/>
  <outline>
    <contour>
      <point x="67" y="0" type="line"/>
      <point x="67" y="24" type="line"/>
      <point x="180" y="24" type="line"/>
      <point x="180" y="0" type="line"/>
    </contour>
  </outline>
</glyph>
<glyph name="ampersand.color3" format="2">
  <advance width="372"/>
  <unicode hex="0026"/>
  <outline>
    <contour>
      <point x="204" y="647" type="line"/>
      <point x="204" y="377" type="line"/>
      <point x="181" y="353" type="line"/>
      <point x="180" y="353" type="line"/>
      <point x="180" y="670" type="line"/>
      <point x="181" y="670" type="line"/>
    </contour>
  </outline>
</glyph>
<glyph name="ampersand.color7" format="2">
  <advance width="372"/>
  <unicode hex="0026"/>
  <outline>
    <contour>
      <point x="43" y="24" type="line"/>
      <point x="43" y="353" type="line"/>
      <point x="66" y="377" type="line"/>
      <point x="67" y="377" type="line"/>
      <point x="67" y="0" type="line"/>
      <point x="66" y="0" type="line"/>
    </contour>
  </outline>
</glyph>
<glyph name="quotesingle.color0" format="2">
  <advance width="147"/>
  <unicode hex="0027"/>
  <outline>
    <contour>
      <point x="94" y="665" type="line"/>
      <point x="53" y="665" type="line"/>
      <point x="53" y="700" type="line"/>
      <point x="71" y="700" type="line"/>
    </contour>
  </outline>
</glyph>
<glyph name="parenleft.color0" format="2">
  <advance width="167"/>
  <unicode hex="0028"/>
  <outline>
    <contour>
      <point x="53" y="662" type="line"/>
      <point x="76" y="670" type="line"/>
      <point x="77" y="670" type="line"/>
      <point x="77" y="-56" type="line"/>
      <point x="53" y="-46" type="line"/>
    </contour>
  </outline>
</glyph>
<glyph name="parenright.color0" format="2">
  <advance width="600"/>
  <unicode hex="0029"/>
  <outline>
    <contour>
      <point x="114" y="-62" type="line"/>
      <point x="91" y="-70" type="line"/>
      <point x="90" y="-70" type="line"/>
      <point x="90" y="656" type="line"/>
      <point x="114" y="646" type="line"/>
    </contour>
  </outline>
</glyph>
<glyph name="parenright.color2" format="2">
  <advance width="167"/>
  <unicode hex="0029"/>
  <outline>
    <contour>
      <point x="0" y="700" type="line"/>
      <point x="114" y="654" type="line"/>
      <point x="114" y="647" type="line"/>
      <point x="114" y="631" type="line"/>
      <point x="0" y="676" type="line"/>
    </contour>
  </outline>
</glyph>
<glyph name="parenright" format="2">
  <advance width="167"/>
  <unicode hex="0029"/>
  <outline>
    <contour>
      <point x="114" y="-62" type="line"/>
      <point x="91" y="-70" type="line"/>
      <point x="90" y="-70" type="line"/>
      <point x="90" y="656" type="line"/>
      <point x="114" y="646" type="line"/>
    </contour>
    <contour>
      <point x="0" y="-76" type="line"/>
      <point x="90" y="-46" type="line"/>
      <point x="90" y="-70" type="line"/>
      <point x="0" y="-100" type="line"/>
      <point x="0" y="-99" type="line"/>
    </contour>
    <contour>
      <point x="0" y="700" type="line"/>
      <point x="114" y="654" type="line"/>
      <point x="114" y="647" type="line"/>
      <point x="114" y="631" type="line"/>
      <point x="0" y="676" type="line"/>
    </contour>
  </outline>
</glyph>
<glyph name="asterisk.color0" format="2">
  <advance width="198"/>
  <unicode hex="002A"/>
  <outline>
    <contour>
      <point x="103" y="585" type="line"/>
      <point x="83" y="540" type="line"/>
      <point x="83" y="539" type="line"/>
      <point x="75" y="539" type="line"/>
      <point x="53" y="663" type="line"/>
    </contour>
  </outline>
</glyph>
<glyph name="asterisk.color2" format="2">
  <advance width="198"/>
  <unicode hex="002A"/>
  <outline>
    <contour>
      <point x="145" y="663" type="line"/>
      <point x="145" y="663" type="line"/>
      <point x="123" y="539" type="line"/>
      <point x="83" y="539" type="line"/>
      <point x="83" y="540" type="line"/>
      <point x="99" y="730" type="line"/>
      <point x="99" y="730" type="line"/>
    </contour>
  </outline>
</glyph>
<glyph name="asterisk" format="2">
  <advance width="198"/>
  <unicode hex="002A"/>
  <outline>
    <contour>
      <point x="103" y="585" type="line"/>
      <point x="83" y="540" type="line"/>
      <point x="83" y="539" type="line"/>
      <point x="75" y="539" type="line"/>
      <point x="53" y="663" type="line"/>
    </contour>
    <contour>
      <point x="103" y="585" type="line"/>
      <point x="53" y="663" type="line"/>
      <point x="53" y="663" type="line"/>
      <point x="99" y="730" type="line"/>
      <point x="99" y="730" type="line"/>
    </contour>
    <contour>
      <point x="145" y="663" type="line"/>
      <point x="145" y="663" type="line"/>
      <point x="123" y="539" type="line"/>
      <point x="83" y="539" type="line"/>
      <point x="83" y="540" type="line"/>
      <point x="99" y="730" type="line"/>
      <point x="99" y="730" type="line"/>
    </contour>
  </outline>
</glyph>
<glyph name="plus.color0" format="2">
  <advance width="217"/>
  <unicode hex="002B"/>
  <outline>
    <contour>
      <point x="97" y="443" type="line"/>
      <point x="121" y="443" type="line"/>
      <point x="121" y="353" type="line"/>
      <point x="98" y="329" type="line"/>
      <point x="97" y="329" type="line"/>
    </contour>
  </outline>
</glyph>
<glyph name="plus.color2" format="2">
  <advance width="217"/>
  <unicode hex="002B"/>
  <outline>
    <contour>
      <point x="53" y="353" type="line"/>
      <point x="97" y="353" type="line"/>
      <point x="97" y="329" type="line"/>
      <point x="53" y="329" type="line"/>
    </contour>
  </outline>
</glyph>
<glyph name="plus.color3" format="2">
  <advance width="217"/>
  <unicode hex="002B"/>
  <outline>
    <contour>
      <point x="121" y="329" type="line"/>
      <point x="121" y="239" type="line"/>
      <point x="97" y="239" type="line"/>
      <point x="97" y="329" type="line"/>
    </contour>
  </outline>
</glyph>
<glyph name="plus" format="2">
  <advance width="217"/>
  <unicode hex="002B"/>
  <outline>
    <contour>
      <point x="97" y="443" type="line"/>
      <point x="121" y="443" type="line"/>
      <point x="121" y="353" type="line"/>
      <point x="98" y="329" type="line"/>
      <point x="97" y="329" type="line"/>
    </contour>
    <contour>
      <point x="121" y="353" type="line"/>
      <point x="164" y="353" type="line"/>
      <point x="164" y="329" type="line"/>
      <point x="98" y="329" type="line"/>
    </contour>
    <contour>
      <point x="53" y="353" type="line"/>
      <point x="97" y="353" type="line"/>
      <point x="97" y="329" type="line"/>
      <point x="53" y="329" type="line"/>
    </contour>
    <contour>
      <point x="121" y="329" type="line"/>
      <point x="121" y="239" type="line"/>
      <point x="97" y="239" type="line"/>
      <point x="97" y="329" type="line"/>
    </contour>
  </outline>
</glyph>
<glyph name="comma" format="2">
  <advance width="137"/>
  <unicode hex="002C"/>
  <outline>
    <contour>
      <point x="84" y="0" type="line"/>
      <point x="53" y="0" type="line"/>
      <point x="53" y="24" type="line"/>
      <point x="61" y="24" type="line"/>
    </contour>
    <contour>
      <point x="84" y="-68" type="line"/>
      <point x="61" y="-91" type="line"/>
      <point x="60" y="-91" type="line"/>
      <point x="60" y="0" type="line"/>
      <point x="84" y="0" type="line"/>
    </contour>
  </outline>
</glyph>
<glyph name="hyphen" format="2">
  <advance width="181"/>
  <unicode hex="002D"/>
  <outline>
    <contour>
      <point x="128" y="323" type="line"/>
      <point x="53" y="323" type="line"/>
      <point x="53" y="357" type="line"/>
      <point x="128" y="357" type="line"/>
      <point x="128" y="356" type="line"/>
    </contour>
  </outline>
</glyph>
<glyph name="period" format="2">
  <advance width="137"/>
  <unicode hex="002E"/>
  <outline>
    <contour>
      <point x="84" y="0" type="line"/>
      <point x="53" y="0" type="line"/>
      <point x="53" y="24" type="line"/>
      <point x="84" y="24" type="line"/>
    </contour>
  </outline>
</glyph>
<glyph name="zero.color0" format="2">
  <advance width="290"/>
  <unicode hex="0030"/>
  <outline>
    <contour>
      <point x="200" y="24" type="line"/>
      <point x="70" y="652" type="line"/>
      <point x="93" y="652" type="line"/>
      <point x="223" y="25" type="line"/>
      <point x="223" y="24" type="line"/>
    </contour>
  </outline>
</glyph>
<glyph name="one.color1" format="2">
  <advance width="600"/>
  <unicode hex="0031"/>
  <outline>
    <contour>
      <point x="144" y="646" type="line"/>
      <point x="63" y="646" type="line"/>
      <point x="63" y="670" type="line"/>
      <point x="167" y="670" type="line"/>
    </contour>
  </outline>
</glyph>
<glyph name="three.color0" format="2">
  <advance width="600"/>
  <unicode hex="0033"/>
  <outline>
    <contour>
      <point x="224" y="427" type="line"/>
      <point x="201" y="427" type="line"/>
      <point x="201" y="670" type="line"/>
      <point x="202" y="670" type="line"/>
      <point x="224" y="637" type="line"/>
    </contour>
  </outline>
</glyph>
<glyph name="three.color1" format="2">
  <advance width="290"/>
  <unicode hex="0033"/>
  <outline>
    <contour>
      <point x="76" y="670" type="line"/>
      <point x="201" y="670" type="line"/>
      <point x="201" y="646" type="line"/>
      <point x="53" y="646" type="line"/>
      <point x="53" y="647" type="line"/>
    </contour>
  </outline>
</glyph>
<glyph name="three" format="2">
  <advance width="290"/>
  <unicode hex="0033"/>
  <outline>
    <contour>
      <point x="224" y="427" type="line"/>
      <point x="201" y="427" type="line"/>
      <point x="201" y="670" type="line"/>
      <point x="202" y="670" type="line"/>
      <point x="224" y="637" type="line"/>
    </contour>
    <contour>
      <point x="76" y="670" type="line"/>
      <point x="201" y="670" type="line"/>
      <point x="201" y="646" type="line"/>
      <point x="53" y="646" type="line"/>
      <point x="53" y="647" type="line"/>
    </contour>
    <contour>
      <point x="225" y="24" type="line"/>
      <point x="202" y="0" type="line"/>
      <point x="201" y="0" type="line"/>
      <point x="201" y="427" type="line"/>
      <point x="202" y="427" type="line"/>
      <point x="225" y="403" type="line"/>
    </contour>
    <contour>
      <point x="73" y="403" type="line"/>
      <point x="73" y="427" type="line"/>
      <point x="201" y="427" type="line"/>
      <point x="201" y="403" type="line"/>
    </contour>
    <contour>
      <point x="66" y="0" type="line"/>
      <point x="43" y="23" type="line"/>
      <point x="43" y="24" type="line"/>
      <point x="201" y="24" type="line"/>
      <point x="201" y="23" type="line"/>
      <point x="201" y="0" type="line"/>
    </contour>
  </outline>
</glyph>
<glyph name="four.color0" format="2">
  <advance width="600"/>
  <unicode hex="0034"/>
  <outline>
    <contour>
      <point x="213" y="274" type="line"/>
      <point x="76" y="274" type="line"/>
      <point x="79" y="298" type="line"/>
      <point x="213" y="298" type="line"/>
    </contour>
  </outline>
</glyph>
<glyph name="four.color1" format="2">
  <advance width="290"/>
  <unicode hex="0034"/>
  <outline>
    <contour>
      <point x="184" y="670" type="line"/>
      <point x="207" y="670" type="line"/>
      <point x="207" y="669" type="line"/>
      <point x="76" y="274" type="line"/>
      <point x="53" y="307" type="line"/>
    </contour>
  </outline>
</glyph>
<glyph name="five.color0" format="2">
  <advance width="600"/>
  <unicode hex="0035"/>
  <outline>
    <contour>
      <point x="73" y="670" type="line"/>
      <point x="96" y="670" type="line"/>
      <point x="97" y="670" type="line"/>
      <point x="97" y="427" type="line"/>
      <point x="96" y="427" type="line"/>
      <point x="73" y="427" type="line"/>
    </contour>
  </outline>
</glyph>
<glyph name="five.color3" format="2">
  <advance width="290"/>
  <unicode hex="0035"/>
  <outline>
    <contour>
      <point x="73" y="403" type="line"/>
      <point x="73" y="427" type="line"/>
      <point x="213" y="427" type="line"/>
      <point x="213" y="404" type="line"/>
      <point x="213" y="403" type="line"/>
    </contour>
  </outline>
</glyph>
<glyph name="five" format="2">
  <advance width="290"/>
  <unicode hex="0035"/>
  <outline>
    <contour>
      <point x="73" y="670" type="line"/>
      <point x="96" y="670" type="line"/>
      <point x="97" y="670" type="line"/>
      <point x="97" y="427" type="line"/>
      <point x="96" y="427" type="line"/>
      <point x="73" y="427" type="line"/>
    </contour>
    <contour>
      <point x="220" y="670" type="line"/>
      <point x="220" y="647" type="line"/>
      <point x="220" y="646" type="line"/>
      <point x="97" y="646" type="line"/>
      <point x="97" y="670" type="line"/>
    </contour>
    <contour>
      <point x="237" y="24" type="line"/>
      <point x="214" y="0" type="line"/>
      <point x="213" y="0" type="line"/>
      <point x="213" y="427" type="line"/>
      <point x="214" y="427" type="line"/>
      <point x="237" y="403" type="line"/>
    </contour>
    <contour>
      <point x="73" y="403" type="line"/>
      <point x="73" y="427" type="line"/>
      <point x="213" y="427" type="line"/>
      <point x="213" y="404" type="line"/>
      <point x="213" y="403" type="line"/>
    </contour>
    <contour>
      <point x="76" y="0" type="line"/>
      <point x="53" y="23" type="line"/>
      <point x="53" y="24" type="line"/>
      <point x="213" y="24" type="line"/>
      <point x="213" y="23" type="line"/>
      <point x="213" y="0" type="line"/>
    </contour>
  </outline>
</glyph>
<glyph name="seven.color1" format="2">
  <advance width="290"/>
  <unicode hex="0037"/>
  <outline>
    <contour>
      <point x="116" y="0" type="line"/>
      <point x="93" y="0" type="line"/>
      <point x="93" y="1" type="line"/>
      <point x="214" y="670" type="line"/>
      <point x="237" y="637" type="line"/>
    </contour>
  </outline>
</glyph>
<glyph name="nine.color2" format="2">
  <advance width="600"/>
  <unicode hex="0039"/>
  <outline>
    <contour>
      <point x="53" y="646" type="line"/>
      <point x="76" y="670" type="line"/>
      <point x="77" y="670" type="line"/>
      <point x="77" y="293" type="line"/>
      <point x="76" y="293" type="line"/>
      <point x="53" y="317" type="line"/>
    </contour>
  </outline>
</glyph>
<glyph name="nine" format="2">
  <advance width="290"/>
  <unicode hex="0039"/>
  <outline>
    <contour>
      <point x="237" y="23" type="line"/>
      <point x="214" y="0" type="line"/>
      <point x="213" y="0" type="line"/>
      <point x="213" y="646" type="line"/>
      <point x="237" y="646" type="line"/>
    </contour>
    <contour>
      <point x="76" y="0" type="line"/>
      <point x="53" y="23" type="line"/>
      <point x="53" y="24" type="line"/>
      <point x="213" y="24" type="line"/>
      <point x="213" y="0" type="line"/>
    </contour>
    <contour>
      <point x="53" y="646" type="line"/>
      <point x="76" y="670" type="line"/>
      <point x="77" y="670" type="line"/>
      <point x="77" y="293" type="line"/>
      <point x="76" y="293" type="line"/>
      <point x="53" y="317" type="line"/>
    </contour>
    <contour>
      <point x="213" y="317" type="line"/>
      <point x="213" y="293" type="line"/>
      <point x="77" y="293" type="line"/>
      <point x="77" y="316" type="line"/>
      <point x="77" y="317" type="line"/>
    </contour>
    <contour>
      <point x="214" y="670" type="line"/>
      <point x="237" y="647" type="line"/>
      <point x="237" y="646" type="line"/>
      <point x="77" y="646" type="line"/>
      <point x="77" y="647" type="line"/>
      <point x="77" y="670" type="line"/>
    </contour>
  </outline>
</glyph>
<glyph name="colon" format="2">
  <advance width="137"/>
  <unicode hex="003A"/>
  <outline>
    <contour>
      <point x="84" y="90" type="line"/>
      <point x="53" y="90" type="line"/>
      <point x="53" y="114" type="line"/>
      <point x="84" y="114" type="line"/>
    </contour>
    <contour>
      <point x="84" y="416" type="line"/>
      <point x="53" y="416" type="line"/>
      <point x="53" y="440" type="line"/>
      <point x="84" y="440" type="line"/>
    </contour>
  </outline>
</glyph>
<glyph name="semicolon.color0" format="2">
  <advance width="600"/>
  <unicode hex="003B"/>
  <outline>
    <contour>
      <point x="84" y="476" type="line"/>
      <point x="53" y="476" type="line"/>
      <point x="53" y="500" type="line"/>
      <point x="84" y="500" type="line"/>
    </contour>
  </outline>
</glyph>
<glyph name="semicolon.color1" format="2">
  <advance width="137"/>
  <unicode hex="003B"/>
  <outline>
    <contour>
      <point x="84" y="0" type="line"/>
      <point x="53" y="0" type="line"/>
      <point x="53" y="24" type="line"/>
      <point x="61" y="24" type="line"/>
    </contour>
  </outline>
</glyph>
<glyph name="less.color0" format="2">
  <advance width="600"/>
  <unicode hex="003C"/>
  <outline>
    <contour>
      <point x="156" y="453" type="line"/>
      <point x="195" y="453" type="line"/>
      <point x="195" y="452" type="line"/>
      <point x="82" y="341" type="line"/>
      <point x="43" y="341" type="line"/>
      <point x="43" y="342" type="line"/>
    </contour>
  </outline>
</glyph>
<glyph name="equal.color0" format="2">
  <advance width="296"/>
  <unicode hex="003D"/>
  <outline>
    <contour>
      <point x="243" y="379" type="line"/>
      <point x="53" y="379" type="line"/>
      <point x="53" y="403" type="line"/>
      <point x="243" y="403" type="line"/>
      <point x="243" y="402" type="line"/>
    </contour>
  </outline>
</glyph>
<glyph name="equal.color1" format="2">
  <advance width="296"/>
  <unicode hex="003D"/>
  <outline>
    <contour>
      <point x="243" y="289" type="line"/>
      <point x="53" y="289" type="line"/>
      <point x="53" y="313" type="line"/>
      <point x="243" y="313" type="line"/>
      <point x="243" y="312" type="line"/>
    </contour>
  </outline>
</glyph>
<glyph name="greater.color0" format="2">
  <advance width="600"/>
  <unicode hex="003E"/>
  <outline>
    <contour>
      <point x="112" y="229" type="line"/>
      <point x="73" y="229" type="line"/>
      <point x="73" y="230" type="line"/>
      <point x="186" y="341" type="line"/>
      <point x="225" y="341" type="line"/>
      <point x="225" y="340" type="line"/>
    </contour>
  </outline>
</glyph>
<glyph name="greater" format="2">
  <advance width="268"/>
  <unicode hex="003E"/>
  <outline>
    <contour>
      <point x="112" y="229" type="line"/>
      <point x="73" y="229" type="line"/>
      <point x="73" y="230" type="line"/>
      <point x="186" y="341" type="line"/>
      <point x="225" y="341" type="line"/>
      <point x="225" y="340" type="line"/>
    </contour>
    <contour>
      <point x="112" y="453" type="line"/>
      <point x="225" y="342" type="line"/>
      <point x="225" y="341" type="line"/>
      <point x="186" y="341" type="line"/>
      <point x="73" y="452" type="line"/>
      <point x="73" y="453" type="line"/>
    </contour>
  </outline>
</glyph>
<glyph name="question.color0" format="2">
  <advance width="253"/>
  <unicode hex="003F"/>
  <outline>
    <contour>
      <point x="134" y="0" type="line"/>
      <point x="103" y="0" type="line"/>
      <point x="103" y="24" type="line"/>
      <point x="134" y="24" type="line"/>
    </contour>
  </outline>
</glyph>
<glyph name="question.color1" format="2">
  <advance width="253"/>
  <unicode hex="003F"/>
  <outline>
    <contour>
      <point x="200" y="677" type="line"/>
      <point x="200" y="277" type="line"/>
      <point x="177" y="277" type="line"/>
      <point x="176" y="277" type="line"/>
      <point x="176" y="700" type="line"/>
      <point x="177" y="700" type="line"/>
    </contour>
  </outline>
</glyph>
<glyph name="question.color2" format="2">
  <advance width="253"/>
  <unicode hex="003F"/>
  <outline>
    <contour>
      <point x="76" y="700" type="line"/>
      <point x="176" y="700" type="line"/>
      <point x="176" y="676" type="line"/>
      <point x="53" y="676" type="line"/>
      <point x="53" y="677" type="line"/>
    </contour>
  </outline>
</glyph>
<glyph name="question.color3" format="2">
  <advance width="253"/>
  <unicode hex="003F"/>
  <outline>
    <contour>
      <point x="106" y="104" type="line"/>
      <point x="106" y="253" type="line"/>
      <point x="129" y="277" type="line"/>
      <point x="130" y="277" type="line"/>
      <point x="130" y="104" type="line"/>
    </contour>
  </outline>
</glyph>
<glyph name="question.color4" format="2">
  <advance width="600"/>
  <unicode hex="003F"/>
  <outline>
    <contour>
      <point x="177" y="253" type="line"/>
      <point x="130" y="253" type="line"/>
      <point x="130" y="277" type="line"/>
      <point x="200" y="277" type="line"/>
      <point x="200" y="276" type="line"/>
    </contour>
  </outline>
</glyph>
<glyph name="question" format="2">
  <advance width="253"/>
  <unicode hex="003F"/>
  <outline>
    <contour>
      <point x="134" y="0" type="line"/>
      <point x="103" y="0" type="line"/>
      <point x="103" y="24" type="line"/>
      <point x="134" y="24" type="line"/>
    </contour>
    <contour>
      <point x="200" y="677" type="line"/>
      <point x="200" y="277" type="line"/>
      <point x="177" y="277" type="line"/>
      <point x="176" y="277" type="line"/>
      <point x="176" y="700" type="line"/>
      <point x="177" y="700" type="line"/>
    </contour>
    <contour>
      <point x="76" y="700" type="line"/>
      <point x="176" y="700" type="line"/>
      <point x="176" y="676" type="line"/>
      <point x="53" y="676" type="line"/>
      <point x="53" y="677" type="line"/>
    </contour>
    <contour>
      <point x="106" y="104" type="line"/>
      <point x="106" y="253" type="line"/>
      <point x="129" y="277" type="line"/>
      <point x="130" y="277" type="line"/>
      <point x="130" y="104" type="line"/>
    </contour>
    <contour>
      <point x="177" y="253" type="line"/>
      <point x="130" y="253" type="line"/>
      <point x="130" y="277" type="line"/>
      <point x="200" y="277" type="line"/>
      <point x="200" y="276" type="line"/>
    </contour>
  </outline>
</glyph>
<glyph name="at.color0" format="2">
  <advance width="403"/>
  <unicode hex="0040"/>
  <outline>
    <contour>
      <point x="153" y="477" type="line"/>
      <point x="176" y="500" type="line"/>
      <point x="177" y="500" type="line"/>
      <point x="177" y="24" type="line"/>
      <point x="153" y="24" type="line"/>
    </contour>
  </outline>
</glyph>
<glyph name="at.color2" format="2">
  <advance width="403"/>
  <unicode hex="0040"/>
  <outline>
    <contour>
      <point x="250" y="0" type="line"/>
      <point x="226" y="24" type="line"/>
      <point x="226" y="476" type="line"/>
      <point x="250" y="476" type="line"/>
    </contour>
  </outline>
</glyph>
<glyph name="at.color4" format="2">
  <advance width="403"/>
  <unicode hex="0040"/>
  <outline>
    <contour>
      <point x="350" y="547" type="line"/>
      <point x="350" y="24" type="line"/>
      <point x="326" y="24" type="line"/>
      <point x="326" y="570" type="line"/>
      <point x="327" y="570" type="line"/>
    </contour>
  </outline>
</glyph>
<glyph name="at.color5" format="2">
  <advance width="403"/>
  <unicode hex="0040"/>
  <outline>
    <contour>
      <point x="76" y="570" type="line"/>
      <point x="326" y="570" type="line"/>
      <point x="326" y="546" type="line"/>
      <point x="53" y="546" type="line"/>
      <point x="53" y="547" type="line"/>
    </contour>
  </outline>
</glyph>
<glyph name="at.color6" format="2">
  <advance width="403"/>
  <unicode hex="0040"/>
  <outline>
    <contour>
      <point x="77" y="-71" type="line"/>
      <point x="77" y="-47" type="line"/>
      <point x="327" y="-47" type="line"/>
      <point x="327" y="-71" type="line"/>
    </contour>
  </outline>
</glyph>
<glyph name="at.color7" format="2">
  <advance width="403"/>
  <unicode hex="0040"/>
  <outline>
    <contour>
      <point x="327" y="0" type="line"/>
      <point x="250" y="0" type="line"/>
      <point x="250" y="24" type="line"/>
      <point x="350" y="24" type="line"/>
      <point x="350" y="23" type="line"/>
    </contour>
  </outline>
</glyph>
<glyph name="at.color8" format="2">
  <advance width="403"/>
  <unicode hex="0040"/>
  <outline>
    <contour>
      <point x="53" y="-48" type="line"/>
      <point x="53" y="546" type="line"/>
      <point x="77" y="546" type="line"/>
      <point x="77" y="-71" type="line"/>
      <point x="76" y="-71" type="line"/>
    </contour>
  </outline>
</glyph>
<glyph name="at" format="2">
  <advance width="403"/>
  <unicode hex="0040"/>
  <outline>
    <contour>
      <point x="153" y="477" type="line"/>
      <point x="176" y="500" type="line"/>
      <point x="177" y="500" type="line"/>
      <point x="177" y="24" type="line"/>
      <point x="153" y="24" type="line"/>
    </contour>
    <contour>
      <point x="227" y="500" type="line"/>
      <point x="250" y="477" type="line"/>
      <point x="250" y="476" type="line"/>
      <point x="177" y="476" type="line"/>
      <point x="177" y="500" type="line"/>
    </contour>
    <contour>
      <point x="250" y="0" type="line"/>
      <point x="226" y="24" type="line"/>
      <point x="226" y="476" type="line"/>
      <point x="250" y="476" type="line"/>
    </contour>
    <contour>
      <point x="176" y="0" type="line"/>
      <point x="153" y="23" type="line"/>
      <point x="153" y="24" type="line"/>
      <point x="226" y="24" type="line"/>
      <point x="226" y="0" type="line"/>
    </contour>
    <contour>
      <point x="350" y="547" type="line"/>
      <point x="350" y="24" type="line"/>
      <point x="326" y="24" type="line"/>
      <point x="326" y="570" type="line"/>
      <point x="327" y="570" type="line"/>
    </contour>
    <contour>
      <point x="76" y="570" type="line"/>
      <point x="326" y="570" type="line"/>
      <point x="326" y="546" type="line"/>
      <point x="53" y="546" type="line"/>
      <point x="53" y="547" type="line"/>
    </contour>
    <contour>
      <point x="77" y="-71" type="line"/>
      <point x="77" y="-47" type="line"/>
      <point x="327" y="-47" type="line"/>
      <point x="327" y="-71" type="line"/>
    </contour>
    <contour>
      <point x="327" y="0" type="line"/>
      <point x="250" y="0" type="line"/>
      <point x="250" y="24" type="line"/>
      <point x="350" y="24" type="line"/>
      <point x="350" y="23" type="line"/>
    </contour>
    <contour>
      <point x="53" y="-48" type="line"/>
      <point x="53" y="546" type="line"/>
      <point x="77" y="546" type="line"/>
      <point x="77" y="-71" type="line"/>
      <point x="76" y="-71" type="line"/>
    </contour>
  </outline>
</glyph>
<glyph name="A" format="2">
  <advance width="273"/>
  <unicode hex="0041"/>
  <anchor x="135" y="0" name="bottom"/>
  <anchor x="138" y="700" name="top"/>
  <outline>
    <contour>
      <point x="53" y="677" type="line"/>
      <point x="76" y="700" type="line"/>
      <point x="77" y="700" type="line"/>
      <point x="77" y="0" type="line"/>
      <point x="53" y="0" type="line"/>
    </contour>
    <contour>
      <point x="197" y="700" type="line"/>
      <point x="220" y="677" type="line"/>
      <point x="220" y="676" type="line"/>
      <point x="77" y="676" type="line"/>
      <point x="77" y="700" type="line"/>
    </contour>
    <contour>
      <point x="220" y="0" type="line"/>
      <point x="197" y="0" type="line"/>
      <point x="196" y="0" type="line"/>
      <point x="196" y="676" type="line"/>
      <point x="220" y="676" type="line"/>
    </contour>
    <contour>
      <point x="196" y="353" type="line"/>
      <point x="77" y="353" type="line"/>
      <point x="77" y="376" type="line"/>
      <point x="77" y="377" type="line"/>
      <point x="196" y="377" type="line"/>
    </contour>
  </outline>
</glyph>
<glyph name="E.color2" format="2">
  <advance width="600"/>
  <unicode hex="0045"/>
  <outline>
    <contour>
      <point x="196" y="353" type="line"/>
      <point x="77" y="353" type="line"/>
      <point x="77" y="377" type="line"/>
      <point x="196" y="377" type="line"/>
    </contour>
  </outline>
</glyph>
<glyph name="G.color4" format="2">
  <advance width="273"/>
  <unicode hex="0047"/>
  <outline>
    <contour>
      <point x="220" y="24" type="line"/>
      <point x="197" y="0" type="line"/>
      <point x="196" y="0" type="line"/>
      <point x="196" y="377" type="line"/>
      <point x="197" y="377" type="line"/>
      <point x="220" y="353" type="line"/>
    </contour>
  </outline>
</glyph>
<glyph name="H" format="2">
  <advance width="293"/>
  <unicode hex="0048"/>
  <anchor x="146" y="700" name="top"/>
  <outline>
    <contour>
      <point x="53" y="700" type="line"/>
      <point x="76" y="700" type="line"/>
      <point x="77" y="700" type="line"/>
      <point x="77" y="0" type="line"/>
      <point x="53" y="0" type="line"/>
    </contour>
    <contour>
      <point x="240" y="0" type="line"/>
      <point x="217" y="0" type="line"/>
      <point x="216" y="0" type="line"/>
      <point x="216" y="700" type="line"/>
      <point x="240" y="700" type="line"/>
    </contour>
    <contour>
      <point x="77" y="353" type="line"/>
      <point x="77" y="376" type="line"/>
      <point x="77" y="377" type="line"/>
      <point x="216" y="377" type="line"/>
      <point x="216" y="353" type="line"/>
    </contour>
  </outline>
</glyph>
<glyph name="I.color1" format="2">
  <advance width="272"/>
  <unicode hex="0049"/>
  <outline>
    <contour>
      <point x="124" y="676" type="line"/>
      <point x="43" y="676" type="line"/>
      <point x="43" y="700" type="line"/>
      <point x="147" y="700" type="line"/>
    </contour>
  </outline>
</glyph>
<glyph name="J.color3" format="2">
  <advance width="600"/>
  <unicode hex="004A"/>
  <outline>
    <contour>
      <point x="43" y="24" type="line"/>
      <point x="187" y="24" type="line"/>
      <point x="187" y="23" type="line"/>
      <point x="163" y="0" type="line"/>
      <point x="43" y="0" type="line"/>
    </contour>
  </outline>
</glyph>
<glyph name="K.color3" format="2">
  <advance width="326"/>
  <unicode hex="004B"/>
  <outline>
    <contour>
      <point x="77" y="353" type="line"/>
      <point x="77" y="377" type="line"/>
      <point x="196" y="377" type="line"/>
      <point x="196" y="353" type="line"/>
    </contour>
  </outline>
</glyph>
<glyph name="M.color1" format="2">
  <advance width="600"/>
  <unicode hex="004D"/>
  <outline>
    <contour>
      <point x="365" y="680" type="line"/>
      <point x="222" y="-3" type="line"/>
      <point x="196" y="-3" type="line"/>
      <point x="342" y="703" type="line"/>
    </contour>
  </outline>
</glyph>
<glyph name="M.color2" format="2">
  <advance width="419"/>
  <unicode hex="004D"/>
  <outline>
    <contour>
      <point x="196" y="-3" type="line"/>
      <point x="53" y="679" type="line"/>
      <point x="53" y="680" type="line"/>
      <point x="76" y="703" type="line"/>
      <point x="77" y="703" type="line"/>
      <point x="222" y="-2" type="line"/>
      <point x="222" y="-3" type="line"/>
    </contour>
  </outline>
</glyph>
<glyph name="P.color2" format="2">
  <advance width="274"/>
  <unicode hex="0050"/>
  <outline>
    <contour>
      <point x="221" y="376" type="line"/>
      <point x="198" y="353" type="line"/>
      <point x="197" y="353" type="line"/>
      <point x="197" y="676" type="line"/>
      <point x="221" y="676" type="line"/>
    </contour>
  </outline>
</glyph>
<glyph name="S" format="2">
  <advance width="253"/>
  <unicode hex="0053"/>
  <anchor x="132" y="0" name="bottom"/>
  <anchor x="138" y="700" name="top"/>
  <outline>
    <contour>
      <point x="53" y="677" type="line"/>
      <point x="76" y="700" type="line"/>
      <point x="77" y="700" type="line"/>
      <point x="77" y="377" type="line"/>
      <point x="76" y="377" type="line"/>
      <point x="53" y="377" type="line"/>
    </contour>
    <contour>
      <point x="177" y="700" type="line"/>
      <point x="200" y="677" type="line"/>
      <point x="200" y="676" type="line"/>
      <point x="77" y="676" type="line"/>
      <point x="77" y="700" type="line"/>
    </contour>
    <contour>
      <point x="200" y="24" type="line"/>
      <point x="177" y="0" type="line"/>
      <point x="176" y="0" type="line"/>
      <point x="176" y="377" type="line"/>
      <point x="177" y="377" type="line"/>
      <point x="200" y="353" type="line"/>
    </contour>
    <contour>
      <point x="76" y="353" type="line"/>
      <point x="53" y="376" type="line"/>
      <point x="53" y="377" type="line"/>
      <point x="176" y="377" type="line"/>
      <point x="176" y="354" type="line"/>
      <point x="176" y="353" type="line"/>
    </contour>
    <contour>
      <point x="76" y="0" type="line"/>
      <point x="53" y="23" type="line"/>
      <point x="53" y="24" type="line"/>
      <point x="176" y="24" type="line"/>
      <point x="176" y="23" type="line"/>
      <point x="176" y="0" type="line"/>
    </contour>
  </outline>
</glyph>
<glyph name="V.color0" format="2">
  <advance width="290"/>
  <unicode hex="0056"/>
  <outline>
    <contour>
      <point x="53" y="700" type="line"/>
      <point x="77" y="700" type="line"/>
      <point x="160" y="12" type="line"/>
      <point x="138" y="0" type="line"/>
      <point x="137" y="0" type="line"/>
    </contour>
  </outline>
</glyph>
<glyph name="W.color2" format="2">
  <advance width="570"/>
  <unicode hex="0057"/>
  <outline>
    <contour>
      <point x="273" y="700" type="line"/>
      <point x="297" y="700" type="line"/>
      <point x="420" y="12" type="line"/>
      <point x="398" y="0" type="line"/>
      <point x="397" y="0" type="line"/>
    </contour>
  </outline>
</glyph>
<glyph name="X.color1" format="2">
  <advance width="600"/>
  <unicode hex="0058"/>
  <outline>
    <contour>
      <point x="237" y="700" type="line"/>
      <point x="161" y="350" type="line"/>
      <point x="138" y="350" type="line"/>
      <point x="213" y="700" type="line"/>
    </contour>
  </outline>
</glyph>
<glyph name="Z.color0" format="2">
  <advance width="262"/>
  <unicode hex="005A"/>
  <outline>
    <contour>
      <point x="53" y="700" type="line"/>
      <point x="186" y="700" type="line"/>
      <point x="183" y="676" type="line"/>
      <point x="53" y="676" type="line"/>
      <point x="53" y="677" type="line"/>
    </contour>
  </outline>
</glyph>
<glyph name="Z" format="2">
  <advance width="262"/>
  <unicode hex="005A"/>
  <anchor x="138" y="700" name="top"/>
  <outline>
    <contour>
      <point x="53" y="700" type="line"/>
      <point x="186" y="700" type="line"/>
      <point x="183" y="676" type="line"/>
      <point x="53" y="676" type="line"/>
      <point x="53" y="677" type="line"/>
    </contour>
    <contour>
      <point x="76" y="24" type="line"/>
      <point x="53" y="24" type="line"/>
      <point x="53" y="25" type="line"/>
      <point x="186" y="700" type="line"/>
      <point x="209" y="667" type="line"/>
    </contour>
    <contour>
      <point x="209" y="0" type="line"/>
      <point x="76" y="0" type="line"/>
      <point x="53" y="24" type="line"/>
      <point x="209" y="24" type="line"/>
      <point x="209" y="23" type="line"/>
    </contour>
  </outline>
</glyph>
<glyph name="bracketleft.color0" format="2">
  <advance width="167"/>
  <unicode hex="005B"/>
  <outline>
    <contour>
      <point x="53" y="700" type="line"/>
      <point x="76" y="700" type="line"/>
      <point x="77" y="700" type="line"/>
      <point x="77" y="-76" type="line"/>
      <point x="53" y="-76" type="line"/>
    </contour>
  </outline>
</glyph>
<glyph name="bracketleft.color1" format="2">
  <advance width="167"/>
  <unicode hex="005B"/>
  <outline>
    <contour>
      <point x="167" y="676" type="line"/>
      <point x="77" y="676" type="line"/>
      <point x="77" y="700" type="line"/>
      <point x="167" y="700" type="line"/>
      <point x="167" y="699" type="line"/>
    </contour>
  </outline>
</glyph>
<glyph name="bracketleft" format="2">
  <advance width="167"/>
  <unicode hex="005B"/>
  <outline>
    <contour>
      <point x="53" y="700" type="line"/>
      <point x="76" y="700" type="line"/>
      <point x="77" y="700" type="line"/>
      <point x="77" y="-76" type="line"/>
      <point x="53" y="-76" type="line"/>
    </contour>
    <contour>
      <point x="167" y="676" type="line"/>
      <point x="77" y="676" type="line"/>
      <point x="77" y="700" type="line"/>
      <point x="167" y="700" type="line"/>
      <point x="167" y="699" type="line"/>
    </contour>
    <contour>
      <point x="167" y="-100" type="line"/>
      <point x="53" y="-100" type="line"/>
      <point x="53" y="-77" type="line"/>
      <point x="53" y="-76" type="line"/>
      <point x="167" y="-76" type="line"/>
    </contour>
  </outline>
</glyph>
<glyph name="backslash" format="2">
  <advance width="274"/>
  <unicode hex="005C"/>
  <outline>
    <contour>
      <point x="53" y="700" type="line"/>
      <point x="76" y="700" type="line"/>
      <point x="221" y="1" type="line"/>
      <point x="221" y="0" type="line"/>
      <point x="198" y="0" type="line"/>
      <point x="53" y="699" type="line"/>
    </contour>
  </outline>
</glyph>
<glyph name="bracketright.color0" format="2">
  <advance width="167"/>
  <unicode hex="005D"/>
  <outline>
    <contour>
      <point x="114" y="-100" type="line"/>
      <point x="91" y="-100" type="line"/>
      <point x="90" y="-100" type="line"/>
      <point x="90" y="676" type="line"/>
      <point x="114" y="676" type="line"/>
    </contour>
  </outline>
</glyph>
<glyph name="bracketright.color1" format="2">
  <advance width="600"/>
  <unicode hex="005D"/>
  <outline>
    <contour>
      <point x="0" y="-76" type="line"/>
      <point x="90" y="-76" type="line"/>
      <point x="90" y="-100" type="line"/>
      <point x="0" y="-100" type="line"/>
      <point x="0" y="-99" type="line"/>
    </contour>
  </outline>
</glyph>
<glyph name="bracketright.color2" format="2">
  <advance width="167"/>
  <unicode hex="005D"/>
  <outline>
    <contour>
      <point x="0" y="700" type="line"/>
      <point x="114" y="700" type="line"/>
      <point x="114" y="677" type="line"/>
      <point x="114" y="676" type="line"/>
      <point x="0" y="676" type="line"/>
    </contour>
  </outline>
</glyph>
<glyph name="bracketright" format="2">
  <advance width="167"/>
  <unicode hex="005D"/>
  <outline>
    <contour>
      <point x="114" y="-100" type="line"/>
      <point x="91" y="-100" type="line"/>
      <point x="90" y="-100" type="line"/>
      <point x="90" y="676" type="line"/>
      <point x="114" y="676" type="line"/>
    </contour>
    <contour>
      <point x="0" y="-76" type="line"/>
      <point x="90" y="-76" type="line"/>
      <point x="90" y="-100" type="line"/>
      <point x="0" y="-100" type="line"/>
      <point x="0" y="-99" type="line"/>
    </contour>
    <contour>
      <point x="0" y="700" type="line"/>
      <point x="114" y="700" type="line"/>
      <point x="114" y="677" type="line"/>
      <point x="114" y="676" type="line"/>
      <point x="0" y="676" type="line"/>
    </contour>
  </outline>
</glyph>
<glyph name="asciicircum.color1" format="2">
  <advance width="600"/>
  <unicode hex="005E"/>
  <outline>
    <contour>
      <point x="53" y="468" type="line"/>
      <point x="53" y="469" type="line"/>
      <point x="102" y="700" type="line"/>
      <point x="124" y="700" type="line"/>
      <point x="77" y="468" type="line"/>
    </contour>
  </outline>
</glyph>
<glyph name="d.color2" format="2">
  <advance width="600"/>
  <unicode hex="0064"/>
  <outline>
    <contour>
      <point x="150" y="23" type="line"/>
      <point x="127" y="0" type="line"/>
      <point x="126" y="0" type="line"/>
      <point x="126" y="476" type="line"/>
      <point x="150" y="476" type="line"/>
    </contour>
  </outline>
</glyph>
<glyph name="g.color3" format="2">
  <advance width="600"/>
  <unicode hex="0067"/>
  <outline>
    <contour>
      <point x="167" y="476" type="line"/>
      <point x="77" y="476" type="line"/>
      <point x="77" y="500" type="line"/>
      <point x="190" y="500" type="line"/>
      <point x="190" y="499" type="line"/>
    </contour>
  </outline>
</glyph>
<glyph name="g.color4" format="2">
  <advance width="600"/>
  <unicode hex="0067"/>
  <outline>
    <contour>
      <point x="53" y="-200" type="line"/>
      <point x="53" y="-177" type="line"/>
      <point x="53" y="-176" type="line"/>
      <point x="126" y="-176" type="line"/>
      <point x="126" y="-200" type="line"/>
    </contour>
  </outline>
</glyph>
<glyph name="i.color1" format="2">
  <advance width="600"/>
  <unicode hex="0069"/>
  <outline>
    <contour>
      <point x="77" y="565" type="line"/>
      <point x="54" y="542" type="line"/>
      <point x="53" y="542" type="line"/>
      <point x="53" y="615" type="line"/>
      <point x="77" y="615" type="line"/>
    </contour>
  </outline>
</glyph>
<glyph name="k.color3" format="2">
  <advance width="600"/>
  <unicode hex="006B"/>
  <outline>
    <contour>
      <point x="127" y="575" type="line"/>
      <point x="150" y="598" type="line"/>
      <point x="151" y="598" type="line"/>
      <point x="151" y="377" type="line"/>
      <point x="127" y="377" type="line"/>
    </contour>
  </outline>
</glyph>
<glyph name="m.color1" format="2">
  <advance width="276"/>
  <unicode hex="006D"/>
  <outline>
    <contour>
      <point x="150" y="20" type="line"/>
      <point x="127" y="-3" type="line"/>
      <point x="126" y="-3" type="line"/>
      <point x="126" y="476" type="line"/>
      <point x="150" y="476" type="line"/>
    </contour>
    <contour>
      <point x="223" y="20" type="line"/>
      <point x="200" y="-3" type="line"/>
      <point x="199" y="-3" type="line"/>
      <point x="199" y="476" type="line"/>
      <point x="223" y="476" type="line"/>
    </contour>
  </outline>
</glyph>
<glyph name="p" format="2">
  <advance width="203"/>
  <unicode hex="0070"/>
  <outline>
    <contour>
      <point x="150" y="23" type="line"/>
      <point x="127" y="0" type="line"/>
      <point x="126" y="0" type="line"/>
      <point x="126" y="476" type="line"/>
      <point x="150" y="476" type="line"/>
    </contour>
    <contour>
      <point x="76" y="0" type="line"/>
      <point x="53" y="23" type="line"/>
      <point x="53" y="24" type="line"/>
      <point x="126" y="24" type="line"/>
      <point x="126" y="0" type="line"/>
    </contour>
    <contour>
      <point x="53" y="477" type="line"/>
      <point x="76" y="500" type="line"/>
      <point x="77" y="500" type="line"/>
      <point x="77" y="24" type="line"/>
      <point x="53" y="24" type="line"/>
    </contour>
    <contour>
      <point x="127" y="500" type="line"/>
      <point x="150" y="477" type="line"/>
      <point x="150" y="476" type="line"/>
      <point x="77" y="476" type="line"/>
      <point x="77" y="500" type="line"/>
    </contour>
    <contour>
      <point x="77" y="0" type="line"/>
      <point x="77" y="-200" type="line"/>
      <point x="53" y="-200" type="line"/>
      <point x="53" y="23" type="line"/>
      <point x="54" y="23" type="line"/>
    </contour>
  </outline>
</glyph>
<glyph name="q.color0" format="2">
  <advance width="600"/>
  <unicode hex="0071"/>
  <outline>
    <contour>
      <point x="150" y="-200" type="line"/>
      <point x="126" y="-200" type="line"/>
      <point x="126" y="475" type="line"/>
      <point x="126" y="476" type="line"/>
      <point x="150" y="476" type="line"/>
    </contour>
  </outline>
</glyph>
<glyph name="s" format="2">
  <advance width="182"/>
  <unicode hex="0073"/>
  <anchor x="95" y="0" name="bottom"/>
  <anchor x="103" y="500" name="top"/>
  <outline>
    <contour>
      <point x="116" y="500" type="line"/>
      <point x="139" y="477" type="line"/>
      <point x="139" y="476" type="line"/>
      <point x="69" y="476" type="line"/>
      <point x="66" y="500" type="line"/>
    </contour>
    <contour>
      <point x="116" y="24" type="line"/>
      <point x="43" y="467" type="line"/>
      <point x="66" y="500" type="line"/>
      <point x="139" y="25" type="line"/>
      <point x="139" y="24" type="line"/>
    </contour>
    <contour>
      <point x="66" y="0" type="line"/>
      <point x="43" y="23" type="line"/>
      <point x="43" y="24" type="line"/>
      <point x="139" y="24" type="line"/>
      <point x="116" y="0" type="line"/>
    </contour>
  </outline>
</glyph>
<glyph name="t.color2" format="2">
  <advance width="174"/>
  <unicode hex="0074"/>
  <outline>
    <contour>
      <point x="147" y="0" type="line"/>
      <point x="77" y="0" type="line"/>
      <point x="77" y="24" type="line"/>
      <point x="170" y="24" type="line"/>
      <point x="170" y="23" type="line"/>
    </contour>
  </outline>
</glyph>
<glyph name="t" format="2">
  <advance width="174"/>
  <unicode hex="0074"/>
  <anchor x="103" y="0" name="bottom"/>
  <anchor x="77" y="500" name="top"/>
  <outline>
    <contour>
      <point x="77" y="500" type="line"/>
      <point x="131" y="500" type="line"/>
      <point x="131" y="476" type="line"/>
      <point x="54" y="476" type="line"/>
    </contour>
    <contour>
      <point x="53" y="23" type="line"/>
      <point x="53" y="476" type="line"/>
      <point x="77" y="476" type="line"/>
      <point x="77" y="0" type="line"/>
      <point x="76" y="0" type="line"/>
    </contour>
    <contour>
      <point x="147" y="0" type="line"/>
      <point x="77" y="0" type="line"/>
      <point x="77" y="24" type="line"/>
      <point x="170" y="24" type="line"/>
      <point x="170" y="23" type="line"/>
    </contour>
    <contour>
      <point x="77" y="500" type="line"/>
      <point x="54" y="476" type="line"/>
      <point x="53" y="476" type="line"/>
      <point x="53" y="670" type="line"/>
      <point x="77" y="670" type="line"/>
    </contour>
  </outline>
</glyph>
<glyph name="w.color2" format="2">
  <advance width="600"/>
  <unicode hex="0077"/>
  <outline>
    <contour>
      <point x="76" y="0" type="line"/>
      <point x="53" y="23" type="line"/>
      <point x="53" y="24" type="line"/>
      <point x="126" y="24" type="line"/>
      <point x="126" y="0" type="line"/>
    </contour>
  </outline>
</glyph>
<glyph name="w.color3" format="2">
  <advance width="600"/>
  <unicode hex="0077"/>
  <outline>
    <contour>
      <point x="149" y="0" type="line"/>
      <point x="126" y="23" type="line"/>
      <point x="126" y="24" type="line"/>
      <point x="199" y="24" type="line"/>
      <point x="199" y="0" type="line"/>
    </contour>
  </outline>
</glyph>
<glyph name="w" format="2">
  <advance width="276"/>
  <unicode hex="0077"/>
  <anchor x="143" y="500" name="top"/>
  <outline>
    <contour>
      <point x="223" y="23" type="line"/>
      <point x="200" y="0" type="line"/>
      <point x="199" y="0" type="line"/>
      <point x="199" y="500" type="line"/>
      <point x="223" y="500" type="line"/>
    </contour>
    <contour>
      <point x="126" y="480" type="line"/>
      <point x="149" y="503" type="line"/>
      <point x="150" y="503" type="line"/>
      <point x="150" y="24" type="line"/>
      <point x="126" y="24" type="line"/>
    </contour>
    <contour>
      <point x="53" y="480" type="line"/>
      <point x="76" y="503" type="line"/>
      <point x="77" y="503" type="line"/>
      <point x="77" y="24" type="line"/>
      <point x="53" y="24" type="line"/>
    </contour>
    <contour>
      <point x="76" y="0" type="line"/>
      <point x="53" y="23" type="line"/>
      <point x="53" y="24" type="line"/>
      <point x="126" y="24" type="line"/>
      <point x="126" y="0" type="line"/>
    </contour>
    <contour>
      <point x="149" y="0" type="line"/>
      <point x="126" y="23" type="line"/>
      <point x="126" y="24" type="line"/>
      <point x="199" y="24" type="line"/>
      <point x="199" y="0" type="line"/>
    </contour>
  </outline>
</glyph>
<glyph name="x.color0" format="2">
  <advance width="600"/>
  <unicode hex="0078"/>
  <outline>
    <contour>
      <point x="4" y="500" type="line"/>
      <point x="28" y="500" type="line"/>
      <point x="86" y="254" type="line"/>
      <point x="64" y="250" type="line"/>
      <point x="63" y="250" type="line"/>
    </contour>
  </outline>
</glyph>
<glyph name="x.color1" format="2">
  <advance width="149"/>
  <unicode hex="0078"/>
  <outline>
    <contour>
      <point x="138" y="500" type="line"/>
      <point x="87" y="250" type="line"/>
      <point x="64" y="250" type="line"/>
      <point x="114" y="500" type="line"/>
    </contour>
  </outline>
</glyph>
<glyph name="x.color2" format="2">
  <advance width="600"/>
  <unicode hex="0078"/>
  <outline>
    <contour>
      <point x="145" y="0" type="line"/>
      <point x="121" y="0" type="line"/>
      <point x="64" y="246" type="line"/>
      <point x="86" y="250" type="line"/>
      <point x="87" y="250" type="line"/>
    </contour>
  </outline>
</glyph>
<glyph name="x.color3" format="2">
  <advance width="600"/>
  <unicode hex="0078"/>
  <outline>
    <contour>
      <point x="11" y="0" type="line"/>
      <point x="63" y="250" type="line"/>
      <point x="86" y="250" type="line"/>
      <point x="35" y="0" type="line"/>
    </contour>
  </outline>
</glyph>
<glyph name="z" format="2">
  <advance width="232"/>
  <unicode hex="007A"/>
  <anchor x="113" y="500" name="top"/>
  <outline>
    <contour>
      <point x="53" y="500" type="line"/>
      <point x="156" y="500" type="line"/>
      <point x="153" y="476" type="line"/>
      <point x="53" y="476" type="line"/>
      <point x="53" y="477" type="line"/>
    </contour>
    <contour>
      <point x="76" y="24" type="line"/>
      <point x="53" y="24" type="line"/>
      <point x="53" y="25" type="line"/>
      <point x="156" y="500" type="line"/>
      <point x="179" y="467" type="line"/>
    </contour>
    <contour>
      <point x="179" y="0" type="line"/>
      <point x="76" y="0" type="line"/>
      <point x="53" y="24" type="line"/>
      <point x="179" y="24" type="line"/>
      <point x="179" y="23" type="line"/>
    </contour>
  </outline>
</glyph>
<glyph name="braceleft.color1" format="2">
  <advance width="600"/>
  <unicode hex="007B"/>
  <outline>
    <contour>
      <point x="122" y="286" type="line"/>
      <point x="122" y="-100" type="line"/>
      <point x="98" y="-76" type="line"/>
      <point x="98" y="316" type="line"/>
      <point x="99" y="316" type="line"/>
    </contour>
  </outline>
</glyph>
<glyph name="braceleft.color2" format="2">
  <advance width="265"/>
  <unicode hex="007B"/>
  <outline>
    <contour>
      <point x="212" y="700" type="line"/>
      <point x="212" y="676" type="line"/>
      <point x="122" y="676" type="line"/>
      <point x="122" y="700" type="line"/>
    </contour>
  </outline>
</glyph>
<glyph name="braceleft.color3" format="2">
  <advance width="265"/>
  <unicode hex="007B"/>
  <outline>
    <contour>
      <point x="53" y="316" type="line"/>
      <point x="98" y="316" type="line"/>
      <point x="98" y="292" type="line"/>
      <point x="53" y="292" type="line"/>
    </contour>
  </outline>
</glyph>
<glyph name="braceleft.color4" format="2">
  <advance width="265"/>
  <unicode hex="007B"/>
  <outline>
    <contour>
      <point x="122" y="322" type="line"/>
      <point x="99" y="292" type="line"/>
      <point x="98" y="292" type="line"/>
      <point x="98" y="676" type="line"/>
      <point x="122" y="700" type="line"/>
    </contour>
  </outline>
</glyph>
<glyph name="bar" format="2">
  <advance width="130"/>
  <unicode hex="007C"/>
  <outline>
    <contour>
      <point x="53" y="700" type="line"/>
      <point x="76" y="700" type="line"/>
      <point x="77" y="700" type="line"/>
      <point x="77" y="0" type="line"/>
      <point x="53" y="0" type="line"/>
    </contour>
  </outline>
</glyph>
<glyph name="braceright.color0" format="2">
  <advance width="212"/>
  <unicode hex="007D"/>
  <outline>
    <contour>
      <point x="0" y="676" type="line"/>
      <point x="0" y="700" type="line"/>
      <point x="90" y="700" type="line"/>
      <point x="90" y="676" type="line"/>
    </contour>
  </outline>
</glyph>
<glyph name="braceright.color2" format="2">
  <advance width="212"/>
  <unicode hex="007D"/>
  <outline>
    <contour>
      <point x="0" y="-100" type="line"/>
      <point x="0" y="-76" type="line"/>
      <point x="90" y="-76" type="line"/>
      <point x="90" y="-100" type="line"/>
    </contour>
  </outline>
</glyph>
<glyph name="braceright.color3" format="2">
  <advance width="212"/>
  <unicode hex="007D"/>
  <outline>
    <contour>
      <point x="159" y="284" type="line"/>
      <point x="114" y="284" type="line"/>
      <point x="114" y="308" type="line"/>
      <point x="159" y="308" type="line"/>
    </contour>
  </outline>
</glyph>
<glyph name="braceright.color4" format="2">
  <advance width="212"/>
  <unicode hex="007D"/>
  <outline>
    <contour>
      <point x="90" y="278" type="line"/>
      <point x="113" y="308" type="line"/>
      <point x="114" y="308" type="line"/>
      <point x="114" y="-76" type="line"/>
      <point x="90" y="-100" type="line"/>
    </contour>
  </outline>
</glyph>
<glyph name="braceright" format="2">
  <advance width="212"/>
  <unicode hex="007D"/>
  <outline>
    <contour>
      <point x="0" y="676" type="line"/>
      <point x="0" y="700" type="line"/>
      <point x="90" y="700" type="line"/>
      <point x="90" y="676" type="line"/>
    </contour>
    <contour>
      <point x="90" y="314" type="line"/>
      <point x="90" y="700" type="line"/>
      <point x="114" y="676" type="line"/>
      <point x="114" y="284" type="line"/>
      <point x="113" y="284" type="line"/>
    </contour>
    <contour>
      <point x="0" y="-100" type="line"/>
      <point x="0" y="-76" type="line"/>
      <point x="90" y="-76" type="line"/>
      <point x="90" y="-100" type="line"/>
    </contour>
    <contour>
      <point x="159" y="284" type="line"/>
      <point x="114" y="284" type="line"/>
      <point x="114" y="308" type="line"/>
      <point x="159" y="308" type="line"/>
    </contour>
    <contour>
      <point x="90" y="278" type="line"/>
      <point x="113" y="308" type="line"/>
      <point x="114" y="308" type="line"/>
      <point x="114" y="-76" type="line"/>
      <point x="90" y="-100" type="line"/>
    </contour>
  </outline>
</glyph>
<glyph name="asciitilde.color2" format="2">
  <advance width="294"/>
  <unicode hex="007E"/>
  <outline>
    <contour>
      <point x="53" y="282" type="line"/>
      <point x="53" y="333" type="line"/>
      <point x="77" y="353" type="line"/>
      <point x="77" y="282" type="line"/>
    </contour>
  </outline>
</glyph>
<glyph name="asciitilde" format="2">
  <advance width="294"/>
  <unicode hex="007E"/>
  <outline>
    <contour>
      <point x="241" y="353" type="line"/>
      <point x="241" y="301" type="line"/>
      <point x="217" y="302" type="line"/>
      <point x="217" y="353" type="line"/>
    </contour>
    <contour>
      <point x="53" y="333" type="line"/>
      <point x="53" y="334" type="line"/>
      <point x="77" y="353" type="line"/>
      <point x="78" y="353" type="line"/>
      <point x="241" y="302" type="line"/>
      <point x="241" y="301" type="line"/>
      <point x="217" y="280" type="line"/>
      <point x="216" y="280" type="line"/>
    </contour>
    <contour>
      <point x="53" y="282" type="line"/>
      <point x="53" y="333" type="line"/>
      <point x="77" y="353" type="line"/>
      <point x="77" y="282" type="line"/>
    </contour>
  </outline>
</glyph>
<glyph name="exclamdown.color0" format="2">
  <advance width="137"/>
  <unicode hex="00A1"/>
  <outline>
    <contour>
      <point x="53" y="670" type="line"/>
      <point x="84" y="670" type="line"/>
      <point x="84" y="646" type="line"/>
      <point x="53" y="646" type="line"/>
    </contour>
  </outline>
</glyph>
<glyph name="exclamdown" format="2">
  <advance width="137"/>
  <unicode hex="00A1"/>
  <outline>
    <contour>
      <point x="53" y="670" type="line"/>
      <point x="84" y="670" type="line"/>
      <point x="84" y="646" type="line"/>
      <point x="53" y="646" type="line"/>
    </contour>
    <contour>
      <point x="84" y="-10" type="line"/>
      <point x="61" y="-33" type="line"/>
      <point x="60" y="-33" type="line"/>
      <point x="60" y="566" type="line"/>
      <point x="84" y="566" type="line"/>
    </contour>
  </outline>
</glyph>
<glyph name="cent.color3" format="2">
  <advance width="203"/>
  <unicode hex="00A2"/>
  <outline>
    <contour>
      <point x="127" y="500" type="line"/>
      <point x="150" y="477" type="line"/>
      <point x="150" y="476" type="line"/>
      <point x="77" y="476" type="line"/>
      <point x="77" y="500" type="line"/>
    </contour>
  </outline>
</glyph>
<glyph name="cent.color4" format="2">
  <advance width="203"/>
  <unicode hex="00A2"/>
  <outline>
    <contour>
      <point x="76" y="0" type="line"/>
      <point x="53" y="23" type="line"/>
      <point x="53" y="24" type="line"/>
      <point x="139" y="24" type="line"/>
      <point x="139" y="23" type="line"/>
      <point x="116" y="0" type="line"/>
    </contour>
  </outline>
</glyph>
<glyph name="cent" format="2">
  <advance width="203"/>
  <unicode hex="00A2"/>
  <anchor x="105" y="0" name="bottom"/>
  <anchor x="103" y="500" name="top"/>
  <outline>
    <contour>
      <point x="112" y="-31" type="line"/>
      <point x="89" y="-54" type="line"/>
      <point x="88" y="-54" type="line"/>
      <point x="88" y="16" type="line"/>
      <point x="89" y="16" type="line"/>
      <point x="112" y="16" type="line"/>
    </contour>
    <contour>
      <point x="87" y="523" type="line"/>
      <point x="110" y="546" type="line"/>
      <point x="111" y="546" type="line"/>
      <point x="112" y="487" type="line"/>
      <point x="111" y="487" type="line"/>
      <point x="88" y="487" type="line"/>
    </contour>
    <contour>
      <point x="53" y="477" type="line"/>
      <point x="76" y="500" type="line"/>
      <point x="77" y="500" type="line"/>
      <point x="77" y="24" type="line"/>
      <point x="53" y="24" type="line"/>
    </contour>
    <contour>
      <point x="127" y="500" type="line"/>
      <point x="150" y="477" type="line"/>
      <point x="150" y="476" type="line"/>
      <point x="77" y="476" type="line"/>
      <point x="77" y="500" type="line"/>
    </contour>
    <contour>
      <point x="76" y="0" type="line"/>
      <point x="53" y="23" type="line"/>
      <point x="53" y="24" type="line"/>
      <point x="139" y="24" type="line"/>
      <point x="139" y="23" type="line"/>
      <point x="116" y="0" type="line"/>
    </contour>
  </outline>
</glyph>
<glyph name="sterling.color2" format="2">
  <advance width="343"/>
  <unicode hex="00A3"/>
  <outline>
    <contour>
      <point x="237" y="700" type="line"/>
      <point x="260" y="677" type="line"/>
      <point x="260" y="676" type="line"/>
      <point x="127" y="676" type="line"/>
      <point x="127" y="700" type="line"/>
    </contour>
  </outline>
</glyph>
<glyph name="sterling" format="2">
  <advance width="343"/>
  <unicode hex="00A3"/>
  <outline>
    <contour>
      <point x="275" y="399" type="line"/>
      <point x="275" y="375" type="line"/>
      <point x="53" y="374" type="line"/>
      <point x="53" y="398" type="line"/>
    </contour>
    <contour>
      <point x="103" y="677" type="line"/>
      <point x="126" y="700" type="line"/>
      <point x="127" y="700" type="line"/>
      <point x="127" y="24" type="line"/>
      <point x="126" y="24" type="line"/>
      <point x="103" y="24" type="line"/>
    </contour>
    <contour>
      <point x="237" y="700" type="line"/>
      <point x="260" y="677" type="line"/>
      <point x="260" y="676" type="line"/>
      <point x="127" y="676" type="line"/>
      <point x="127" y="700" type="line"/>
    </contour>
    <contour>
      <point x="53" y="0" type="line"/>
      <point x="53" y="23" type="line"/>
      <point x="53" y="24" type="line"/>
      <point x="290" y="24" type="line"/>
      <point x="290" y="23" type="line"/>
      <point x="290" y="0" type="line"/>
    </contour>
  </outline>
</glyph>
<glyph name="currency.color2" format="2">
  <advance width="284"/>
  <unicode hex="00A4"/>
  <outline>
    <contour>
      <point x="168" y="550" type="line"/>
      <point x="207" y="603" type="line"/>
      <point x="231" y="580" type="line"/>
      <point x="191" y="526" type="line"/>
    </contour>
  </outline>
</glyph>
<glyph name="currency.color4" format="2">
  <advance width="600"/>
  <unicode hex="00A4"/>
  <outline>
    <contour>
      <point x="93" y="527" type="line"/>
      <point x="117" y="550" type="line"/>
      <point x="117" y="174" type="line"/>
      <point x="93" y="174" type="line"/>
    </contour>
  </outline>
</glyph>
<glyph name="currency.color6" format="2">
  <advance width="284"/>
  <unicode hex="00A4"/>
  <outline>
    <contour>
      <point x="191" y="173" type="line"/>
      <point x="167" y="150" type="line"/>
      <point x="167" y="526" type="line"/>
      <point x="191" y="526" type="line"/>
    </contour>
  </outline>
</glyph>
<glyph name="yen.color0" format="2">
  <advance width="290"/>
  <unicode hex="00A5"/>
  <outline>
    <contour>
      <point x="212" y="343" type="line"/>
      <point x="235" y="320" type="line"/>
      <point x="235" y="319" type="line"/>
      <point x="76" y="318" type="line"/>
      <point x="76" y="319" type="line"/>
      <point x="53" y="342" type="line"/>
    </contour>
  </outline>
</glyph>
<glyph name="yen.color1" format="2">
  <advance width="290"/>
  <unicode hex="00A5"/>
  <outline>
    <contour>
      <point x="212" y="254" type="line"/>
      <point x="235" y="231" type="line"/>
      <point x="235" y="230" type="line"/>
      <point x="76" y="229" type="line"/>
      <point x="76" y="230" type="line"/>
      <point x="53" y="253" type="line"/>
    </contour>
  </outline>
</glyph>
<glyph name="yen.color2" format="2">
  <advance width="290"/>
  <unicode hex="00A5"/>
  <outline>
    <contour>
      <point x="43" y="700" type="line"/>
      <point x="67" y="700" type="line"/>
      <point x="160" y="356" type="line"/>
      <point x="138" y="350" type="line"/>
      <point x="137" y="350" type="line"/>
    </contour>
  </outline>
</glyph>
<glyph name="yen.color3" format="2">
  <advance width="290"/>
  <unicode hex="00A5"/>
  <outline>
    <contour>
      <point x="247" y="700" type="line"/>
      <point x="161" y="350" type="line"/>
      <point x="138" y="350" type="line"/>
      <point x="223" y="700" type="line"/>
    </contour>
  </outline>
</glyph>
<glyph name="yen" format="2">
  <advance width="290"/>
  <unicode hex="00A5"/>
  <anchor x="149" y="0" name="bottom"/>
  <anchor x="147" y="700" name="top"/>
  <outline>
    <contour>
      <point x="212" y="343" type="line"/>
      <point x="235" y="320" type="line"/>
      <point x="235" y="319" type="line"/>
      <point x="76" y="318" type="line"/>
      <point x="76" y="319" type="line"/>
      <point x="53" y="342" type="line"/>
    </contour>
    <contour>
      <point x="212" y="254" type="line"/>
      <point x="235" y="231" type="line"/>
      <point x="235" y="230" type="line"/>
      <point x="76" y="229" type="line"/>
      <point x="76" y="230" type="line"/>
      <point x="53" y="253" type="line"/>
    </contour>
    <contour>
      <point x="43" y="700" type="line"/>
      <point x="67" y="700" type="line"/>
      <point x="160" y="356" type="line"/>
      <point x="138" y="350" type="line"/>
      <point x="137" y="350" type="line"/>
    </contour>
    <contour>
      <point x="247" y="700" type="line"/>
      <point x="161" y="350" type="line"/>
      <point x="138" y="350" type="line"/>
      <point x="223" y="700" type="line"/>
    </contour>
    <contour>
      <point x="161" y="0" type="line"/>
      <point x="137" y="0" type="line"/>
      <point x="137" y="350" type="line"/>
      <point x="161" y="350" type="line"/>
    </contour>
  </outline>
</glyph>
<glyph name="brokenbar.color0" format="2">
  <advance width="600"/>
  <unicode hex="00A6"/>
  <outline>
    <contour>
      <point x="53" y="700" type="line"/>
      <point x="76" y="700" type="line"/>
      <point x="77" y="700" type="line"/>
      <point x="77" y="422" type="line"/>
      <point x="53" y="422" type="line"/>
    </contour>
  </outline>
</glyph>
<glyph name="section.color1" format="2">
  <advance width="600"/>
  <unicode hex="00A7"/>
  <outline>
    <contour>
      <point x="201" y="700" type="line"/>
      <point x="224" y="677" type="line"/>
      <point x="224" y="676" type="line"/>
      <point x="94" y="676" type="line"/>
      <point x="91" y="700" type="line"/>
    </contour>
  </outline>
</glyph>
<glyph name="section.color2" format="2">
  <advance width="600"/>
  <unicode hex="00A7"/>
  <outline>
    <contour>
      <point x="89" y="-100" type="line"/>
      <point x="66" y="-77" type="line"/>
      <point x="66" y="-76" type="line"/>
      <point x="196" y="-76" type="line"/>
      <point x="199" y="-100" type="line"/>
    </contour>
  </outline>
</glyph>
<glyph name="section.color5" format="2">
  <advance width="290"/>
  <unicode hex="00A7"/>
  <outline>
    <contour>
      <point x="53" y="414" type="line"/>
      <point x="53" y="415" type="line"/>
      <point x="77" y="429" type="line"/>
      <point x="219" y="-76" type="line"/>
      <point x="199" y="-100" type="line"/>
    </contour>
  </outline>
</glyph>
<glyph name="dieresis.color0" format="2">
  <advance width="600"/>
  <unicode hex="00A8"/>
  <outline>
    <contour>
      <point x="297" y="601" type="line"/>
      <point x="266" y="601" type="line"/>
      <point x="266" y="635" type="line"/>
      <point x="297" y="635" type="line"/>
    </contour>
  </outline>
</glyph>
<glyph name="copyright.color0" format="2">
  <advance width="403"/>
  <unicode hex="00A9"/>
  <outline>
    <contour>
      <point x="350" y="606" type="line"/>
      <point x="350" y="-17" type="line"/>
      <point x="326" y="-17" type="line"/>
      <point x="326" y="629" type="line"/>
      <point x="327" y="629" type="line"/>
    </contour>
  </outline>
</glyph>
<glyph name="copyright.color2" format="2">
  <advance width="403"/>
  <unicode hex="00A9"/>
  <outline>
    <contour>
      <point x="53" y="-18" type="line"/>
      <point x="53" y="605" type="line"/>
      <point x="77" y="605" type="line"/>
      <point x="77" y="-41" type="line"/>
      <point x="76" y="-41" type="line"/>
    </contour>
  </outline>
</glyph>
<glyph name="copyright.color4" format="2">
  <advance width="403"/>
  <unicode hex="00A9"/>
  <outline>
    <contour>
      <point x="156" y="521" type="line"/>
      <point x="179" y="544" type="line"/>
      <point x="180" y="544" type="line"/>
      <point x="180" y="68" type="line"/>
      <point x="156" y="68" type="line"/>
    </contour>
  </outline>
</glyph>
<glyph name="copyright.color5" format="2">
  <advance width="403"/>
  <unicode hex="00A9"/>
  <outline>
    <contour>
      <point x="230" y="544" type="line"/>
      <point x="253" y="521" type="line"/>
      <point x="253" y="520" type="line"/>
      <point x="180" y="520" type="line"/>
      <point x="180" y="544" type="line"/>
    </contour>
  </outline>
</glyph>
<glyph name="copyright.color6" format="2">
  <advance width="403"/>
  <unicode hex="00A9"/>
  <outline>
    <contour>
      <point x="179" y="44" type="line"/>
      <point x="156" y="67" type="line"/>
      <point x="156" y="68" type="line"/>
      <point x="242" y="68" type="line"/>
      <point x="242" y="67" type="line"/>
      <point x="219" y="44" type="line"/>
    </contour>
  </outline>
</glyph>
<glyph name="copyright" format="2">
  <advance width="403"/>
  <unicode hex="00A9"/>
  <outline>
    <contour>
      <point x="350" y="606" type="line"/>
      <point x="350" y="-17" type="line"/>
      <point x="326" y="-17" type="line"/>
      <point x="326" y="629" type="line"/>
      <point x="327" y="629" type="line"/>
    </contour>
    <contour>
      <point x="76" y="629" type="line"/>
      <point x="326" y="629" type="line"/>
      <point x="326" y="605" type="line"/>
      <point x="53" y="605" type="line"/>
      <point x="53" y="606" type="line"/>
    </contour>
    <contour>
      <point x="53" y="-18" type="line"/>
      <point x="53" y="605" type="line"/>
      <point x="77" y="605" type="line"/>
      <point x="77" y="-41" type="line"/>
      <point x="76" y="-41" type="line"/>
    </contour>
    <contour>
      <point x="327" y="-41" type="line"/>
      <point x="77" y="-41" type="line"/>
      <point x="77" y="-17" type="line"/>
      <point x="350" y="-17" type="line"/>
      <point x="350" y="-18" type="line"/>
    </contour>
    <contour>
      <point x="156" y="521" type="line"/>
      <point x="179" y="544" type="line"/>
      <point x="180" y="544" type="line"/>
      <point x="180" y="68" type="line"/>
      <point x="156" y="68" type="line"/>
    </contour>
    <contour>
      <point x="230" y="544" type="line"/>
      <point x="253" y="521" type="line"/>
      <point x="253" y="520" type="line"/>
      <point x="180" y="520" type="line"/>
      <point x="180" y="544" type="line"/>
    </contour>
    <contour>
      <point x="179" y="44" type="line"/>
      <point x="156" y="67" type="line"/>
      <point x="156" y="68" type="line"/>
      <point x="242" y="68" type="line"/>
      <point x="242" y="67" type="line"/>
      <point x="219" y="44" type="line"/>
    </contour>
  </outline>
</glyph>
<glyph name="ordfeminine.color1" format="2">
  <advance width="190"/>
  <unicode hex="00AA"/>
  <outline>
    <contour>
      <point x="116" y="730" type="line"/>
      <point x="137" y="708" type="line"/>
      <point x="137" y="707" type="line"/>
      <point x="75" y="707" type="line"/>
      <point x="75" y="730" type="line"/>
    </contour>
  </outline>
</glyph>
<glyph name="guillemetleft.color3" format="2">
  <advance width="338"/>
  <unicode hex="00AB"/>
  <outline>
    <contour>
      <point x="186" y="100" type="line"/>
      <point x="43" y="276" type="line"/>
      <point x="43" y="277" type="line"/>
      <point x="72" y="277" type="line"/>
      <point x="215" y="101" type="line"/>
      <point x="215" y="100" type="line"/>
    </contour>
  </outline>
</glyph>
<glyph name="guillemetleft" format="2">
  <advance width="338"/>
  <unicode hex="00AB"/>
  <outline>
    <contour>
      <point x="266" y="453" type="line"/>
      <point x="295" y="453" type="line"/>
      <point x="295" y="452" type="line"/>
      <point x="152" y="277" type="line"/>
      <point x="123" y="277" type="line"/>
      <point x="123" y="278" type="line"/>
    </contour>
    <contour>
      <point x="266" y="100" type="line"/>
      <point x="123" y="276" type="line"/>
      <point x="123" y="277" type="line"/>
      <point x="152" y="277" type="line"/>
      <point x="295" y="101" type="line"/>
      <point x="295" y="100" type="line"/>
    </contour>
    <contour>
      <point x="186" y="453" type="line"/>
      <point x="215" y="453" type="line"/>
      <point x="215" y="452" type="line"/>
      <point x="72" y="277" type="line"/>
      <point x="43" y="277" type="line"/>
      <point x="43" y="278" type="line"/>
    </contour>
    <contour>
      <point x="186" y="100" type="line"/>
      <point x="43" y="276" type="line"/>
      <point x="43" y="277" type="line"/>
      <point x="72" y="277" type="line"/>
      <point x="215" y="101" type="line"/>
      <point x="215" y="100" type="line"/>
    </contour>
  </outline>
</glyph>
<glyph name="logicalnot" format="2">
  <advance width="297"/>
  <unicode hex="00AC"/>
  <outline>
    <contour>
      <point x="244" y="329" type="line"/>
      <point x="53" y="329" type="line"/>
      <point x="53" y="353" type="line"/>
      <point x="221" y="353" type="line"/>
    </contour>
    <contour>
      <point x="244" y="261" type="line"/>
      <point x="221" y="238" type="line"/>
      <point x="220" y="238" type="line"/>
      <point x="220" y="329" type="line"/>
      <point x="244" y="329" type="line"/>
    </contour>
  </outline>
</glyph>
<glyph name="softhyphen" format="2">
  <advance width="181"/>
  <unicode hex="00AD"/>
  <outline>
    <contour>
      <point x="128" y="323" type="line"/>
      <point x="53" y="323" type="line"/>
      <point x="53" y="357" type="line"/>
      <point x="128" y="357" type="line"/>
      <point x="128" y="356" type="line"/>
    </contour>
  </outline>
</glyph>
<glyph name="registered.color0" format="2">
  <advance width="306"/>
  <unicode hex="00AE"/>
  <outline>
    <contour>
      <point x="201" y="450" type="line"/>
      <point x="175" y="450" type="line"/>
      <point x="152" y="548" type="line"/>
      <point x="176" y="558" type="line"/>
      <point x="201" y="451" type="line"/>
    </contour>
  </outline>
</glyph>
<glyph name="registered.color1" format="2">
  <advance width="306"/>
  <unicode hex="00AE"/>
  <outline>
    <contour>
      <point x="106" y="637" type="line"/>
      <point x="129" y="660" type="line"/>
      <point x="130" y="660" type="line"/>
      <point x="130" y="450" type="line"/>
      <point x="106" y="450" type="line"/>
    </contour>
  </outline>
</glyph>
<glyph name="registered.color2" format="2">
  <advance width="600"/>
  <unicode hex="00AE"/>
  <outline>
    <contour>
      <point x="170" y="660" type="line"/>
      <point x="193" y="637" type="line"/>
      <point x="193" y="636" type="line"/>
      <point x="130" y="636" type="line"/>
      <point x="130" y="660" type="line"/>
    </contour>
  </outline>
</glyph>
<glyph name="registered.color3" format="2">
  <advance width="306"/>
  <unicode hex="00AE"/>
  <outline>
    <contour>
      <point x="193" y="561" type="line"/>
      <point x="170" y="538" type="line"/>
      <point x="169" y="538" type="line"/>
      <point x="169" y="636" type="line"/>
      <point x="193" y="636" type="line"/>
    </contour>
  </outline>
</glyph>
<glyph name="registered.color4" format="2">
  <advance width="306"/>
  <unicode hex="00AE"/>
  <outline>
    <contour>
      <point x="130" y="538" type="line"/>
      <point x="130" y="561" type="line"/>
      <point x="130" y="562" type="line"/>
      <point x="169" y="562" type="line"/>
      <point x="169" y="538" type="line"/>
    </contour>
  </outline>
</glyph>
<glyph name="registered.color5" format="2">
  <advance width="306"/>
  <unicode hex="00AE"/>
  <outline>
    <contour>
      <point x="253" y="678" type="line"/>
      <point x="253" y="433" type="line"/>
      <point x="231" y="433" type="line"/>
      <point x="231" y="700" type="line"/>
      <point x="232" y="700" type="line"/>
    </contour>
  </outline>
</glyph>
<glyph name="registered.color6" format="2">
  <advance width="306"/>
  <unicode hex="00AE"/>
  <outline>
    <contour>
      <point x="75" y="700" type="line"/>
      <point x="231" y="700" type="line"/>
      <point x="231" y="677" type="line"/>
      <point x="53" y="677" type="line"/>
      <point x="53" y="678" type="line"/>
    </contour>
  </outline>
</glyph>
<glyph name="registered.color7" format="2">
  <advance width="306"/>
  <unicode hex="00AE"/>
  <outline>
    <contour>
      <point x="53" y="432" type="line"/>
      <point x="53" y="677" type="line"/>
      <point x="76" y="677" type="line"/>
      <point x="76" y="410" type="line"/>
      <point x="75" y="410" type="line"/>
    </contour>
  </outline>
</glyph>
<glyph name="registered.color8" format="2">
  <advance width="306"/>
  <unicode hex="00AE"/>
  <outline>
    <contour>
      <point x="232" y="410" type="line"/>
      <point x="76" y="410" type="line"/>
      <point x="76" y="433" type="line"/>
      <point x="253" y="433" type="line"/>
      <point x="253" y="432" type="line"/>
    </contour>
  </outline>
</glyph>
<glyph name="registered" format="2">
  <advance width="306"/>
  <unicode hex="00AE"/>
  <outline>
    <contour>
      <point x="201" y="450" type="line"/>
      <point x="175" y="450" type="line"/>
      <point x="152" y="548" type="line"/>
      <point x="176" y="558" type="line"/>
      <point x="201" y="451" type="line"/>
    </contour>
    <contour>
      <point x="106" y="637" type="line"/>
      <point x="129" y="660" type="line"/>
      <point x="130" y="660" type="line"/>
      <point x="130" y="450" type="line"/>
      <point x="106" y="450" type="line"/>
    </contour>
    <contour>
      <point x="170" y="660" type="line"/>
      <point x="193" y="637" type="line"/>
      <point x="193" y="636" type="line"/>
      <point x="130" y="636" type="line"/>
      <point x="130" y="660" type="line"/>
    </contour>
    <contour>
      <point x="193" y="561" type="line"/>
      <point x="170" y="538" type="line"/>
      <point x="169" y="538" type="line"/>
      <point x="169" y="636" type="line"/>
      <point x="193" y="636" type="line"/>
    </contour>
    <contour>
      <point x="130" y="538" type="line"/>
      <point x="130" y="561" type="line"/>
      <point x="130" y="562" type="line"/>
      <point x="169" y="562" type="line"/>
      <point x="169" y="538" type="line"/>
    </contour>
    <contour>
      <point x="253" y="678" type="line"/>
      <point x="253" y="433" type="line"/>
      <point x="231" y="433" type="line"/>
      <point x="231" y="700" type="line"/>
      <point x="232" y="700" type="line"/>
    </contour>
    <contour>
      <point x="75" y="700" type="line"/>
      <point x="231" y="700" type="line"/>
      <point x="231" y="677" type="line"/>
      <point x="53" y="677" type="line"/>
      <point x="53" y="678" type="line"/>
    </contour>
    <contour>
      <point x="53" y="432" type="line"/>
      <point x="53" y="677" type="line"/>
      <point x="76" y="677" type="line"/>
      <point x="76" y="410" type="line"/>
      <point x="75" y="410" type="line"/>
    </contour>
    <contour>
      <point x="232" y="410" type="line"/>
      <point x="76" y="410" type="line"/>
      <point x="76" y="433" type="line"/>
      <point x="253" y="433" type="line"/>
      <point x="253" y="432" type="line"/>
    </contour>
  </outline>
</glyph>
<glyph name="macron" format="2">
  <advance width="600"/>
  <unicode hex="00AF"/>
  <anchor x="306" y="500" name="_top"/>
  <outline>
    <contour>
      <point x="361" y="611" type="line"/>
      <point x="251" y="611" type="line"/>
      <point x="251" y="635" type="line"/>
      <point x="361" y="635" type="line"/>
    </contour>
  </outline>
</glyph>
<glyph name="degree.color0" format="2">
  <advance width="145"/>
  <unicode hex="00B0"/>
  <outline>
    <contour>
      <point x="0" y="678" type="line"/>
      <point x="21" y="700" type="line"/>
      <point x="22" y="700" type="line"/>
      <point x="22" y="598" type="line"/>
      <point x="0" y="598" type="line"/>
    </contour>
  </outline>
</glyph>
<glyph name="degree.color1" format="2">
  <advance width="145"/>
  <unicode hex="00B0"/>
  <outline>
    <contour>
      <point x="70" y="700" type="line"/>
      <point x="92" y="678" type="line"/>
      <point x="92" y="677" type="line"/>
      <point x="22" y="677" type="line"/>
      <point x="22" y="700" type="line"/>
    </contour>
  </outline>
</glyph>
<glyph name="degree.color3" format="2">
  <advance width="600"/>
  <unicode hex="00B0"/>
  <outline>
    <contour>
      <point x="21" y="575" type="line"/>
      <point x="0" y="597" type="line"/>
      <point x="0" y="598" type="line"/>
      <point x="69" y="598" type="line"/>
      <point x="69" y="575" type="line"/>
    </contour>
  </outline>
</glyph>
<glyph name="degree" format="2">
  <advance width="145"/>
  <unicode hex="00B0"/>
  <outline>
    <contour>
      <point x="0" y="678" type="line"/>
      <point x="21" y="700" type="line"/>
      <point x="22" y="700" type="line"/>
      <point x="22" y="598" type="line"/>
      <point x="0" y="598" type="line"/>
    </contour>
    <contour>
      <point x="70" y="700" type="line"/>
      <point x="92" y="678" type="line"/>
      <point x="92" y="677" type="line"/>
      <point x="22" y="677" type="line"/>
      <point x="22" y="700" type="line"/>
    </contour>
    <contour>
      <point x="92" y="597" type="line"/>
      <point x="70" y="575" type="line"/>
      <point x="69" y="575" type="line"/>
      <point x="69" y="677" type="line"/>
      <point x="92" y="677" type="line"/>
    </contour>
    <contour>
      <point x="21" y="575" type="line"/>
      <point x="0" y="597" type="line"/>
      <point x="0" y="598" type="line"/>
      <point x="69" y="598" type="line"/>
      <point x="69" y="575" type="line"/>
    </contour>
  </outline>
</glyph>
<glyph name="plusminus.color0" format="2">
  <advance width="297"/>
  <unicode hex="00B1"/>
  <outline>
    <contour>
      <point x="161" y="373" type="line"/>
      <point x="244" y="373" type="line"/>
      <point x="244" y="349" type="line"/>
      <point x="138" y="349" type="line"/>
    </contour>
  </outline>
</glyph>
<glyph name="plusminus.color2" format="2">
  <advance width="297"/>
  <unicode hex="00B1"/>
  <outline>
    <contour>
      <point x="161" y="349" type="line"/>
      <point x="161" y="279" type="line"/>
      <point x="137" y="279" type="line"/>
      <point x="137" y="349" type="line"/>
    </contour>
  </outline>
</glyph>
<glyph name="plusminus.color4" format="2">
  <advance width="297"/>
  <unicode hex="00B1"/>
  <outline>
    <contour>
      <point x="244" y="229" type="line"/>
      <point x="53" y="229" type="line"/>
      <point x="53" y="253" type="line"/>
      <point x="244" y="253" type="line"/>
    </contour>
  </outline>
</glyph>
<glyph name="threesuperior" format="2">
  <advance width="228"/>
  <unicode hex="00B3"/>
  <outline>
    <contour>
      <point x="174" y="587" type="line"/>
      <point x="151" y="587" type="line"/>
      <point x="151" y="700" type="line"/>
      <point x="152" y="700" type="line"/>
      <point x="174" y="667" type="line"/>
    </contour>
    <contour>
      <point x="86" y="700" type="line"/>
      <point x="151" y="700" type="line"/>
      <point x="151" y="676" type="line"/>
      <point x="63" y="676" type="line"/>
      <point x="63" y="677" type="line"/>
    </contour>
    <contour>
      <point x="175" y="454" type="line"/>
      <point x="152" y="430" type="line"/>
      <point x="151" y="430" type="line"/>
      <point x="151" y="587" type="line"/>
      <point x="152" y="587" type="line"/>
      <point x="175" y="563" type="line"/>
    </contour>
    <contour>
      <point x="83" y="563" type="line"/>
      <point x="83" y="587" type="line"/>
      <point x="151" y="587" type="line"/>
      <point x="151" y="563" type="line"/>
    </contour>
    <contour>
      <point x="76" y="430" type="line"/>
      <point x="53" y="453" type="line"/>
      <point x="53" y="454" type="line"/>
      <point x="151" y="454" type="line"/>
      <point x="151" y="453" type="line"/>
      <point x="151" y="430" type="line"/>
    </contour>
  </outline>
</glyph>
<glyph name="acute" format="2">
  <advance width="600"/>
  <unicode hex="00B4"/>
  <anchor x="309" y="500" name="_top"/>
  <outline>
    <contour>
      <point x="293" y="570" type="line"/>
      <point x="318" y="700" type="line"/>
      <point x="349" y="700" type="line"/>
      <point x="349" y="699" type="line"/>
      <point x="317" y="570" type="line"/>
    </contour>
  </outline>
</glyph>
<glyph name="micro.color0" format="2">
  <advance width="252"/>
  <unicode hex="00B5"/>
  <outline>
    <contour>
      <point x="199" y="-3" type="line"/>
      <point x="149" y="-3" type="line"/>
      <point x="126" y="21" type="line"/>
      <point x="199" y="21" type="line"/>
    </contour>
  </outline>
</glyph>
<glyph name="micro.color2" format="2">
  <advance width="252"/>
  <unicode hex="00B5"/>
  <outline>
    <contour>
      <point x="53" y="477" type="line"/>
      <point x="76" y="500" type="line"/>
      <point x="77" y="500" type="line"/>
      <point x="77" y="-200" type="line"/>
      <point x="53" y="-200" type="line"/>
    </contour>
  </outline>
</glyph>
<glyph name="micro" format="2">
  <advance width="252"/>
  <unicode hex="00B5"/>
  <outline>
    <contour>
      <point x="199" y="-3" type="line"/>
      <point x="149" y="-3" type="line"/>
      <point x="126" y="21" type="line"/>
      <point x="199" y="21" type="line"/>
    </contour>
    <contour>
      <point x="77" y="21" type="line"/>
      <point x="126" y="21" type="line"/>
      <point x="126" y="-3" type="line"/>
      <point x="77" y="-3" type="line"/>
    </contour>
    <contour>
      <point x="53" y="477" type="line"/>
      <point x="76" y="500" type="line"/>
      <point x="77" y="500" type="line"/>
      <point x="77" y="-200" type="line"/>
      <point x="53" y="-200" type="line"/>
    </contour>
    <contour>
      <point x="150" y="500" type="line"/>
      <point x="150" y="21" type="line"/>
      <point x="127" y="-3" type="line"/>
      <point x="126" y="-3" type="line"/>
      <point x="126" y="500" type="line"/>
    </contour>
  </outline>
</glyph>
<glyph name="paragraph" format="2">
  <advance width="330"/>
  <unicode hex="00B6"/>
  <outline>
    <contour>
      <point x="253" y="676" type="line"/>
      <point x="277" y="676" type="line"/>
      <point x="277" y="0" type="line"/>
      <point x="253" y="0" type="line"/>
    </contour>
    <contour>
      <point x="221" y="676" type="line"/>
      <point x="221" y="0" type="line"/>
      <point x="197" y="0" type="line"/>
      <point x="197" y="676" type="line"/>
    </contour>
    <contour>
      <point x="76" y="353" type="line"/>
      <point x="53" y="376" type="line"/>
      <point x="53" y="377" type="line"/>
      <point x="197" y="377" type="line"/>
      <point x="197" y="353" type="line"/>
    </contour>
    <contour>
      <point x="53" y="677" type="line"/>
      <point x="76" y="700" type="line"/>
      <point x="77" y="700" type="line"/>
      <point x="77" y="377" type="line"/>
      <point x="53" y="377" type="line"/>
    </contour>
    <contour>
      <point x="277" y="700" type="line"/>
      <point x="277" y="676" type="line"/>
      <point x="77" y="676" type="line"/>
      <point x="77" y="700" type="line"/>
    </contour>
  </outline>
</glyph>
<glyph name="cedilla.color1" format="2">
  <advance width="600"/>
  <unicode hex="00B8"/>
  <outline>
    <contour>
      <point x="357" y="-91" type="line"/>
      <point x="337" y="-109" type="line"/>
      <point x="336" y="-109" type="line"/>
      <point x="336" y="-44" type="line"/>
      <point x="357" y="-44" type="line"/>
    </contour>
  </outline>
</glyph>
<glyph name="cedilla.color2" format="2">
  <advance width="600"/>
  <unicode hex="00B8"/>
  <outline>
    <contour>
      <point x="339" y="-25" type="line"/>
      <point x="357" y="-43" type="line"/>
      <point x="357" y="-44" type="line"/>
      <point x="322" y="-44" type="line"/>
      <point x="322" y="-25" type="line"/>
    </contour>
  </outline>
</glyph>
<glyph name="onesuperior.color2" format="2">
  <advance width="229"/>
  <unicode hex="00B9"/>
  <outline>
    <contour>
      <point x="127" y="454" type="line"/>
      <point x="176" y="454" type="line"/>
      <point x="176" y="430" type="line"/>
      <point x="104" y="430" type="line"/>
    </contour>
  </outline>
</glyph>
<glyph name="ordmasculine.color0" format="2">
  <advance width="190"/>
  <unicode hex="00BA"/>
  <outline>
    <contour>
      <point x="53" y="708" type="line"/>
      <point x="74" y="730" type="line"/>
      <point x="75" y="730" type="line"/>
      <point x="75" y="525" type="line"/>
      <point x="53" y="525" type="line"/>
    </contour>
  </outline>
</glyph>
<glyph name="guillemetright.color1" format="2">
  <advance width="328"/>
  <unicode hex="00BB"/>
  <outline>
    <contour>
      <point x="62" y="453" type="line"/>
      <point x="205" y="277" type="line"/>
      <point x="205" y="276" type="line"/>
      <point x="176" y="276" type="line"/>
      <point x="33" y="452" type="line"/>
      <point x="33" y="453" type="line"/>
    </contour>
  </outline>
</glyph>
<glyph name="guillemetright.color2" format="2">
  <advance width="328"/>
  <unicode hex="00BB"/>
  <outline>
    <contour>
      <point x="142" y="100" type="line"/>
      <point x="113" y="100" type="line"/>
      <point x="113" y="101" type="line"/>
      <point x="256" y="276" type="line"/>
      <point x="285" y="276" type="line"/>
      <point x="285" y="275" type="line"/>
    </contour>
  </outline>
</glyph>
<glyph name="guillemetright.color3" format="2">
  <advance width="600"/>
  <unicode hex="00BB"/>
  <outline>
    <contour>
      <point x="142" y="453" type="line"/>
      <point x="285" y="277" type="line"/>
      <point x="285" y="276" type="line"/>
      <point x="256" y="276" type="line"/>
      <point x="113" y="452" type="line"/>
      <point x="113" y="453" type="line"/>
    </contour>
  </outline>
</glyph>
<glyph name="onequarter.color3" format="2">
  <advance width="467"/>
  <unicode hex="00BC"/>
  <outline>
    <contour>
      <point x="53" y="454" type="line"/>
      <point x="103" y="454" type="line"/>
      <point x="103" y="430" type="line"/>
      <point x="53" y="430" type="line"/>
    </contour>
  </outline>
</glyph>
<glyph name="onequarter.color6" format="2">
  <advance width="467"/>
  <unicode hex="00BC"/>
  <outline>
    <contour>
      <point x="356" y="270" type="line"/>
      <point x="384" y="270" type="line"/>
      <point x="384" y="269" type="line"/>
      <point x="303" y="104" type="line"/>
      <point x="285" y="128" type="line"/>
    </contour>
  </outline>
</glyph>
<glyph name="onehalf.color3" format="2">
  <advance width="464"/>
  <unicode hex="00BD"/>
  <outline>
    <contour>
      <point x="53" y="454" type="line"/>
      <point x="103" y="454" type="line"/>
      <point x="103" y="430" type="line"/>
      <point x="53" y="430" type="line"/>
    </contour>
  </outline>
</glyph>
<glyph name="onehalf.color5" format="2">
  <advance width="464"/>
  <unicode hex="00BD"/>
  <outline>
    <contour>
      <point x="308" y="270" type="line"/>
      <point x="388" y="270" type="line"/>
      <point x="385" y="246" type="line"/>
      <point x="285" y="246" type="line"/>
      <point x="285" y="247" type="line"/>
    </contour>
  </outline>
</glyph>
<glyph name="onehalf.color6" format="2">
  <advance width="464"/>
  <unicode hex="00BD"/>
  <outline>
    <contour>
      <point x="311" y="24" type="line"/>
      <point x="285" y="24" type="line"/>
      <point x="285" y="25" type="line"/>
      <point x="388" y="270" type="line"/>
      <point x="404" y="246" type="line"/>
    </contour>
  </outline>
</glyph>
<glyph name="onehalf.color7" format="2">
  <advance width="464"/>
  <unicode hex="00BD"/>
  <outline>
    <contour>
      <point x="411" y="0" type="line"/>
      <point x="285" y="0" type="line"/>
      <point x="285" y="24" type="line"/>
      <point x="411" y="24" type="line"/>
      <point x="411" y="23" type="line"/>
    </contour>
  </outline>
</glyph>
<glyph name="threequarters.color6" format="2">
  <advance width="467"/>
  <unicode hex="00BE"/>
  <outline>
    <contour>
      <point x="390" y="104" type="line"/>
      <point x="303" y="104" type="line"/>
      <point x="304" y="128" type="line"/>
      <point x="390" y="128" type="line"/>
    </contour>
  </outline>
</glyph>
<glyph name="threequarters.color7" format="2">
  <advance width="467"/>
  <unicode hex="00BE"/>
  <outline>
    <contour>
      <point x="356" y="270" type="line"/>
      <point x="384" y="270" type="line"/>
      <point x="384" y="269" type="line"/>
      <point x="303" y="104" type="line"/>
      <point x="285" y="128" type="line"/>
    </contour>
  </outline>
</glyph>
<glyph name="threequarters.color8" format="2">
  <advance width="467"/>
  <unicode hex="00BE"/>
  <outline>
    <contour>
      <point x="414" y="0" type="line"/>
      <point x="390" y="0" type="line"/>
      <point x="390" y="128" type="line"/>
      <point x="391" y="128" type="line"/>
      <point x="414" y="104" type="line"/>
    </contour>
  </outline>
</glyph>
<glyph name="questiondown.color0" format="2">
  <advance width="253"/>
  <unicode hex="00BF"/>
  <outline>
    <contour>
      <point x="119" y="670" type="line"/>
      <point x="150" y="670" type="line"/>
      <point x="150" y="646" type="line"/>
      <point x="119" y="646" type="line"/>
    </contour>
  </outline>
</glyph>
<glyph name="questiondown.color3" format="2">
  <advance width="253"/>
  <unicode hex="00BF"/>
  <outline>
    <contour>
      <point x="147" y="566" type="line"/>
      <point x="147" y="417" type="line"/>
      <point x="124" y="393" type="line"/>
      <point x="123" y="393" type="line"/>
      <point x="123" y="566" type="line"/>
    </contour>
  </outline>
</glyph>
<glyph name="Aacute.color3" format="2">
  <advance width="273"/>
  <unicode hex="00C1"/>
  <outline>
    <contour>
      <point x="196" y="353" type="line"/>
      <point x="77" y="353" type="line"/>
      <point x="77" y="376" type="line"/>
      <point x="77" y="377" type="line"/>
      <point x="196" y="377" type="line"/>
    </contour>
  </outline>
</glyph>
<glyph name="Atilde.color5" format="2">
  <advance width="273"/>
  <unicode hex="00C3"/>
  <outline>
    <contour>
      <point x="197" y="847" type="line"/>
      <point x="197" y="795" type="line"/>
      <point x="173" y="795" type="line"/>
      <point x="173" y="847" type="line"/>
    </contour>
  </outline>
</glyph>
<glyph name="Aring.color5" format="2">
  <advance width="273"/>
  <unicode hex="00C5"/>
  <outline>
    <contour>
      <point x="154" y="857" type="line"/>
      <point x="172" y="836" type="line"/>
      <point x="172" y="835" type="line"/>
      <point x="116" y="835" type="line"/>
      <point x="116" y="857" type="line"/>
    </contour>
  </outline>
</glyph>
<glyph name="AE.color0" format="2">
  <advance width="600"/>
  <unicode hex="00C6"/>
  <outline>
    <contour>
      <point x="196" y="353" type="line"/>
      <point x="77" y="353" type="line"/>
      <point x="77" y="377" type="line"/>
      <point x="196" y="377" type="line"/>
    </contour>
  </outline>
</glyph>
<glyph name="AE.color3" format="2">
  <advance width="416"/>
  <unicode hex="00C6"/>
  <outline>
    <contour>
      <point x="339" y="353" type="line"/>
      <point x="220" y="353" type="line"/>
      <point x="220" y="377" type="line"/>
      <point x="339" y="377" type="line"/>
    </contour>
  </outline>
</glyph>
<glyph name="AE.color4" format="2">
  <advance width="600"/>
  <unicode hex="00C6"/>
  <outline>
    <contour>
      <point x="363" y="24" type="line"/>
      <point x="363" y="0" type="line"/>
      <point x="220" y="0" type="line"/>
      <point x="196" y="23" type="line"/>
      <point x="196" y="24" type="line"/>
    </contour>
  </outline>
</glyph>
<glyph name="Ccedilla.color2" format="2">
  <advance width="273"/>
  <unicode hex="00C7"/>
  <outline>
    <contour>
      <point x="76" y="0" type="line"/>
      <point x="53" y="23" type="line"/>
      <point x="53" y="24" type="line"/>
      <point x="220" y="24" type="line"/>
      <point x="197" y="0" type="line"/>
    </contour>
  </outline>
</glyph>
<glyph name="Ccedilla.color5" format="2">
  <advance width="273"/>
  <unicode hex="00C7"/>
  <outline>
    <contour>
      <point x="153" y="-25" type="line"/>
      <point x="171" y="-43" type="line"/>
      <point x="171" y="-44" type="line"/>
      <point x="136" y="-44" type="line"/>
      <point x="136" y="-25" type="line"/>
    </contour>
  </outline>
</glyph>
<glyph name="Ccedilla.color6" format="2">
  <advance width="273"/>
  <unicode hex="00C7"/>
  <outline>
    <contour>
      <point x="115" y="-44" type="line"/>
      <point x="115" y="-43" type="line"/>
      <point x="127" y="0" type="line"/>
      <point x="151" y="0" type="line"/>
      <point x="151" y="-1" type="line"/>
      <point x="136" y="-44" type="line"/>
    </contour>
  </outline>
</glyph>
<glyph name="Egrave.color4" format="2">
  <advance width="273"/>
  <unicode hex="00C8"/>
  <outline>
    <contour>
      <point x="162" y="770" type="line"/>
      <point x="138" y="770" type="line"/>
      <point x="106" y="859" type="line"/>
      <point x="106" y="860" type="line"/>
      <point x="137" y="860" type="line"/>
    </contour>
  </outline>
</glyph>
<glyph name="Egrave" format="2">
  <advance width="273"/>
  <unicode hex="00C8"/>
  <anchor x="135" y="0" name="bottom"/>
  <anchor x="138" y="700" name="top"/>
  <outline>
    <contour>
      <point x="53" y="700" type="line"/>
      <point x="77" y="700" type="line"/>
      <point x="77" y="24" type="line"/>
      <point x="53" y="24" type="line"/>
    </contour>
    <contour>
      <point x="197" y="676" type="line"/>
      <point x="77" y="676" type="line"/>
      <point x="77" y="700" type="line"/>
      <point x="220" y="700" type="line"/>
      <point x="220" y="699" type="line"/>
    </contour>
    <contour>
      <point x="196" y="353" type="line"/>
      <point x="77" y="353" type="line"/>
      <point x="77" y="377" type="line"/>
      <point x="196" y="377" type="line"/>
    </contour>
    <contour>
      <point x="220" y="0" type="line"/>
      <point x="77" y="0" type="line"/>
      <point x="53" y="23" type="line"/>
      <point x="53" y="24" type="line"/>
      <point x="220" y="24" type="line"/>
    </contour>
    <contour>
      <point x="162" y="770" type="line"/>
      <point x="138" y="770" type="line"/>
      <point x="106" y="859" type="line"/>
      <point x="106" y="860" type="line"/>
      <point x="137" y="860" type="line"/>
    </contour>
  </outline>
</glyph>
<glyph name="Edieresis.color4" format="2">
  <advance width="273"/>
  <unicode hex="00CB"/>
  <outline>
    <contour>
      <point x="121" y="811" type="line"/>
      <point x="90" y="811" type="line"/>
      <point x="90" y="845" type="line"/>
      <point x="121" y="845" type="line"/>
    </contour>
  </outline>
</glyph>
<glyph name="Igrave.color1" format="2">
  <advance width="272"/>
  <unicode hex="00CC"/>
  <outline>
    <contour>
      <point x="124" y="676" type="line"/>
      <point x="43" y="676" type="line"/>
      <point x="43" y="700" type="line"/>
      <point x="147" y="700" type="line"/>
    </contour>
  </outline>
</glyph>
<glyph name="Igrave.color5" format="2">
  <advance width="272"/>
  <unicode hex="00CC"/>
  <outline>
    <contour>
      <point x="162" y="770" type="line"/>
      <point x="138" y="770" type="line"/>
      <point x="106" y="859" type="line"/>
      <point x="106" y="860" type="line"/>
      <point x="137" y="860" type="line"/>
    </contour>
  </outline>
</glyph>
<glyph name="Igrave" format="2">
  <advance width="272"/>
  <unicode hex="00CC"/>
  <anchor x="135" y="0" name="bottom"/>
  <anchor x="138" y="700" name="top"/>
  <outline>
    <contour>
      <point x="124" y="676" type="line"/>
      <point x="147" y="700" type="line"/>
      <point x="148" y="700" type="line"/>
      <point x="148" y="24" type="line"/>
      <point x="125" y="0" type="line"/>
      <point x="124" y="0" type="line"/>
    </contour>
    <contour>
      <point x="124" y="676" type="line"/>
      <point x="43" y="676" type="line"/>
      <point x="43" y="700" type="line"/>
      <point x="147" y="700" type="line"/>
    </contour>
    <contour>
      <point x="228" y="676" type="line"/>
      <point x="148" y="676" type="line"/>
      <point x="148" y="700" type="line"/>
      <point x="228" y="700" type="line"/>
    </contour>
    <contour>
      <point x="148" y="24" type="line"/>
      <point x="229" y="24" type="line"/>
      <point x="229" y="0" type="line"/>
      <point x="125" y="0" type="line"/>
    </contour>
    <contour>
      <point x="44" y="24" type="line"/>
      <point x="124" y="24" type="line"/>
      <point x="124" y="0" type="line"/>
      <point x="44" y="0" type="line"/>
    </contour>
    <contour>
      <point x="162" y="770" type="line"/>
      <point x="138" y="770" type="line"/>
      <point x="106" y="859" type="line"/>
      <point x="106" y="860" type="line"/>
      <point x="137" y="860" type="line"/>
    </contour>
  </outline>
</glyph>
<glyph name="Idieresis.color3" format="2">
  <advance width="272"/>
  <unicode hex="00CF"/>
  <outline>
    <contour>
      <point x="148" y="24" type="line"/>
      <point x="229" y="24" type="line"/>
      <point x="229" y="0" type="line"/>
      <point x="125" y="0" type="line"/>
    </contour>
  </outline>
</glyph>
<glyph name="Idieresis.color5" format="2">
  <advance width="272"/>
  <unicode hex="00CF"/>
  <outline>
    <contour>
      <point x="121" y="811" type="line"/>
      <point x="90" y="811" type="line"/>
      <point x="90" y="845" type="line"/>
      <point x="121" y="845" type="line"/>
    </contour>
  </outline>
</glyph>
<glyph name="Idieresis" format="2">
  <advance width="272"/>
  <unicode hex="00CF"/>
  <anchor x="135" y="0" name="bottom"/>
  <anchor x="138" y="700" name="top"/>
  <outline>
    <contour>
      <point x="124" y="676" type="line"/>
      <point x="147" y="700" type="line"/>
      <point x="148" y="700" type="line"/>
      <point x="148" y="24" type="line"/>
      <point x="125" y="0" type="line"/>
      <point x="124" y="0" type="line"/>
    </contour>
    <contour>
      <point x="124" y="676" type="line"/>
      <point x="43" y="676" type="line"/>
      <point x="43" y="700" type="line"/>
      <point x="147" y="700" type="line"/>
    </contour>
    <contour>
      <point x="228" y="676" type="line"/>
      <point x="148" y="676" type="line"/>
      <point x="148" y="700" type="line"/>
      <point x="228" y="700" type="line"/>
    </contour>
    <contour>
      <point x="148" y="24" type="line"/>
      <point x="229" y="24" type="line"/>
      <point x="229" y="0" type="line"/>
      <point x="125" y="0" type="line"/>
    </contour>
    <contour>
      <point x="44" y="24" type="line"/>
      <point x="124" y="24" type="line"/>
      <point x="124" y="0" type="line"/>
      <point x="44" y="0" type="line"/>
    </contour>
    <contour>
      <point x="121" y="811" type="line"/>
      <point x="90" y="811" type="line"/>
      <point x="90" y="845" type="line"/>
      <point x="121" y="845" type="line"/>
    </contour>
    <contour>
      <point x="186" y="811" type="line"/>
      <point x="155" y="811" type="line"/>
      <point x="155" y="845" type="line"/>
      <point x="186" y="845" type="line"/>
    </contour>
  </outline>
</glyph>
<glyph name="Eth.color0" format="2">
  <advance width="273"/>
  <unicode hex="00D0"/>
  <outline>
    <contour>
      <point x="146" y="353" type="line"/>
      <point x="-15" y="353" type="line"/>
      <point x="-15" y="377" type="line"/>
      <point x="146" y="377" type="line"/>
      <point x="146" y="376" type="line"/>
    </contour>
  </outline>
</glyph>
<glyph name="Eth.color2" format="2">
  <advance width="273"/>
  <unicode hex="00D0"/>
  <outline>
    <contour>
      <point x="199" y="700" type="line"/>
      <point x="222" y="677" type="line"/>
      <point x="222" y="676" type="line"/>
      <point x="77" y="676" type="line"/>
      <point x="77" y="700" type="line"/>
    </contour>
  </outline>
</glyph>
<glyph name="Otilde.color4" format="2">
  <advance width="273"/>
  <unicode hex="00D5"/>
  <outline>
    <contour>
      <point x="77" y="786" type="line"/>
      <point x="77" y="837" type="line"/>
      <point x="101" y="838" type="line"/>
      <point x="101" y="786" type="line"/>
    </contour>
  </outline>
</glyph>
<glyph name="Otilde.color6" format="2">
  <advance width="273"/>
  <unicode hex="00D5"/>
  <outline>
    <contour>
      <point x="77" y="837" type="line"/>
      <point x="77" y="838" type="line"/>
      <point x="99" y="847" type="line"/>
      <point x="100" y="847" type="line"/>
      <point x="196" y="795" type="line"/>
      <point x="196" y="794" type="line"/>
      <point x="174" y="785" type="line"/>
      <point x="173" y="785" type="line"/>
    </contour>
  </outline>
</glyph>
<glyph name="Odieresis.color5" format="2">
  <advance width="273"/>
  <unicode hex="00D6"/>
  <outline>
    <contour>
      <point x="186" y="811" type="line"/>
      <point x="155" y="811" type="line"/>
      <point x="155" y="845" type="line"/>
      <point x="186" y="845" type="line"/>
    </contour>
  </outline>
</glyph>
<glyph name="multiply.color0" format="2">
  <advance width="600"/>
  <unicode hex="00D7"/>
  <outline>
    <contour>
      <point x="70" y="444" type="line"/>
      <point x="142" y="343" type="line"/>
      <point x="142" y="342" type="line"/>
      <point x="114" y="342" type="line"/>
      <point x="43" y="443" type="line"/>
      <point x="43" y="444" type="line"/>
    </contour>
  </outline>
</glyph>
<glyph name="multiply.color3" format="2">
  <advance width="256"/>
  <unicode hex="00D7"/>
  <outline>
    <contour>
      <point x="186" y="240" type="line"/>
      <point x="114" y="342" type="line"/>
      <point x="114" y="343" type="line"/>
      <point x="142" y="343" type="line"/>
      <point x="213" y="241" type="line"/>
      <point x="213" y="240" type="line"/>
    </contour>
  </outline>
</glyph>
<glyph name="multiply" format="2">
  <advance width="256"/>
  <unicode hex="00D7"/>
  <outline>
    <contour>
      <point x="70" y="444" type="line"/>
      <point x="142" y="343" type="line"/>
      <point x="142" y="342" type="line"/>
      <point x="114" y="342" type="line"/>
      <point x="43" y="443" type="line"/>
      <point x="43" y="444" type="line"/>
    </contour>
    <contour>
      <point x="70" y="240" type="line"/>
      <point x="43" y="240" type="line"/>
      <point x="43" y="241" type="line"/>
      <point x="114" y="342" type="line"/>
      <point x="142" y="343" type="line"/>
      <point x="142" y="342" type="line"/>
    </contour>
    <contour>
      <point x="186" y="444" type="line"/>
      <point x="213" y="444" type="line"/>
      <point x="213" y="443" type="line"/>
      <point x="142" y="342" type="line"/>
      <point x="114" y="342" type="line"/>
      <point x="114" y="343" type="line"/>
    </contour>
    <contour>
      <point x="186" y="240" type="line"/>
      <point x="114" y="342" type="line"/>
      <point x="114" y="343" type="line"/>
      <point x="142" y="343" type="line"/>
      <point x="213" y="241" type="line"/>
      <point x="213" y="240" type="line"/>
    </contour>
  </outline>
</glyph>
<glyph name="Ugrave.color3" format="2">
  <advance width="273"/>
  <unicode hex="00D9"/>
  <outline>
    <contour>
      <point x="167" y="771" type="line"/>
      <point x="143" y="771" type="line"/>
      <point x="111" y="860" type="line"/>
      <point x="111" y="861" type="line"/>
      <point x="142" y="861" type="line"/>
    </contour>
  </outline>
</glyph>
<glyph name="Ugrave" format="2">
  <advance width="273"/>
  <unicode hex="00D9"/>
  <anchor x="132" y="0" name="bottom"/>
  <anchor x="196" y="700" name="horn"/>
  <anchor x="143" y="701" name="top"/>
  <outline>
    <contour>
      <point x="220" y="23" type="line"/>
      <point x="197" y="0" type="line"/>
      <point x="196" y="0" type="line"/>
      <point x="196" y="700" type="line"/>
      <point x="220" y="700" type="line"/>
    </contour>
    <contour>
      <point x="76" y="0" type="line"/>
      <point x="53" y="23" type="line"/>
      <point x="53" y="24" type="line"/>
      <point x="196" y="24" type="line"/>
      <point x="196" y="0" type="line"/>
    </contour>
    <contour>
      <point x="53" y="700" type="line"/>
      <point x="76" y="700" type="line"/>
      <point x="77" y="700" type="line"/>
      <point x="77" y="24" type="line"/>
      <point x="53" y="24" type="line"/>
    </contour>
    <contour>
      <point x="167" y="771" type="line"/>
      <point x="143" y="771" type="line"/>
      <point x="111" y="860" type="line"/>
      <point x="111" y="861" type="line"/>
      <point x="142" y="861" type="line"/>
    </contour>
  </outline>
</glyph>
<glyph name="Ucircumflex.color4" format="2">
  <advance width="273"/>
  <unicode hex="00DB"/>
  <outline>
    <contour>
      <point x="83" y="761" type="line"/>
      <point x="83" y="762" type="line"/>
      <point x="129" y="851" type="line"/>
      <point x="152" y="851" type="line"/>
      <point x="107" y="761" type="line"/>
    </contour>
  </outline>
</glyph>
<glyph name="Ucircumflex" format="2">
  <advance width="273"/>
  <unicode hex="00DB"/>
  <anchor x="132" y="0" name="bottom"/>
  <anchor x="196" y="700" name="horn"/>
  <anchor x="143" y="701" name="top"/>
  <outline>
    <contour>
      <point x="220" y="23" type="line"/>
      <point x="197" y="0" type="line"/>
      <point x="196" y="0" type="line"/>
      <point x="196" y="700" type="line"/>
      <point x="220" y="700" type="line"/>
    </contour>
    <contour>
      <point x="76" y="0" type="line"/>
      <point x="53" y="23" type="line"/>
      <point x="53" y="24" type="line"/>
      <point x="196" y="24" type="line"/>
      <point x="196" y="0" type="line"/>
    </contour>
    <contour>
      <point x="53" y="700" type="line"/>
      <point x="76" y="700" type="line"/>
      <point x="77" y="700" type="line"/>
      <point x="77" y="24" type="line"/>
      <point x="53" y="24" type="line"/>
    </contour>
    <contour>
      <point x="197" y="761" type="line"/>
      <point x="173" y="761" type="line"/>
      <point x="129" y="851" type="line"/>
      <point x="152" y="851" type="line"/>
      <point x="153" y="851" type="line"/>
      <point x="197" y="762" type="line"/>
    </contour>
    <contour>
      <point x="83" y="761" type="line"/>
      <point x="83" y="762" type="line"/>
      <point x="129" y="851" type="line"/>
      <point x="152" y="851" type="line"/>
      <point x="107" y="761" type="line"/>
    </contour>
  </outline>
</glyph>
<glyph name="Udieresis.color3" format="2">
  <advance width="273"/>
  <unicode hex="00DC"/>
  <outline>
    <contour>
      <point x="126" y="812" type="line"/>
      <point x="95" y="812" type="line"/>
      <point x="95" y="846" type="line"/>
      <point x="126" y="846" type="line"/>
    </contour>
  </outline>
</glyph>
<glyph name="Udieresis.color4" format="2">
  <advance width="273"/>
  <unicode hex="00DC"/>
  <outline>
    <contour>
      <point x="191" y="812" type="line"/>
      <point x="160" y="812" type="line"/>
      <point x="160" y="846" type="line"/>
      <point x="191" y="846" type="line"/>
    </contour>
  </outline>
</glyph>
<glyph name="Yacute.color3" format="2">
  <advance width="290"/>
  <unicode hex="00DD"/>
  <outline>
    <contour>
      <point x="129" y="765" type="line"/>
      <point x="154" y="855" type="line"/>
      <point x="185" y="855" type="line"/>
      <point x="185" y="854" type="line"/>
      <point x="153" y="765" type="line"/>
    </contour>
  </outline>
</glyph>
<glyph name="Thorn.color1" format="2">
  <advance width="600"/>
  <unicode hex="00DE"/>
  <outline>
    <contour>
      <point x="198" y="540" type="line"/>
      <point x="221" y="517" type="line"/>
      <point x="221" y="516" type="line"/>
      <point x="77" y="516" type="line"/>
      <point x="77" y="540" type="line"/>
    </contour>
  </outline>
</glyph>
<glyph name="Thorn.color2" format="2">
  <advance width="600"/>
  <unicode hex="00DE"/>
  <outline>
    <contour>
      <point x="221" y="216" type="line"/>
      <point x="198" y="193" type="line"/>
      <point x="197" y="193" type="line"/>
      <point x="197" y="516" type="line"/>
      <point x="221" y="516" type="line"/>
    </contour>
  </outline>
</glyph>
<glyph name="germandbls.color5" format="2">
  <advance width="273"/>
  <unicode hex="00DF"/>
  <outline>
    <contour>
      <point x="186" y="0" type="line"/>
      <point x="124" y="0" type="line"/>
      <point x="147" y="24" type="line"/>
      <point x="186" y="24" type="line"/>
    </contour>
  </outline>
</glyph>
<glyph name="aacute.color4" format="2">
  <advance width="203"/>
  <unicode hex="00E1"/>
  <outline>
    <contour>
      <point x="89" y="570" type="line"/>
      <point x="114" y="700" type="line"/>
      <point x="145" y="700" type="line"/>
      <point x="145" y="699" type="line"/>
      <point x="113" y="570" type="line"/>
    </contour>
  </outline>
</glyph>
<glyph name="acircumflex.color4" format="2">
  <advance width="203"/>
  <unicode hex="00E2"/>
  <outline>
    <contour>
      <point x="163" y="590" type="line"/>
      <point x="139" y="590" type="line"/>
      <point x="95" y="680" type="line"/>
      <point x="118" y="680" type="line"/>
      <point x="119" y="680" type="line"/>
    </contour>
  </outline>
</glyph>
<glyph name="acircumflex.color5" format="2">
  <advance width="203"/>
  <unicode hex="00E2"/>
  <outline>
    <contour>
      <point x="49" y="590" type="line"/>
      <point x="95" y="680" type="line"/>
      <point x="118" y="680" type="line"/>
      <point x="73" y="590" type="line"/>
    </contour>
  </outline>
</glyph>
<glyph name="atilde.color5" format="2">
  <advance width="203"/>
  <unicode hex="00E3"/>
  <outline>
    <contour>
      <point x="156" y="672" type="line"/>
      <point x="156" y="620" type="line"/>
      <point x="136" y="620" type="line"/>
      <point x="136" y="672" type="line"/>
    </contour>
  </outline>
</glyph>
<glyph name="atilde.color6" format="2">
  <advance width="203"/>
  <unicode hex="00E3"/>
  <outline>
    <contour>
      <point x="55" y="662" type="line"/>
      <point x="55" y="663" type="line"/>
      <point x="75" y="672" type="line"/>
      <point x="76" y="672" type="line"/>
      <point x="155" y="620" type="line"/>
      <point x="155" y="619" type="line"/>
      <point x="135" y="610" type="line"/>
      <point x="134" y="610" type="line"/>
    </contour>
  </outline>
</glyph>
<glyph name="atilde" format="2">
  <advance width="203"/>
  <unicode hex="00E3"/>
  <anchor x="105" y="0" name="bottom"/>
  <anchor x="105" y="500" name="top"/>
  <outline>
    <contour>
      <point x="53" y="477" type="line"/>
      <point x="76" y="500" type="line"/>
      <point x="77" y="500" type="line"/>
      <point x="77" y="24" type="line"/>
      <point x="53" y="24" type="line"/>
    </contour>
    <contour>
      <point x="127" y="500" type="line"/>
      <point x="150" y="477" type="line"/>
      <point x="150" y="476" type="line"/>
      <point x="77" y="476" type="line"/>
      <point x="77" y="500" type="line"/>
    </contour>
    <contour>
      <point x="150" y="0" type="line"/>
      <point x="127" y="0" type="line"/>
      <point x="126" y="0" type="line"/>
      <point x="126" y="476" type="line"/>
      <point x="150" y="476" type="line"/>
    </contour>
    <contour>
      <point x="76" y="0" type="line"/>
      <point x="53" y="23" type="line"/>
      <point x="53" y="24" type="line"/>
      <point x="126" y="24" type="line"/>
      <point x="126" y="0" type="line"/>
    </contour>
    <contour>
      <point x="55" y="611" type="line"/>
      <point x="55" y="662" type="line"/>
      <point x="75" y="663" type="line"/>
      <point x="75" y="611" type="line"/>
    </contour>
    <contour>
      <point x="156" y="672" type="line"/>
      <point x="156" y="620" type="line"/>
      <point x="136" y="620" type="line"/>
      <point x="136" y="672" type="line"/>
    </contour>
    <contour>
      <point x="55" y="662" type="line"/>
      <point x="55" y="663" type="line"/>
      <point x="75" y="672" type="line"/>
      <point x="76" y="672" type="line"/>
      <point x="155" y="620" type="line"/>
      <point x="155" y="619" type="line"/>
      <point x="135" y="610" type="line"/>
      <point x="134" y="610" type="line"/>
    </contour>
  </outline>
</glyph>
<glyph name="adieresis.color5" format="2">
  <advance width="203"/>
  <unicode hex="00E4"/>
  <outline>
    <contour>
      <point x="148" y="601" type="line"/>
      <point x="117" y="601" type="line"/>
      <point x="117" y="635" type="line"/>
      <point x="148" y="635" type="line"/>
    </contour>
  </outline>
</glyph>
<glyph name="aring.color4" format="2">
  <advance width="203"/>
  <unicode hex="00E5"/>
  <outline>
    <contour>
      <point x="66" y="658" type="line"/>
      <point x="84" y="676" type="line"/>
      <point x="85" y="676" type="line"/>
      <point x="85" y="591" type="line"/>
      <point x="66" y="591" type="line"/>
    </contour>
  </outline>
</glyph>
<glyph name="aring.color6" format="2">
  <advance width="203"/>
  <unicode hex="00E5"/>
  <outline>
    <contour>
      <point x="143" y="590" type="line"/>
      <point x="125" y="572" type="line"/>
      <point x="124" y="572" type="line"/>
      <point x="124" y="657" type="line"/>
      <point x="143" y="657" type="line"/>
    </contour>
  </outline>
</glyph>
<glyph name="aring.color7" format="2">
  <advance width="203"/>
  <unicode hex="00E5"/>
  <outline>
    <contour>
      <point x="84" y="572" type="line"/>
      <point x="66" y="590" type="line"/>
      <point x="66" y="591" type="line"/>
      <point x="124" y="591" type="line"/>
      <point x="124" y="572" type="line"/>
    </contour>
  </outline>
</glyph>
<glyph name="ae.color0" format="2">
  <advance width="600"/>
  <unicode hex="00E6"/>
  <outline>
    <contour>
      <point x="76" y="0" type="line"/>
      <point x="53" y="23" type="line"/>
      <point x="53" y="24" type="line"/>
      <point x="126" y="24" type="line"/>
      <point x="150" y="0" type="line"/>
    </contour>
  </outline>
</glyph>
<glyph name="ae.color1" format="2">
  <advance width="277"/>
  <unicode hex="00E6"/>
  <outline>
    <contour>
      <point x="201" y="500" type="line"/>
      <point x="224" y="477" type="line"/>
      <point x="224" y="476" type="line"/>
      <point x="151" y="476" type="line"/>
      <point x="151" y="500" type="line"/>
    </contour>
  </outline>
</glyph>
<glyph name="ae.color3" format="2">
  <advance width="600"/>
  <unicode hex="00E6"/>
  <outline>
    <contour>
      <point x="200" y="226" type="line"/>
      <point x="200" y="202" type="line"/>
      <point x="151" y="202" type="line"/>
      <point x="151" y="226" type="line"/>
    </contour>
  </outline>
</glyph>
<glyph name="ae.color4" format="2">
  <advance width="600"/>
  <unicode hex="00E6"/>
  <outline>
    <contour>
      <point x="224" y="225" type="line"/>
      <point x="201" y="202" type="line"/>
      <point x="200" y="202" type="line"/>
      <point x="200" y="476" type="line"/>
      <point x="224" y="476" type="line"/>
    </contour>
  </outline>
</glyph>
<glyph name="ae.color6" format="2">
  <advance width="277"/>
  <unicode hex="00E6"/>
  <outline>
    <contour>
      <point x="150" y="0" type="line"/>
      <point x="150" y="23" type="line"/>
      <point x="150" y="24" type="line"/>
      <point x="224" y="24" type="line"/>
      <point x="224" y="23" type="line"/>
      <point x="201" y="0" type="line"/>
    </contour>
  </outline>
</glyph>
<glyph name="ccedilla.color3" format="2">
  <advance width="203"/>
  <unicode hex="00E7"/>
  <outline>
    <contour>
      <point x="83" y="-109" type="line"/>
      <point x="65" y="-91" type="line"/>
      <point x="65" y="-90" type="line"/>
      <point x="115" y="-90" type="line"/>
      <point x="115" y="-109" type="line"/>
    </contour>
  </outline>
</glyph>
<glyph name="ccedilla.color4" format="2">
  <advance width="203"/>
  <unicode hex="00E7"/>
  <outline>
    <contour>
      <point x="136" y="-91" type="line"/>
      <point x="116" y="-109" type="line"/>
      <point x="115" y="-109" type="line"/>
      <point x="115" y="-44" type="line"/>
      <point x="136" y="-44" type="line"/>
    </contour>
  </outline>
</glyph>
<glyph name="ccedilla.color5" format="2">
  <advance width="203"/>
  <unicode hex="00E7"/>
  <outline>
    <contour>
      <point x="118" y="-25" type="line"/>
      <point x="136" y="-43" type="line"/>
      <point x="136" y="-44" type="line"/>
      <point x="101" y="-44" type="line"/>
      <point x="101" y="-25" type="line"/>
    </contour>
  </outline>
</glyph>
<glyph name="ccedilla" format="2">
  <advance width="203"/>
  <unicode hex="00E7"/>
  <anchor x="105" y="0" name="bottom"/>
  <anchor x="103" y="500" name="top"/>
  <outline>
    <contour>
      <point x="53" y="477" type="line"/>
      <point x="76" y="500" type="line"/>
      <point x="77" y="500" type="line"/>
      <point x="77" y="24" type="line"/>
      <point x="53" y="24" type="line"/>
    </contour>
    <contour>
      <point x="127" y="500" type="line"/>
      <point x="150" y="477" type="line"/>
      <point x="150" y="476" type="line"/>
      <point x="77" y="476" type="line"/>
      <point x="77" y="500" type="line"/>
    </contour>
    <contour>
      <point x="76" y="0" type="line"/>
      <point x="53" y="23" type="line"/>
      <point x="53" y="24" type="line"/>
      <point x="139" y="24" type="line"/>
      <point x="139" y="23" type="line"/>
      <point x="116" y="0" type="line"/>
    </contour>
    <contour>
      <point x="83" y="-109" type="line"/>
      <point x="65" y="-91" type="line"/>
      <point x="65" y="-90" type="line"/>
      <point x="115" y="-90" type="line"/>
      <point x="115" y="-109" type="line"/>
    </contour>
    <contour>
      <point x="136" y="-91" type="line"/>
      <point x="116" y="-109" type="line"/>
      <point x="115" y="-109" type="line"/>
      <point x="115" y="-44" type="line"/>
      <point x="136" y="-44" type="line"/>
    </contour>
    <contour>
      <point x="118" y="-25" type="line"/>
      <point x="136" y="-43" type="line"/>
      <point x="136" y="-44" type="line"/>
      <point x="101" y="-44" type="line"/>
      <point x="101" y="-25" type="line"/>
    </contour>
    <contour>
      <point x="80" y="-44" type="line"/>
      <point x="80" y="-43" type="line"/>
      <point x="92" y="0" type="line"/>
      <point x="116" y="0" type="line"/>
      <point x="116" y="-1" type="line"/>
      <point x="101" y="-44" type="line"/>
    </contour>
  </outline>
</glyph>
<glyph name="eacute" format="2">
  <advance width="203"/>
  <unicode hex="00E9"/>
  <anchor x="104" y="0" name="bottom"/>
  <anchor x="103" y="500" name="top"/>
  <outline>
    <contour>
      <point x="53" y="477" type="line"/>
      <point x="76" y="500" type="line"/>
      <point x="77" y="500" type="line"/>
      <point x="77" y="24" type="line"/>
      <point x="53" y="24" type="line"/>
    </contour>
    <contour>
      <point x="127" y="500" type="line"/>
      <point x="150" y="477" type="line"/>
      <point x="150" y="476" type="line"/>
      <point x="77" y="476" type="line"/>
      <point x="77" y="500" type="line"/>
    </contour>
    <contour>
      <point x="76" y="0" type="line"/>
      <point x="53" y="23" type="line"/>
      <point x="53" y="24" type="line"/>
      <point x="150" y="24" type="line"/>
      <point x="150" y="23" type="line"/>
      <point x="127" y="0" type="line"/>
    </contour>
    <contour>
      <point x="126" y="226" type="line"/>
      <point x="126" y="202" type="line"/>
      <point x="77" y="202" type="line"/>
      <point x="77" y="226" type="line"/>
    </contour>
    <contour>
      <point x="150" y="225" type="line"/>
      <point x="127" y="202" type="line"/>
      <point x="126" y="202" type="line"/>
      <point x="126" y="476" type="line"/>
      <point x="150" y="476" type="line"/>
    </contour>
    <contour>
      <point x="87" y="570" type="line"/>
      <point x="112" y="700" type="line"/>
      <point x="143" y="700" type="line"/>
      <point x="143" y="699" type="line"/>
      <point x="111" y="570" type="line"/>
    </contour>
  </outline>
</glyph>
<glyph name="edieresis" format="2">
  <advance width="203"/>
  <unicode hex="00EB"/>
  <anchor x="104" y="0" name="bottom"/>
  <anchor x="103" y="500" name="top"/>
  <outline>
    <contour>
      <point x="53" y="477" type="line"/>
      <point x="76" y="500" type="line"/>
      <point x="77" y="500" type="line"/>
      <point x="77" y="24" type="line"/>
      <point x="53" y="24" type="line"/>
    </contour>
    <contour>
      <point x="127" y="500" type="line"/>
      <point x="150" y="477" type="line"/>
      <point x="150" y="476" type="line"/>
      <point x="77" y="476" type="line"/>
      <point x="77" y="500" type="line"/>
    </contour>
    <contour>
      <point x="76" y="0" type="line"/>
      <point x="53" y="23" type="line"/>
      <point x="53" y="24" type="line"/>
      <point x="150" y="24" type="line"/>
      <point x="150" y="23" type="line"/>
      <point x="127" y="0" type="line"/>
    </contour>
    <contour>
      <point x="126" y="226" type="line"/>
      <point x="126" y="202" type="line"/>
      <point x="77" y="202" type="line"/>
      <point x="77" y="226" type="line"/>
    </contour>
    <contour>
      <point x="150" y="225" type="line"/>
      <point x="127" y="202" type="line"/>
      <point x="126" y="202" type="line"/>
      <point x="126" y="476" type="line"/>
      <point x="150" y="476" type="line"/>
    </contour>
    <contour>
      <point x="91" y="601" type="line"/>
      <point x="60" y="601" type="line"/>
      <point x="60" y="635" type="line"/>
      <point x="91" y="635" type="line"/>
    </contour>
    <contour>
      <point x="146" y="601" type="line"/>
      <point x="115" y="601" type="line"/>
      <point x="115" y="635" type="line"/>
      <point x="146" y="635" type="line"/>
    </contour>
  </outline>
</glyph>
<glyph name="igrave.color1" format="2">
  <advance width="130"/>
  <unicode hex="00EC"/>
  <outline>
    <contour>
      <point x="79" y="570" type="line"/>
      <point x="55" y="570" type="line"/>
      <point x="23" y="699" type="line"/>
      <point x="23" y="700" type="line"/>
      <point x="54" y="700" type="line"/>
    </contour>
  </outline>
</glyph>
<glyph name="igrave" format="2">
  <advance width="130"/>
  <unicode hex="00EC"/>
  <anchor x="65" y="0" name="bottom"/>
  <anchor x="63" y="500" name="top"/>
  <outline>
    <contour>
      <point x="53" y="480" type="line"/>
      <point x="76" y="503" type="line"/>
      <point x="77" y="503" type="line"/>
      <point x="77" y="0" type="line"/>
      <point x="53" y="0" type="line"/>
    </contour>
    <contour>
      <point x="79" y="570" type="line"/>
      <point x="55" y="570" type="line"/>
      <point x="23" y="699" type="line"/>
      <point x="23" y="700" type="line"/>
      <point x="54" y="700" type="line"/>
    </contour>
  </outline>
</glyph>
<glyph name="icircumflex.color2" format="2">
  <advance width="130"/>
  <unicode hex="00EE"/>
  <outline>
    <contour>
      <point x="7" y="590" type="line"/>
      <point x="53" y="680" type="line"/>
      <point x="76" y="680" type="line"/>
      <point x="31" y="590" type="line"/>
    </contour>
  </outline>
</glyph>
<glyph name="idieresis.color2" format="2">
  <advance width="130"/>
  <unicode hex="00EF"/>
  <outline>
    <contour>
      <point x="106" y="601" type="line"/>
      <point x="75" y="601" type="line"/>
      <point x="75" y="635" type="line"/>
      <point x="106" y="635" type="line"/>
    </contour>
  </outline>
</glyph>
<glyph name="idieresis" format="2">
  <advance width="130"/>
  <unicode hex="00EF"/>
  <anchor x="65" y="0" name="bottom"/>
  <anchor x="63" y="500" name="top"/>
  <outline>
    <contour>
      <point x="53" y="480" type="line"/>
      <point x="76" y="503" type="line"/>
      <point x="77" y="503" type="line"/>
      <point x="77" y="0" type="line"/>
      <point x="53" y="0" type="line"/>
    </contour>
    <contour>
      <point x="51" y="601" type="line"/>
      <point x="20" y="601" type="line"/>
      <point x="20" y="635" type="line"/>
      <point x="51" y="635" type="line"/>
    </contour>
    <contour>
      <point x="106" y="601" type="line"/>
      <point x="75" y="601" type="line"/>
      <point x="75" y="635" type="line"/>
      <point x="106" y="635" type="line"/>
    </contour>
  </outline>
</glyph>
<glyph name="eth.color0" format="2">
  <advance width="203"/>
  <unicode hex="00F0"/>
  <outline>
    <contour>
      <point x="172" y="623" type="line"/>
      <point x="65" y="594" type="line"/>
      <point x="59" y="617" type="line"/>
      <point x="166" y="646" type="line"/>
      <point x="166" y="645" type="line"/>
    </contour>
  </outline>
</glyph>
<glyph name="ntilde" format="2">
  <advance width="203"/>
  <unicode hex="00F1"/>
  <anchor x="105" y="0" name="bottom"/>
  <anchor x="103" y="500" name="top"/>
  <outline>
    <contour>
      <point x="53" y="477" type="line"/>
      <point x="76" y="500" type="line"/>
      <point x="77" y="500" type="line"/>
      <point x="77" y="0" type="line"/>
      <point x="53" y="0" type="line"/>
    </contour>
    <contour>
      <point x="127" y="500" type="line"/>
      <point x="150" y="477" type="line"/>
      <point x="150" y="476" type="line"/>
      <point x="77" y="476" type="line"/>
      <point x="77" y="500" type="line"/>
    </contour>
    <contour>
      <point x="150" y="20" type="line"/>
      <point x="127" y="-3" type="line"/>
      <point x="126" y="-3" type="line"/>
      <point x="126" y="476" type="line"/>
      <point x="150" y="476" type="line"/>
    </contour>
    <contour>
      <point x="53" y="611" type="line"/>
      <point x="53" y="662" type="line"/>
      <point x="73" y="663" type="line"/>
      <point x="73" y="611" type="line"/>
    </contour>
    <contour>
      <point x="154" y="672" type="line"/>
      <point x="154" y="620" type="line"/>
      <point x="134" y="620" type="line"/>
      <point x="134" y="672" type="line"/>
    </contour>
    <contour>
      <point x="53" y="662" type="line"/>
      <point x="53" y="663" type="line"/>
      <point x="73" y="672" type="line"/>
      <point x="74" y="672" type="line"/>
      <point x="153" y="620" type="line"/>
      <point x="153" y="619" type="line"/>
      <point x="133" y="610" type="line"/>
      <point x="132" y="610" type="line"/>
    </contour>
  </outline>
</glyph>
<glyph name="ograve.color4" format="2">
  <advance width="204"/>
  <unicode hex="00F2"/>
  <outline>
    <contour>
      <point x="118" y="570" type="line"/>
      <point x="94" y="570" type="line"/>
      <point x="62" y="699" type="line"/>
      <point x="62" y="700" type="line"/>
      <point x="93" y="700" type="line"/>
    </contour>
  </outline>
</glyph>
<glyph name="ograve" format="2">
  <advance width="204"/>
  <unicode hex="00F2"/>
  <anchor x="102" y="0" name="bottom"/>
  <anchor x="127" y="500" name="horn"/>
  <anchor x="102" y="500" name="top"/>
  <outline>
    <contour>
      <point x="53" y="477" type="line"/>
      <point x="76" y="500" type="line"/>
      <point x="77" y="500" type="line"/>
      <point x="77" y="24" type="line"/>
      <point x="53" y="24" type="line"/>
    </contour>
    <contour>
      <point x="128" y="500" type="line"/>
      <point x="151" y="477" type="line"/>
      <point x="151" y="476" type="line"/>
      <point x="77" y="476" type="line"/>
      <point x="77" y="500" type="line"/>
    </contour>
    <contour>
      <point x="151" y="23" type="line"/>
      <point x="128" y="0" type="line"/>
      <point x="127" y="0" type="line"/>
      <point x="127" y="476" type="line"/>
      <point x="151" y="476" type="line"/>
    </contour>
    <contour>
      <point x="76" y="0" type="line"/>
      <point x="53" y="23" type="line"/>
      <point x="53" y="24" type="line"/>
      <point x="127" y="24" type="line"/>
      <point x="127" y="0" type="line"/>
    </contour>
    <contour>
      <point x="118" y="570" type="line"/>
      <point x="94" y="570" type="line"/>
      <point x="62" y="699" type="line"/>
      <point x="62" y="700" type="line"/>
      <point x="93" y="700" type="line"/>
    </contour>
  </outline>
</glyph>
<glyph name="oacute.color4" format="2">
  <advance width="204"/>
  <unicode hex="00F3"/>
  <outline>
    <contour>
      <point x="86" y="570" type="line"/>
      <point x="111" y="700" type="line"/>
      <point x="142" y="700" type="line"/>
      <point x="142" y="699" type="line"/>
      <point x="110" y="570" type="line"/>
    </contour>
  </outline>
</glyph>
<glyph name="ocircumflex.color4" format="2">
  <advance width="204"/>
  <unicode hex="00F4"/>
  <outline>
    <contour>
      <point x="160" y="590" type="line"/>
      <point x="136" y="590" type="line"/>
      <point x="92" y="680" type="line"/>
      <point x="115" y="680" type="line"/>
      <point x="116" y="680" type="line"/>
    </contour>
  </outline>
</glyph>
<glyph name="ocircumflex.color5" format="2">
  <advance width="204"/>
  <unicode hex="00F4"/>
  <outline>
    <contour>
      <point x="46" y="590" type="line"/>
      <point x="92" y="680" type="line"/>
      <point x="115" y="680" type="line"/>
      <point x="70" y="590" type="line"/>
    </contour>
  </outline>
</glyph>
<glyph name="otilde.color4" format="2">
  <advance width="204"/>
  <unicode hex="00F5"/>
  <outline>
    <contour>
      <point x="52" y="611" type="line"/>
      <point x="52" y="662" type="line"/>
      <point x="72" y="663" type="line"/>
      <point x="72" y="611" type="line"/>
    </contour>
  </outline>
</glyph>
<glyph name="otilde" format="2">
  <advance width="204"/>
  <unicode hex="00F5"/>
  <anchor x="102" y="0" name="bottom"/>
  <anchor x="127" y="500" name="horn"/>
  <anchor x="102" y="500" name="top"/>
  <outline>
    <contour>
      <point x="53" y="477" type="line"/>
      <point x="76" y="500" type="line"/>
      <point x="77" y="500" type="line"/>
      <point x="77" y="24" type="line"/>
      <point x="53" y="24" type="line"/>
    </contour>
    <contour>
      <point x="128" y="500" type="line"/>
      <point x="151" y="477" type="line"/>
      <point x="151" y="476" type="line"/>
      <point x="77" y="476" type="line"/>
      <point x="77" y="500" type="line"/>
    </contour>
    <contour>
      <point x="151" y="23" type="line"/>
      <point x="128" y="0" type="line"/>
      <point x="127" y="0" type="line"/>
      <point x="127" y="476" type="line"/>
      <point x="151" y="476" type="line"/>
    </contour>
    <contour>
      <point x="76" y="0" type="line"/>
      <point x="53" y="23" type="line"/>
      <point x="53" y="24" type="line"/>
      <point x="127" y="24" type="line"/>
      <point x="127" y="0" type="line"/>
    </contour>
    <contour>
      <point x="52" y="611" type="line"/>
      <point x="52" y="662" type="line"/>
      <point x="72" y="663" type="line"/>
      <point x="72" y="611" type="line"/>
    </contour>
    <contour>
      <point x="153" y="672" type="line"/>
      <point x="153" y="620" type="line"/>
      <point x="133" y="620" type="line"/>
      <point x="133" y="672" type="line"/>
    </contour>
    <contour>
      <point x="52" y="662" type="line"/>
      <point x="52" y="663" type="line"/>
      <point x="72" y="672" type="line"/>
      <point x="73" y="672" type="line"/>
      <point x="152" y="620" type="line"/>
      <point x="152" y="619" type="line"/>
      <point x="132" y="610" type="line"/>
      <point x="131" y="610" type="line"/>
    </contour>
  </outline>
</glyph>
<glyph name="divide.color0" format="2">
  <advance width="600"/>
  <unicode hex="00F7"/>
  <outline>
    <contour>
      <point x="243" y="329" type="line"/>
      <point x="53" y="329" type="line"/>
      <point x="53" y="353" type="line"/>
      <point x="243" y="353" type="line"/>
      <point x="243" y="352" type="line"/>
    </contour>
  </outline>
</glyph>
<glyph name="divide.color2" format="2">
  <advance width="600"/>
  <unicode hex="00F7"/>
  <outline>
    <contour>
      <point x="164" y="393" type="line"/>
      <point x="133" y="393" type="line"/>
      <point x="133" y="417" type="line"/>
      <point x="164" y="417" type="line"/>
    </contour>
  </outline>
</glyph>
<glyph name="oslash.color1" format="2">
  <advance width="203"/>
  <unicode hex="00F8"/>
  <outline>
    <contour>
      <point x="53" y="477" type="line"/>
      <point x="76" y="500" type="line"/>
      <point x="77" y="500" type="line"/>
      <point x="77" y="24" type="line"/>
      <point x="53" y="24" type="line"/>
    </contour>
  </outline>
</glyph>
<glyph name="oslash" format="2">
  <advance width="203"/>
  <unicode hex="00F8"/>
  <anchor x="102" y="0" name="bottom"/>
  <anchor x="127" y="500" name="horn"/>
  <anchor x="102" y="500" name="top"/>
  <outline>
    <contour>
      <point x="56" y="0" type="line"/>
      <point x="33" y="0" type="line"/>
      <point x="33" y="1" type="line"/>
      <point x="147" y="500" type="line"/>
      <point x="170" y="500" type="line"/>
      <point x="170" y="499" type="line"/>
    </contour>
    <contour>
      <point x="53" y="477" type="line"/>
      <point x="76" y="500" type="line"/>
      <point x="77" y="500" type="line"/>
      <point x="77" y="24" type="line"/>
      <point x="53" y="24" type="line"/>
    </contour>
    <contour>
      <point x="128" y="500" type="line"/>
      <point x="151" y="477" type="line"/>
      <point x="151" y="476" type="line"/>
      <point x="77" y="476" type="line"/>
      <point x="77" y="500" type="line"/>
    </contour>
    <contour>
      <point x="151" y="23" type="line"/>
      <point x="128" y="0" type="line"/>
      <point x="127" y="0" type="line"/>
      <point x="127" y="476" type="line"/>
      <point x="151" y="476" type="line"/>
    </contour>
    <contour>
      <point x="76" y="0" type="line"/>
      <point x="53" y="23" type="line"/>
      <point x="53" y="24" type="line"/>
      <point x="127" y="24" type="line"/>
      <point x="127" y="0" type="line"/>
    </contour>
  </outline>
</glyph>
<glyph name="ucircumflex.color4" format="2">
  <advance width="203"/>
  <unicode hex="00FB"/>
  <outline>
    <contour>
      <point x="47" y="590" type="line"/>
      <point x="93" y="680" type="line"/>
      <point x="116" y="680" type="line"/>
      <point x="71" y="590" type="line"/>
    </contour>
  </outline>
</glyph>
<glyph name="udieresis.color2" format="2">
  <advance width="203"/>
  <unicode hex="00FC"/>
  <outline>
    <contour>
      <point x="53" y="483" type="line"/>
      <point x="76" y="506" type="line"/>
      <point x="77" y="506" type="line"/>
      <point x="77" y="24" type="line"/>
      <point x="53" y="24" type="line"/>
    </contour>
  </outline>
</glyph>
<glyph name="yacute.color1" format="2">
  <advance width="203"/>
  <unicode hex="00FD"/>
  <outline>
    <contour>
      <point x="149" y="-177" type="line"/>
      <point x="127" y="-200" type="line"/>
      <point x="126" y="-200" type="line"/>
      <point x="126" y="500" type="line"/>
      <point x="150" y="500" type="line"/>
    </contour>
  </outline>
</glyph>
<glyph name="yacute" format="2">
  <advance width="203"/>
  <unicode hex="00FD"/>
  <anchor x="102" y="-200" name="bottom"/>
  <anchor x="103" y="500" name="top"/>
  <outline>
    <contour>
      <point x="76" y="0" type="line"/>
      <point x="53" y="23" type="line"/>
      <point x="53" y="24" type="line"/>
      <point x="126" y="24" type="line"/>
      <point x="126" y="0" type="line"/>
    </contour>
    <contour>
      <point x="149" y="-177" type="line"/>
      <point x="127" y="-200" type="line"/>
      <point x="126" y="-200" type="line"/>
      <point x="126" y="500" type="line"/>
      <point x="150" y="500" type="line"/>
    </contour>
    <contour>
      <point x="53" y="477" type="line"/>
      <point x="76" y="503" type="line"/>
      <point x="77" y="503" type="line"/>
      <point x="77" y="24" type="line"/>
      <point x="53" y="24" type="line"/>
    </contour>
    <contour>
      <point x="53" y="-200" type="line"/>
      <point x="53" y="-177" type="line"/>
      <point x="53" y="-176" type="line"/>
      <point x="126" y="-176" type="line"/>
      <point x="126" y="-200" type="line"/>
    </contour>
    <contour>
      <point x="87" y="570" type="line"/>
      <point x="112" y="700" type="line"/>
      <point x="143" y="700" type="line"/>
      <point x="143" y="699" type="line"/>
      <point x="111" y="570" type="line"/>
    </contour>
  </outline>
</glyph>
<glyph name="ydieresis.color5" format="2">
  <advance width="203"/>
  <unicode hex="00FF"/>
  <outline>
    <contour>
      <point x="146" y="601" type="line"/>
      <point x="115" y="601" type="line"/>
      <point x="115" y="635" type="line"/>
      <point x="146" y="635" type="line"/>
    </contour>
  </outline>
</glyph>
<glyph name="ydieresis" format="2">
  <advance width="203"/>
  <unicode hex="00FF"/>
  <anchor x="102" y="-200" name="bottom"/>
  <anchor x="103" y="500" name="top"/>
  <outline>
    <contour>
      <point x="76" y="0" type="line"/>
      <point x="53" y="23" type="line"/>
      <point x="53" y="24" type="line"/>
      <point x="126" y="24" type="line"/>
      <point x="126" y="0" type="line"/>
    </contour>
    <contour>
      <point x="149" y="-177" type="line"/>
      <point x="127" y="-200" type="line"/>
      <point x="126" y="-200" type="line"/>
      <point x="126" y="500" type="line"/>
      <point x="150" y="500" type="line"/>
    </contour>
    <contour>
      <point x="53" y="477" type="line"/>
      <point x="76" y="503" type="line"/>
      <point x="77" y="503" type="line"/>
      <point x="77" y="24" type="line"/>
      <point x="53" y="24" type="line"/>
    </contour>
    <contour>
      <point x="53" y="-200" type="line"/>
      <point x="53" y="-177" type="line"/>
      <point x="53" y="-176" type="line"/>
      <point x="126" y="-176" type="line"/>
      <point x="126" y="-200" type="line"/>
    </contour>
    <contour>
      <point x="91" y="601" type="line"/>
      <point x="60" y="601" type="line"/>
      <point x="60" y="635" type="line"/>
      <point x="91" y="635" type="line"/>
    </contour>
    <contour>
      <point x="146" y="601" type="line"/>
      <point x="115" y="601" type="line"/>
      <point x="115" y="635" type="line"/>
      <point x="146" y="635" type="line"/>
    </contour>
  </outline>
</glyph>
<glyph name="amacron.color4" format="2">
  <advance width="203"/>
  <unicode hex="0101"/>
  <outline>
    <contour>
      <point x="160" y="611" type="line"/>
      <point x="50" y="611" type="line"/>
      <point x="50" y="635" type="line"/>
      <point x="160" y="635" type="line"/>
    </contour>
  </outline>
</glyph>
<glyph name="amacron" format="2">
  <advance width="203"/>
  <unicode hex="0101"/>
  <anchor x="105" y="0" name="bottom"/>
  <anchor x="105" y="500" name="top"/>
  <outline>
    <contour>
      <point x="53" y="477" type="line"/>
      <point x="76" y="500" type="line"/>
      <point x="77" y="500" type="line"/>
      <point x="77" y="24" type="line"/>
      <point x="53" y="24" type="line"/>
    </contour>
    <contour>
      <point x="127" y="500" type="line"/>
      <point x="150" y="477" type="line"/>
      <point x="150" y="476" type="line"/>
      <point x="77" y="476" type="line"/>
      <point x="77" y="500" type="line"/>
    </contour>
    <contour>
      <point x="150" y="0" type="line"/>
      <point x="127" y="0" type="line"/>
      <point x="126" y="0" type="line"/>
      <point x="126" y="476" type="line"/>
      <point x="150" y="476" type="line"/>
    </contour>
    <contour>
      <point x="76" y="0" type="line"/>
      <point x="53" y="23" type="line"/>
      <point x="53" y="24" type="line"/>
      <point x="126" y="24" type="line"/>
      <point x="126" y="0" type="line"/>
    </contour>
    <contour>
      <point x="160" y="611" type="line"/>
      <point x="50" y="611" type="line"/>
      <point x="50" y="635" type="line"/>
      <point x="160" y="635" type="line"/>
    </contour>
  </outline>
</glyph>
<glyph name="abreve.color5" format="2">
  <advance width="203"/>
  <unicode hex="0103"/>
  <outline>
    <contour>
      <point x="117" y="622" type="line"/>
      <point x="146" y="672" type="line"/>
      <point x="172" y="672" type="line"/>
      <point x="172" y="671" type="line"/>
      <point x="143" y="622" type="line"/>
    </contour>
  </outline>
</glyph>
<glyph name="Aogonek.color6" format="2">
  <advance width="273"/>
  <unicode hex="0104"/>
  <outline>
    <contour>
      <point x="102" y="-61" type="line"/>
      <point x="102" y="-34" type="line"/>
      <point x="123" y="-34" type="line"/>
      <point x="123" y="-79" type="line"/>
      <point x="122" y="-79" type="line"/>
    </contour>
  </outline>
</glyph>
<glyph name="aogonek.color4" format="2">
  <advance width="203"/>
  <unicode hex="0105"/>
  <outline>
    <contour>
      <point x="118" y="-80" type="line"/>
      <point x="93" y="-80" type="line"/>
      <point x="93" y="-61" type="line"/>
      <point x="136" y="-61" type="line"/>
      <point x="136" y="-62" type="line"/>
    </contour>
  </outline>
</glyph>
<glyph name="aogonek.color5" format="2">
  <advance width="203"/>
  <unicode hex="0105"/>
  <outline>
    <contour>
      <point x="72" y="-34" type="line"/>
      <point x="72" y="-33" type="line"/>
      <point x="93" y="0" type="line"/>
      <point x="117" y="0" type="line"/>
      <point x="117" y="-1" type="line"/>
      <point x="93" y="-34" type="line"/>
    </contour>
  </outline>
</glyph>
<glyph name="Cacute" format="2">
  <advance width="273"/>
  <unicode hex="0106"/>
  <anchor x="140" y="0" name="bottom"/>
  <anchor x="138" y="700" name="top"/>
  <outline>
    <contour>
      <point x="53" y="677" type="line"/>
      <point x="76" y="700" type="line"/>
      <point x="77" y="700" type="line"/>
      <point x="77" y="24" type="line"/>
      <point x="53" y="24" type="line"/>
    </contour>
    <contour>
      <point x="197" y="700" type="line"/>
      <point x="220" y="677" type="line"/>
      <point x="220" y="676" type="line"/>
      <point x="77" y="676" type="line"/>
      <point x="77" y="700" type="line"/>
    </contour>
    <contour>
      <point x="76" y="0" type="line"/>
      <point x="53" y="23" type="line"/>
      <point x="53" y="24" type="line"/>
      <point x="220" y="24" type="line"/>
      <point x="197" y="0" type="line"/>
    </contour>
    <contour>
      <point x="120" y="765" type="line"/>
      <point x="145" y="855" type="line"/>
      <point x="176" y="855" type="line"/>
      <point x="176" y="854" type="line"/>
      <point x="144" y="765" type="line"/>
    </contour>
  </outline>
</glyph>
<glyph name="cacute.color3" format="2">
  <advance width="203"/>
  <unicode hex="0107"/>
  <outline>
    <contour>
      <point x="87" y="570" type="line"/>
      <point x="112" y="700" type="line"/>
      <point x="143" y="700" type="line"/>
      <point x="143" y="699" type="line"/>
      <point x="111" y="570" type="line"/>
    </contour>
  </outline>
</glyph>
<glyph name="Ccircumflex.color4" format="2">
  <advance width="273"/>
  <unicode hex="0108"/>
  <outline>
    <contour>
      <point x="78" y="760" type="line"/>
      <point x="78" y="761" type="line"/>
      <point x="124" y="850" type="line"/>
      <point x="147" y="850" type="line"/>
      <point x="102" y="760" type="line"/>
    </contour>
  </outline>
</glyph>
<glyph name="cdotaccent.color3" format="2">
  <advance width="203"/>
  <unicode hex="010B"/>
  <outline>
    <contour>
      <point x="118" y="601" type="line"/>
      <point x="88" y="601" type="line"/>
      <point x="88" y="635" type="line"/>
      <point x="118" y="635" type="line"/>
    </contour>
  </outline>
</glyph>
<glyph name="Ccaron.color4" format="2">
  <advance width="273"/>
  <unicode hex="010C"/>
  <outline>
    <contour>
      <point x="195" y="840" type="line"/>
      <point x="149" y="750" type="line"/>
      <point x="126" y="750" type="line"/>
      <point x="171" y="840" type="line"/>
    </contour>
  </outline>
</glyph>
<glyph name="Ccaron" format="2">
  <advance width="273"/>
  <unicode hex="010C"/>
  <anchor x="140" y="0" name="bottom"/>
  <anchor x="138" y="700" name="top"/>
  <outline>
    <contour>
      <point x="53" y="677" type="line"/>
      <point x="76" y="700" type="line"/>
      <point x="77" y="700" type="line"/>
      <point x="77" y="24" type="line"/>
      <point x="53" y="24" type="line"/>
    </contour>
    <contour>
      <point x="197" y="700" type="line"/>
      <point x="220" y="677" type="line"/>
      <point x="220" y="676" type="line"/>
      <point x="77" y="676" type="line"/>
      <point x="77" y="700" type="line"/>
    </contour>
    <contour>
      <point x="76" y="0" type="line"/>
      <point x="53" y="23" type="line"/>
      <point x="53" y="24" type="line"/>
      <point x="220" y="24" type="line"/>
      <point x="197" y="0" type="line"/>
    </contour>
    <contour>
      <point x="81" y="840" type="line"/>
      <point x="105" y="840" type="line"/>
      <point x="148" y="762" type="line"/>
      <point x="126" y="750" type="line"/>
      <point x="125" y="750" type="line"/>
    </contour>
    <contour>
      <point x="195" y="840" type="line"/>
      <point x="149" y="750" type="line"/>
      <point x="126" y="750" type="line"/>
      <point x="171" y="840" type="line"/>
    </contour>
  </outline>
</glyph>
<glyph name="Dcaron.color3" format="2">
  <advance width="273"/>
  <unicode hex="010E"/>
  <outline>
    <contour>
      <point x="53" y="0" type="line"/>
      <point x="53" y="23" type="line"/>
      <point x="53" y="24" type="line"/>
      <point x="198" y="24" type="line"/>
      <point x="198" y="0" type="line"/>
    </contour>
  </outline>
</glyph>
<glyph name="dcaron.color5" format="2">
  <advance width="203"/>
  <unicode hex="010F"/>
  <outline>
    <contour>
      <point x="182" y="601" type="line"/>
      <point x="180" y="730" type="line"/>
      <point x="180" y="731" type="line"/>
      <point x="208" y="731" type="line"/>
      <point x="203" y="601" type="line"/>
    </contour>
  </outline>
</glyph>
<glyph name="dcaron" format="2">
  <advance width="203"/>
  <unicode hex="010F"/>
  <anchor x="106" y="578" name="stroke"/>
  <anchor x="150" y="730" name="top"/>
  <outline>
    <contour>
      <point x="53" y="477" type="line"/>
      <point x="76" y="500" type="line"/>
      <point x="77" y="500" type="line"/>
      <point x="77" y="24" type="line"/>
      <point x="53" y="24" type="line"/>
    </contour>
    <contour>
      <point x="127" y="500" type="line"/>
      <point x="150" y="477" type="line"/>
      <point x="150" y="476" type="line"/>
      <point x="77" y="476" type="line"/>
      <point x="77" y="500" type="line"/>
    </contour>
    <contour>
      <point x="150" y="23" type="line"/>
      <point x="127" y="0" type="line"/>
      <point x="126" y="0" type="line"/>
      <point x="126" y="476" type="line"/>
      <point x="150" y="476" type="line"/>
    </contour>
    <contour>
      <point x="76" y="0" type="line"/>
      <point x="53" y="23" type="line"/>
      <point x="53" y="24" type="line"/>
      <point x="126" y="24" type="line"/>
      <point x="126" y="0" type="line"/>
    </contour>
    <contour>
      <point x="126" y="500" type="line"/>
      <point x="126" y="730" type="line"/>
      <point x="150" y="730" type="line"/>
      <point x="150" y="477" type="line"/>
      <point x="149" y="477" type="line"/>
    </contour>
    <contour>
      <point x="182" y="601" type="line"/>
      <point x="180" y="730" type="line"/>
      <point x="180" y="731" type="line"/>
      <point x="208" y="731" type="line"/>
      <point x="203" y="601" type="line"/>
    </contour>
  </outline>
</glyph>
<glyph name="Dcroat.color2" format="2">
  <advance width="273"/>
  <unicode hex="0110"/>
  <outline>
    <contour>
      <point x="199" y="700" type="line"/>
      <point x="222" y="677" type="line"/>
      <point x="222" y="676" type="line"/>
      <point x="77" y="676" type="line"/>
      <point x="77" y="700" type="line"/>
    </contour>
  </outline>
</glyph>
<glyph name="Dcroat" format="2">
  <advance width="273"/>
  <unicode hex="0110"/>
  <anchor x="65" y="365" name="_stroke"/>
  <anchor x="65" y="365" name="stroke"/>
  <anchor x="138" y="700" name="top"/>
  <outline>
    <contour>
      <point x="146" y="353" type="line"/>
      <point x="-15" y="353" type="line"/>
      <point x="-15" y="377" type="line"/>
      <point x="146" y="377" type="line"/>
      <point x="146" y="376" type="line"/>
    </contour>
    <contour>
      <point x="53" y="700" type="line"/>
      <point x="76" y="700" type="line"/>
      <point x="77" y="700" type="line"/>
      <point x="77" y="24" type="line"/>
      <point x="53" y="24" type="line"/>
    </contour>
    <contour>
      <point x="199" y="700" type="line"/>
      <point x="222" y="677" type="line"/>
      <point x="222" y="676" type="line"/>
      <point x="77" y="676" type="line"/>
      <point x="77" y="700" type="line"/>
    </contour>
    <contour>
      <point x="222" y="23" type="line"/>
      <point x="199" y="0" type="line"/>
      <point x="198" y="0" type="line"/>
      <point x="198" y="676" type="line"/>
      <point x="222" y="676" type="line"/>
    </contour>
    <contour>
      <point x="53" y="0" type="line"/>
      <point x="53" y="23" type="line"/>
      <point x="53" y="24" type="line"/>
      <point x="198" y="24" type="line"/>
      <point x="198" y="0" type="line"/>
    </contour>
  </outline>
</glyph>
<glyph name="dcroat.color4" format="2">
  <advance width="203"/>
  <unicode hex="0111"/>
  <outline>
    <contour>
      <point x="126" y="500" type="line"/>
      <point x="126" y="730" type="line"/>
      <point x="150" y="730" type="line"/>
      <point x="150" y="477" type="line"/>
      <point x="149" y="477" type="line"/>
    </contour>
  </outline>
</glyph>
<glyph name="dcroat" format="2">
  <advance width="203"/>
  <unicode hex="0111"/>
  <anchor x="106" y="578" name="stroke"/>
  <anchor x="150" y="730" name="top"/>
  <outline>
    <contour>
      <point x="53" y="477" type="line"/>
      <point x="76" y="500" type="line"/>
      <point x="77" y="500" type="line"/>
      <point x="77" y="24" type="line"/>
      <point x="53" y="24" type="line"/>
    </contour>
    <contour>
      <point x="127" y="500" type="line"/>
      <point x="150" y="477" type="line"/>
      <point x="150" y="476" type="line"/>
      <point x="77" y="476" type="line"/>
      <point x="77" y="500" type="line"/>
    </contour>
    <contour>
      <point x="150" y="23" type="line"/>
      <point x="127" y="0" type="line"/>
      <point x="126" y="0" type="line"/>
      <point x="126" y="476" type="line"/>
      <point x="150" y="476" type="line"/>
    </contour>
    <contour>
      <point x="76" y="0" type="line"/>
      <point x="53" y="23" type="line"/>
      <point x="53" y="24" type="line"/>
      <point x="126" y="24" type="line"/>
      <point x="126" y="0" type="line"/>
    </contour>
    <contour>
      <point x="126" y="500" type="line"/>
      <point x="126" y="730" type="line"/>
      <point x="150" y="730" type="line"/>
      <point x="150" y="477" type="line"/>
      <point x="149" y="477" type="line"/>
    </contour>
    <contour>
      <point x="187" y="566" type="line"/>
      <point x="26" y="566" type="line"/>
      <point x="26" y="590" type="line"/>
      <point x="187" y="590" type="line"/>
      <point x="187" y="589" type="line"/>
    </contour>
  </outline>
</glyph>
<glyph name="Emacron.color2" format="2">
  <advance width="273"/>
  <unicode hex="0112"/>
  <outline>
    <contour>
      <point x="196" y="353" type="line"/>
      <point x="77" y="353" type="line"/>
      <point x="77" y="377" type="line"/>
      <point x="196" y="377" type="line"/>
    </contour>
  </outline>
</glyph>
<glyph name="emacron.color5" format="2">
  <advance width="203"/>
  <unicode hex="0113"/>
  <outline>
    <contour>
      <point x="158" y="611" type="line"/>
      <point x="48" y="611" type="line"/>
      <point x="48" y="635" type="line"/>
      <point x="158" y="635" type="line"/>
    </contour>
  </outline>
</glyph>
<glyph name="emacron" format="2">
  <advance width="203"/>
  <unicode hex="0113"/>
  <anchor x="104" y="0" name="bottom"/>
  <anchor x="103" y="500" name="top"/>
  <outline>
    <contour>
      <point x="53" y="477" type="line"/>
      <point x="76" y="500" type="line"/>
      <point x="77" y="500" type="line"/>
      <point x="77" y="24" type="line"/>
      <point x="53" y="24" type="line"/>
    </contour>
    <contour>
      <point x="127" y="500" type="line"/>
      <point x="150" y="477" type="line"/>
      <point x="150" y="476" type="line"/>
      <point x="77" y="476" type="line"/>
      <point x="77" y="500" type="line"/>
    </contour>
    <contour>
      <point x="76" y="0" type="line"/>
      <point x="53" y="23" type="line"/>
      <point x="53" y="24" type="line"/>
      <point x="150" y="24" type="line"/>
      <point x="150" y="23" type="line"/>
      <point x="127" y="0" type="line"/>
    </contour>
    <contour>
      <point x="126" y="226" type="line"/>
      <point x="126" y="202" type="line"/>
      <point x="77" y="202" type="line"/>
      <point x="77" y="226" type="line"/>
    </contour>
    <contour>
      <point x="150" y="225" type="line"/>
      <point x="127" y="202" type="line"/>
      <point x="126" y="202" type="line"/>
      <point x="126" y="476" type="line"/>
      <point x="150" y="476" type="line"/>
    </contour>
    <contour>
      <point x="158" y="611" type="line"/>
      <point x="48" y="611" type="line"/>
      <point x="48" y="635" type="line"/>
      <point x="158" y="635" type="line"/>
    </contour>
  </outline>
</glyph>
<glyph name="ebreve.color5" format="2">
  <advance width="203"/>
  <unicode hex="0115"/>
  <outline>
    <contour>
      <point x="89" y="622" type="line"/>
      <point x="63" y="622" type="line"/>
      <point x="34" y="671" type="line"/>
      <point x="34" y="672" type="line"/>
      <point x="60" y="672" type="line"/>
    </contour>
  </outline>
</glyph>
<glyph name="ebreve.color6" format="2">
  <advance width="203"/>
  <unicode hex="0115"/>
  <outline>
    <contour>
      <point x="115" y="622" type="line"/>
      <point x="144" y="672" type="line"/>
      <point x="170" y="672" type="line"/>
      <point x="170" y="671" type="line"/>
      <point x="141" y="622" type="line"/>
    </contour>
  </outline>
</glyph>
<glyph name="ebreve.color7" format="2">
  <advance width="203"/>
  <unicode hex="0115"/>
  <outline>
    <contour>
      <point x="128" y="600" type="line"/>
      <point x="76" y="600" type="line"/>
      <point x="63" y="622" type="line"/>
      <point x="141" y="622" type="line"/>
    </contour>
  </outline>
</glyph>
<glyph name="edotaccent.color5" format="2">
  <advance width="203"/>
  <unicode hex="0117"/>
  <outline>
    <contour>
      <point x="118" y="601" type="line"/>
      <point x="88" y="601" type="line"/>
      <point x="88" y="635" type="line"/>
      <point x="118" y="635" type="line"/>
    </contour>
  </outline>
</glyph>
<glyph name="Eogonek.color5" format="2">
  <advance width="273"/>
  <unicode hex="0118"/>
  <outline>
    <contour>
      <point x="102" y="-34" type="line"/>
      <point x="102" y="-33" type="line"/>
      <point x="123" y="0" type="line"/>
      <point x="147" y="0" type="line"/>
      <point x="147" y="-1" type="line"/>
      <point x="123" y="-34" type="line"/>
    </contour>
  </outline>
</glyph>
<glyph name="eogonek.color7" format="2">
  <advance width="203"/>
  <unicode hex="0119"/>
  <outline>
    <contour>
      <point x="71" y="-61" type="line"/>
      <point x="71" y="-34" type="line"/>
      <point x="92" y="-34" type="line"/>
      <point x="92" y="-79" type="line"/>
      <point x="91" y="-79" type="line"/>
    </contour>
  </outline>
</glyph>
<glyph name="eogonek" format="2">
  <advance width="203"/>
  <unicode hex="0119"/>
  <anchor x="104" y="0" name="bottom"/>
  <anchor x="103" y="500" name="top"/>
  <outline>
    <contour>
      <point x="53" y="477" type="line"/>
      <point x="76" y="500" type="line"/>
      <point x="77" y="500" type="line"/>
      <point x="77" y="24" type="line"/>
      <point x="53" y="24" type="line"/>
    </contour>
    <contour>
      <point x="127" y="500" type="line"/>
      <point x="150" y="477" type="line"/>
      <point x="150" y="476" type="line"/>
      <point x="77" y="476" type="line"/>
      <point x="77" y="500" type="line"/>
    </contour>
    <contour>
      <point x="76" y="0" type="line"/>
      <point x="53" y="23" type="line"/>
      <point x="53" y="24" type="line"/>
      <point x="150" y="24" type="line"/>
      <point x="150" y="23" type="line"/>
      <point x="127" y="0" type="line"/>
    </contour>
    <contour>
      <point x="126" y="226" type="line"/>
      <point x="126" y="202" type="line"/>
      <point x="77" y="202" type="line"/>
      <point x="77" y="226" type="line"/>
    </contour>
    <contour>
      <point x="150" y="225" type="line"/>
      <point x="127" y="202" type="line"/>
      <point x="126" y="202" type="line"/>
      <point x="126" y="476" type="line"/>
      <point x="150" y="476" type="line"/>
    </contour>
    <contour>
      <point x="117" y="-80" type="line"/>
      <point x="92" y="-80" type="line"/>
      <point x="92" y="-61" type="line"/>
      <point x="135" y="-61" type="line"/>
      <point x="135" y="-62" type="line"/>
    </contour>
    <contour>
      <point x="71" y="-34" type="line"/>
      <point x="71" y="-33" type="line"/>
      <point x="92" y="0" type="line"/>
      <point x="116" y="0" type="line"/>
      <point x="116" y="-1" type="line"/>
      <point x="92" y="-34" type="line"/>
    </contour>
    <contour>
      <point x="71" y="-61" type="line"/>
      <point x="71" y="-34" type="line"/>
      <point x="92" y="-34" type="line"/>
      <point x="92" y="-79" type="line"/>
      <point x="91" y="-79" type="line"/>
    </contour>
  </outline>
</glyph>
<glyph name="gcircumflex.color6" format="2">
  <advance width="243"/>
  <unicode hex="011D"/>
  <outline>
    <contour>
      <point x="57" y="590" type="line"/>
      <point x="103" y="680" type="line"/>
      <point x="126" y="680" type="line"/>
      <point x="81" y="590" type="line"/>
    </contour>
  </outline>
</glyph>
<glyph name="gcircumflex" format="2">
  <advance width="243"/>
  <unicode hex="011D"/>
  <anchor x="120" y="602" name="top"/>
  <outline>
    <contour>
      <point x="149" y="-177" type="line"/>
      <point x="127" y="-200" type="line"/>
      <point x="126" y="-200" type="line"/>
      <point x="126" y="476" type="line"/>
      <point x="150" y="476" type="line"/>
    </contour>
    <contour>
      <point x="76" y="0" type="line"/>
      <point x="53" y="23" type="line"/>
      <point x="53" y="24" type="line"/>
      <point x="126" y="24" type="line"/>
      <point x="126" y="0" type="line"/>
    </contour>
    <contour>
      <point x="53" y="477" type="line"/>
      <point x="76" y="500" type="line"/>
      <point x="77" y="500" type="line"/>
      <point x="77" y="24" type="line"/>
      <point x="53" y="24" type="line"/>
    </contour>
    <contour>
      <point x="167" y="476" type="line"/>
      <point x="77" y="476" type="line"/>
      <point x="77" y="500" type="line"/>
      <point x="190" y="500" type="line"/>
      <point x="190" y="499" type="line"/>
    </contour>
    <contour>
      <point x="53" y="-200" type="line"/>
      <point x="53" y="-177" type="line"/>
      <point x="53" y="-176" type="line"/>
      <point x="126" y="-176" type="line"/>
      <point x="126" y="-200" type="line"/>
    </contour>
    <contour>
      <point x="171" y="590" type="line"/>
      <point x="147" y="590" type="line"/>
      <point x="103" y="680" type="line"/>
      <point x="126" y="680" type="line"/>
      <point x="127" y="680" type="line"/>
    </contour>
    <contour>
      <point x="57" y="590" type="line"/>
      <point x="103" y="680" type="line"/>
      <point x="126" y="680" type="line"/>
      <point x="81" y="590" type="line"/>
    </contour>
  </outline>
</glyph>
<glyph name="Gbreve" format="2">
  <advance width="273"/>
  <unicode hex="011E"/>
  <anchor x="146" y="0" name="bottom"/>
  <anchor x="138" y="700" name="top"/>
  <outline>
    <contour>
      <point x="53" y="677" type="line"/>
      <point x="76" y="700" type="line"/>
      <point x="77" y="700" type="line"/>
      <point x="77" y="24" type="line"/>
      <point x="53" y="24" type="line"/>
    </contour>
    <contour>
      <point x="197" y="700" type="line"/>
      <point x="220" y="677" type="line"/>
      <point x="220" y="676" type="line"/>
      <point x="77" y="676" type="line"/>
      <point x="77" y="700" type="line"/>
    </contour>
    <contour>
      <point x="76" y="0" type="line"/>
      <point x="53" y="23" type="line"/>
      <point x="53" y="24" type="line"/>
      <point x="196" y="24" type="line"/>
      <point x="196" y="0" type="line"/>
    </contour>
    <contour>
      <point x="123" y="353" type="line"/>
      <point x="123" y="376" type="line"/>
      <point x="123" y="377" type="line"/>
      <point x="196" y="377" type="line"/>
      <point x="196" y="354" type="line"/>
      <point x="196" y="353" type="line"/>
    </contour>
    <contour>
      <point x="220" y="24" type="line"/>
      <point x="197" y="0" type="line"/>
      <point x="196" y="0" type="line"/>
      <point x="196" y="377" type="line"/>
      <point x="197" y="377" type="line"/>
      <point x="220" y="353" type="line"/>
    </contour>
    <contour>
      <point x="123" y="803" type="line"/>
      <point x="91" y="803" type="line"/>
      <point x="60" y="839" type="line"/>
      <point x="60" y="840" type="line"/>
      <point x="92" y="840" type="line"/>
    </contour>
    <contour>
      <point x="153" y="803" type="line"/>
      <point x="184" y="840" type="line"/>
      <point x="216" y="840" type="line"/>
      <point x="216" y="839" type="line"/>
      <point x="185" y="803" type="line"/>
    </contour>
    <contour>
      <point x="166" y="781" type="line"/>
      <point x="110" y="781" type="line"/>
      <point x="91" y="803" type="line"/>
      <point x="185" y="803" type="line"/>
    </contour>
  </outline>
</glyph>
<glyph name="gbreve.color3" format="2">
  <advance width="243"/>
  <unicode hex="011F"/>
  <outline>
    <contour>
      <point x="167" y="476" type="line"/>
      <point x="77" y="476" type="line"/>
      <point x="77" y="500" type="line"/>
      <point x="190" y="500" type="line"/>
      <point x="190" y="499" type="line"/>
    </contour>
  </outline>
</glyph>
<glyph name="gbreve.color5" format="2">
  <advance width="243"/>
  <unicode hex="011F"/>
  <outline>
    <contour>
      <point x="99" y="622" type="line"/>
      <point x="73" y="622" type="line"/>
      <point x="44" y="671" type="line"/>
      <point x="44" y="672" type="line"/>
      <point x="70" y="672" type="line"/>
    </contour>
  </outline>
</glyph>
<glyph name="gbreve.color6" format="2">
  <advance width="243"/>
  <unicode hex="011F"/>
  <outline>
    <contour>
      <point x="125" y="622" type="line"/>
      <point x="154" y="672" type="line"/>
      <point x="180" y="672" type="line"/>
      <point x="180" y="671" type="line"/>
      <point x="151" y="622" type="line"/>
    </contour>
  </outline>
</glyph>
<glyph name="gbreve.color7" format="2">
  <advance width="243"/>
  <unicode hex="011F"/>
  <outline>
    <contour>
      <point x="138" y="600" type="line"/>
      <point x="86" y="600" type="line"/>
      <point x="73" y="622" type="line"/>
      <point x="151" y="622" type="line"/>
    </contour>
  </outline>
</glyph>
<glyph name="gdotaccent" format="2">
  <advance width="243"/>
  <unicode hex="0121"/>
  <anchor x="113" y="500" name="top"/>
  <outline>
    <contour>
      <point x="149" y="-177" type="line"/>
      <point x="127" y="-200" type="line"/>
      <point x="126" y="-200" type="line"/>
      <point x="126" y="476" type="line"/>
      <point x="150" y="476" type="line"/>
    </contour>
    <contour>
      <point x="76" y="0" type="line"/>
      <point x="53" y="23" type="line"/>
      <point x="53" y="24" type="line"/>
      <point x="126" y="24" type="line"/>
      <point x="126" y="0" type="line"/>
    </contour>
    <contour>
      <point x="53" y="477" type="line"/>
      <point x="76" y="500" type="line"/>
      <point x="77" y="500" type="line"/>
      <point x="77" y="24" type="line"/>
      <point x="53" y="24" type="line"/>
    </contour>
    <contour>
      <point x="167" y="476" type="line"/>
      <point x="77" y="476" type="line"/>
      <point x="77" y="500" type="line"/>
      <point x="190" y="500" type="line"/>
      <point x="190" y="499" type="line"/>
    </contour>
    <contour>
      <point x="53" y="-200" type="line"/>
      <point x="53" y="-177" type="line"/>
      <point x="53" y="-176" type="line"/>
      <point x="126" y="-176" type="line"/>
      <point x="126" y="-200" type="line"/>
    </contour>
    <contour>
      <point x="128" y="601" type="line"/>
      <point x="98" y="601" type="line"/>
      <point x="98" y="635" type="line"/>
      <point x="128" y="635" type="line"/>
    </contour>
  </outline>
</glyph>
<glyph name="gcommaaccent.color5" format="2">
  <advance width="243"/>
  <unicode hex="0123"/>
  <outline>
    <contour>
      <point x="125" y="648" type="line"/>
      <point x="125" y="580" type="line"/>
      <point x="101" y="580" type="line"/>
      <point x="101" y="671" type="line"/>
      <point x="102" y="671" type="line"/>
    </contour>
  </outline>
</glyph>
<glyph name="Hcircumflex.color1" format="2">
  <advance width="293"/>
  <unicode hex="0124"/>
  <outline>
    <contour>
      <point x="240" y="0" type="line"/>
      <point x="217" y="0" type="line"/>
      <point x="216" y="0" type="line"/>
      <point x="216" y="700" type="line"/>
      <point x="240" y="700" type="line"/>
    </contour>
  </outline>
</glyph>
<glyph name="Hcircumflex.color3" format="2">
  <advance width="293"/>
  <unicode hex="0124"/>
  <outline>
    <contour>
      <point x="200" y="760" type="line"/>
      <point x="176" y="760" type="line"/>
      <point x="132" y="850" type="line"/>
      <point x="155" y="850" type="line"/>
      <point x="156" y="850" type="line"/>
      <point x="200" y="761" type="line"/>
    </contour>
  </outline>
</glyph>
<glyph name="Hcircumflex" format="2">
  <advance width="293"/>
  <unicode hex="0124"/>
  <anchor x="146" y="700" name="top"/>
  <outline>
    <contour>
      <point x="53" y="700" type="line"/>
      <point x="76" y="700" type="line"/>
      <point x="77" y="700" type="line"/>
      <point x="77" y="0" type="line"/>
      <point x="53" y="0" type="line"/>
    </contour>
    <contour>
      <point x="240" y="0" type="line"/>
      <point x="217" y="0" type="line"/>
      <point x="216" y="0" type="line"/>
      <point x="216" y="700" type="line"/>
      <point x="240" y="700" type="line"/>
    </contour>
    <contour>
      <point x="77" y="353" type="line"/>
      <point x="77" y="376" type="line"/>
      <point x="77" y="377" type="line"/>
      <point x="216" y="377" type="line"/>
      <point x="216" y="353" type="line"/>
    </contour>
    <contour>
      <point x="200" y="760" type="line"/>
      <point x="176" y="760" type="line"/>
      <point x="132" y="850" type="line"/>
      <point x="155" y="850" type="line"/>
      <point x="156" y="850" type="line"/>
      <point x="200" y="761" type="line"/>
    </contour>
    <contour>
      <point x="86" y="760" type="line"/>
      <point x="86" y="761" type="line"/>
      <point x="132" y="850" type="line"/>
      <point x="155" y="850" type="line"/>
      <point x="110" y="760" type="line"/>
    </contour>
  </outline>
</glyph>
<glyph name="hcircumflex.color3" format="2">
  <advance width="150"/>
  <unicode hex="0125"/>
  <outline>
    <contour>
      <point x="197" y="560" type="line"/>
      <point x="173" y="560" type="line"/>
      <point x="129" y="650" type="line"/>
      <point x="152" y="650" type="line"/>
      <point x="153" y="650" type="line"/>
      <point x="197" y="561" type="line"/>
    </contour>
  </outline>
</glyph>
<glyph name="hcircumflex.color4" format="2">
  <advance width="150"/>
  <unicode hex="0125"/>
  <outline>
    <contour>
      <point x="83" y="560" type="line"/>
      <point x="83" y="561" type="line"/>
      <point x="129" y="650" type="line"/>
      <point x="152" y="650" type="line"/>
      <point x="107" y="560" type="line"/>
    </contour>
  </outline>
</glyph>
<glyph name="hbar.color0" format="2">
  <advance width="150"/>
  <unicode hex="0127"/>
  <outline>
    <contour>
      <point x="172" y="561" type="line"/>
      <point x="11" y="561" type="line"/>
      <point x="11" y="585" type="line"/>
      <point x="172" y="585" type="line"/>
      <point x="172" y="584" type="line"/>
    </contour>
  </outline>
</glyph>
<glyph name="hbar.color1" format="2">
  <advance width="150"/>
  <unicode hex="0127"/>
  <outline>
    <contour>
      <point x="53" y="730" type="line"/>
      <point x="77" y="730" type="line"/>
      <point x="77" y="1" type="line"/>
      <point x="77" y="0" type="line"/>
      <point x="53" y="0" type="line"/>
    </contour>
  </outline>
</glyph>
<glyph name="hbar" format="2">
  <advance width="150"/>
  <unicode hex="0127"/>
  <anchor x="91" y="573" name="_stroke"/>
  <anchor x="91" y="573" name="stroke"/>
  <anchor x="143" y="500" name="top"/>
  <outline>
    <contour>
      <point x="172" y="561" type="line"/>
      <point x="11" y="561" type="line"/>
      <point x="11" y="585" type="line"/>
      <point x="172" y="585" type="line"/>
      <point x="172" y="584" type="line"/>
    </contour>
    <contour>
      <point x="53" y="730" type="line"/>
      <point x="77" y="730" type="line"/>
      <point x="77" y="1" type="line"/>
      <point x="77" y="0" type="line"/>
      <point x="53" y="0" type="line"/>
    </contour>
    <contour>
      <point x="127" y="500" type="line"/>
      <point x="150" y="477" type="line"/>
      <point x="150" y="476" type="line"/>
      <point x="77" y="476" type="line"/>
      <point x="77" y="500" type="line"/>
    </contour>
    <contour>
      <point x="150" y="20" type="line"/>
      <point x="127" y="-3" type="line"/>
      <point x="126" y="-3" type="line"/>
      <point x="126" y="476" type="line"/>
      <point x="150" y="476" type="line"/>
    </contour>
  </outline>
</glyph>
<glyph name="Itilde.color5" format="2">
  <advance width="272"/>
  <unicode hex="0128"/>
  <outline>
    <contour>
      <point x="77" y="786" type="line"/>
      <point x="77" y="837" type="line"/>
      <point x="101" y="838" type="line"/>
      <point x="101" y="786" type="line"/>
    </contour>
  </outline>
</glyph>
<glyph name="Itilde.color6" format="2">
  <advance width="272"/>
  <unicode hex="0128"/>
  <outline>
    <contour>
      <point x="197" y="847" type="line"/>
      <point x="197" y="795" type="line"/>
      <point x="173" y="795" type="line"/>
      <point x="173" y="847" type="line"/>
    </contour>
  </outline>
</glyph>
<glyph name="Itilde" format="2">
  <advance width="272"/>
  <unicode hex="0128"/>
  <anchor x="135" y="0" name="bottom"/>
  <anchor x="138" y="700" name="top"/>
  <outline>
    <contour>
      <point x="124" y="676" type="line"/>
      <point x="147" y="700" type="line"/>
      <point x="148" y="700" type="line"/>
      <point x="148" y="24" type="line"/>
      <point x="125" y="0" type="line"/>
      <point x="124" y="0" type="line"/>
    </contour>
    <contour>
      <point x="124" y="676" type="line"/>
      <point x="43" y="676" type="line"/>
      <point x="43" y="700" type="line"/>
      <point x="147" y="700" type="line"/>
    </contour>
    <contour>
      <point x="228" y="676" type="line"/>
      <point x="148" y="676" type="line"/>
      <point x="148" y="700" type="line"/>
      <point x="228" y="700" type="line"/>
    </contour>
    <contour>
      <point x="148" y="24" type="line"/>
      <point x="229" y="24" type="line"/>
      <point x="229" y="0" type="line"/>
      <point x="125" y="0" type="line"/>
    </contour>
    <contour>
      <point x="44" y="24" type="line"/>
      <point x="124" y="24" type="line"/>
      <point x="124" y="0" type="line"/>
      <point x="44" y="0" type="line"/>
    </contour>
    <contour>
      <point x="77" y="786" type="line"/>
      <point x="77" y="837" type="line"/>
      <point x="101" y="838" type="line"/>
      <point x="101" y="786" type="line"/>
    </contour>
    <contour>
      <point x="197" y="847" type="line"/>
      <point x="197" y="795" type="line"/>
      <point x="173" y="795" type="line"/>
      <point x="173" y="847" type="line"/>
    </contour>
    <contour>
      <point x="77" y="837" type="line"/>
      <point x="77" y="838" type="line"/>
      <point x="99" y="847" type="line"/>
      <point x="100" y="847" type="line"/>
      <point x="196" y="795" type="line"/>
      <point x="196" y="794" type="line"/>
      <point x="174" y="785" type="line"/>
      <point x="173" y="785" type="line"/>
    </contour>
  </outline>
</glyph>
<glyph name="itilde.color1" format="2">
  <advance width="130"/>
  <unicode hex="0129"/>
  <outline>
    <contour>
      <point x="23" y="611" type="line"/>
      <point x="23" y="662" type="line"/>
      <point x="43" y="663" type="line"/>
      <point x="43" y="611" type="line"/>
    </contour>
  </outline>
</glyph>
<glyph name="itilde.color2" format="2">
  <advance width="130"/>
  <unicode hex="0129"/>
  <outline>
    <contour>
      <point x="104" y="672" type="line"/>
      <point x="104" y="620" type="line"/>
      <point x="84" y="620" type="line"/>
      <point x="84" y="672" type="line"/>
    </contour>
  </outline>
</glyph>
<glyph name="itilde" format="2">
  <advance width="130"/>
  <unicode hex="0129"/>
  <anchor x="65" y="0" name="bottom"/>
  <anchor x="63" y="500" name="top"/>
  <outline>
    <contour>
      <point x="53" y="480" type="line"/>
      <point x="76" y="503" type="line"/>
      <point x="77" y="503" type="line"/>
      <point x="77" y="0" type="line"/>
      <point x="53" y="0" type="line"/>
    </contour>
    <contour>
      <point x="23" y="611" type="line"/>
      <point x="23" y="662" type="line"/>
      <point x="43" y="663" type="line"/>
      <point x="43" y="611" type="line"/>
    </contour>
    <contour>
      <point x="104" y="672" type="line"/>
      <point x="104" y="620" type="line"/>
      <point x="84" y="620" type="line"/>
      <point x="84" y="672" type="line"/>
    </contour>
    <contour>
      <point x="23" y="662" type="line"/>
      <point x="23" y="663" type="line"/>
      <point x="43" y="672" type="line"/>
      <point x="44" y="672" type="line"/>
      <point x="103" y="620" type="line"/>
      <point x="103" y="619" type="line"/>
      <point x="83" y="610" type="line"/>
      <point x="82" y="610" type="line"/>
    </contour>
  </outline>
</glyph>
<glyph name="Imacron.color1" format="2">
  <advance width="272"/>
  <unicode hex="012A"/>
  <outline>
    <contour>
      <point x="124" y="676" type="line"/>
      <point x="43" y="676" type="line"/>
      <point x="43" y="700" type="line"/>
      <point x="147" y="700" type="line"/>
    </contour>
  </outline>
</glyph>
<glyph name="Imacron.color5" format="2">
  <advance width="272"/>
  <unicode hex="012A"/>
  <outline>
    <contour>
      <point x="213" y="801" type="line"/>
      <point x="63" y="801" type="line"/>
      <point x="63" y="825" type="line"/>
      <point x="213" y="825" type="line"/>
    </contour>
  </outline>
</glyph>
<glyph name="Imacron" format="2">
  <advance width="272"/>
  <unicode hex="012A"/>
  <anchor x="135" y="0" name="bottom"/>
  <anchor x="138" y="700" name="top"/>
  <outline>
    <contour>
      <point x="124" y="676" type="line"/>
      <point x="147" y="700" type="line"/>
      <point x="148" y="700" type="line"/>
      <point x="148" y="24" type="line"/>
      <point x="125" y="0" type="line"/>
      <point x="124" y="0" type="line"/>
    </contour>
    <contour>
      <point x="124" y="676" type="line"/>
      <point x="43" y="676" type="line"/>
      <point x="43" y="700" type="line"/>
      <point x="147" y="700" type="line"/>
    </contour>
    <contour>
      <point x="228" y="676" type="line"/>
      <point x="148" y="676" type="line"/>
      <point x="148" y="700" type="line"/>
      <point x="228" y="700" type="line"/>
    </contour>
    <contour>
      <point x="148" y="24" type="line"/>
      <point x="229" y="24" type="line"/>
      <point x="229" y="0" type="line"/>
      <point x="125" y="0" type="line"/>
    </contour>
    <contour>
      <point x="44" y="24" type="line"/>
      <point x="124" y="24" type="line"/>
      <point x="124" y="0" type="line"/>
      <point x="44" y="0" type="line"/>
    </contour>
    <contour>
      <point x="213" y="801" type="line"/>
      <point x="63" y="801" type="line"/>
      <point x="63" y="825" type="line"/>
      <point x="213" y="825" type="line"/>
    </contour>
  </outline>
</glyph>
<glyph name="Ibreve" format="2">
  <advance width="272"/>
  <unicode hex="012C"/>
  <anchor x="135" y="0" name="bottom"/>
  <anchor x="138" y="700" name="top"/>
  <outline>
    <contour>
      <point x="124" y="676" type="line"/>
      <point x="147" y="700" type="line"/>
      <point x="148" y="700" type="line"/>
      <point x="148" y="24" type="line"/>
      <point x="125" y="0" type="line"/>
      <point x="124" y="0" type="line"/>
    </contour>
    <contour>
      <point x="124" y="676" type="line"/>
      <point x="43" y="676" type="line"/>
      <point x="43" y="700" type="line"/>
      <point x="147" y="700" type="line"/>
    </contour>
    <contour>
      <point x="228" y="676" type="line"/>
      <point x="148" y="676" type="line"/>
      <point x="148" y="700" type="line"/>
      <point x="228" y="700" type="line"/>
    </contour>
    <contour>
      <point x="148" y="24" type="line"/>
      <point x="229" y="24" type="line"/>
      <point x="229" y="0" type="line"/>
      <point x="125" y="0" type="line"/>
    </contour>
    <contour>
      <point x="44" y="24" type="line"/>
      <point x="124" y="24" type="line"/>
      <point x="124" y="0" type="line"/>
      <point x="44" y="0" type="line"/>
    </contour>
    <contour>
      <point x="123" y="803" type="line"/>
      <point x="91" y="803" type="line"/>
      <point x="60" y="839" type="line"/>
      <point x="60" y="840" type="line"/>
      <point x="92" y="840" type="line"/>
    </contour>
    <contour>
      <point x="153" y="803" type="line"/>
      <point x="184" y="840" type="line"/>
      <point x="216" y="840" type="line"/>
      <point x="216" y="839" type="line"/>
      <point x="185" y="803" type="line"/>
    </contour>
    <contour>
      <point x="166" y="781" type="line"/>
      <point x="110" y="781" type="line"/>
      <point x="91" y="803" type="line"/>
      <point x="185" y="803" type="line"/>
    </contour>
  </outline>
</glyph>
<glyph name="ibreve.color0" format="2">
  <advance width="130"/>
  <unicode hex="012D"/>
  <outline>
    <contour>
      <point x="49" y="612" type="line"/>
      <point x="26" y="612" type="line"/>
      <point x="4" y="661" type="line"/>
      <point x="4" y="662" type="line"/>
      <point x="30" y="662" type="line"/>
    </contour>
  </outline>
</glyph>
<glyph name="ibreve.color2" format="2">
  <advance width="130"/>
  <unicode hex="012D"/>
  <outline>
    <contour>
      <point x="75" y="612" type="line"/>
      <point x="94" y="662" type="line"/>
      <point x="120" y="662" type="line"/>
      <point x="120" y="661" type="line"/>
      <point x="98" y="612" type="line"/>
    </contour>
  </outline>
</glyph>
<glyph name="ibreve.color3" format="2">
  <advance width="130"/>
  <unicode hex="012D"/>
  <outline>
    <contour>
      <point x="88" y="590" type="line"/>
      <point x="36" y="590" type="line"/>
      <point x="26" y="612" type="line"/>
      <point x="98" y="612" type="line"/>
    </contour>
  </outline>
</glyph>
<glyph name="ibreve" format="2">
  <advance width="130"/>
  <unicode hex="012D"/>
  <anchor x="65" y="0" name="bottom"/>
  <anchor x="63" y="500" name="top"/>
  <outline>
    <contour>
      <point x="53" y="480" type="line"/>
      <point x="76" y="503" type="line"/>
      <point x="77" y="503" type="line"/>
      <point x="77" y="0" type="line"/>
      <point x="53" y="0" type="line"/>
    </contour>
    <contour>
      <point x="49" y="612" type="line"/>
      <point x="26" y="612" type="line"/>
      <point x="4" y="661" type="line"/>
      <point x="4" y="662" type="line"/>
      <point x="30" y="662" type="line"/>
    </contour>
    <contour>
      <point x="75" y="612" type="line"/>
      <point x="94" y="662" type="line"/>
      <point x="120" y="662" type="line"/>
      <point x="120" y="661" type="line"/>
      <point x="98" y="612" type="line"/>
    </contour>
    <contour>
      <point x="88" y="590" type="line"/>
      <point x="36" y="590" type="line"/>
      <point x="26" y="612" type="line"/>
      <point x="98" y="612" type="line"/>
    </contour>
  </outline>
</glyph>
<glyph name="Iogonek.color5" format="2">
  <advance width="272"/>
  <unicode hex="012E"/>
  <outline>
    <contour>
      <point x="148" y="-80" type="line"/>
      <point x="123" y="-80" type="line"/>
      <point x="123" y="-61" type="line"/>
      <point x="166" y="-61" type="line"/>
      <point x="166" y="-62" type="line"/>
    </contour>
  </outline>
</glyph>
<glyph name="Iogonek" format="2">
  <advance width="272"/>
  <unicode hex="012E"/>
  <anchor x="135" y="0" name="bottom"/>
  <anchor x="138" y="700" name="top"/>
  <outline>
    <contour>
      <point x="124" y="676" type="line"/>
      <point x="147" y="700" type="line"/>
      <point x="148" y="700" type="line"/>
      <point x="148" y="24" type="line"/>
      <point x="125" y="0" type="line"/>
      <point x="124" y="0" type="line"/>
    </contour>
    <contour>
      <point x="124" y="676" type="line"/>
      <point x="43" y="676" type="line"/>
      <point x="43" y="700" type="line"/>
      <point x="147" y="700" type="line"/>
    </contour>
    <contour>
      <point x="228" y="676" type="line"/>
      <point x="148" y="676" type="line"/>
      <point x="148" y="700" type="line"/>
      <point x="228" y="700" type="line"/>
    </contour>
    <contour>
      <point x="148" y="24" type="line"/>
      <point x="229" y="24" type="line"/>
      <point x="229" y="0" type="line"/>
      <point x="125" y="0" type="line"/>
    </contour>
    <contour>
      <point x="44" y="24" type="line"/>
      <point x="124" y="24" type="line"/>
      <point x="124" y="0" type="line"/>
      <point x="44" y="0" type="line"/>
    </contour>
    <contour>
      <point x="148" y="-80" type="line"/>
      <point x="123" y="-80" type="line"/>
      <point x="123" y="-61" type="line"/>
      <point x="166" y="-61" type="line"/>
      <point x="166" y="-62" type="line"/>
    </contour>
    <contour>
      <point x="102" y="-34" type="line"/>
      <point x="102" y="-33" type="line"/>
      <point x="123" y="0" type="line"/>
      <point x="147" y="0" type="line"/>
      <point x="147" y="-1" type="line"/>
      <point x="123" y="-34" type="line"/>
    </contour>
    <contour>
      <point x="102" y="-61" type="line"/>
      <point x="102" y="-34" type="line"/>
      <point x="123" y="-34" type="line"/>
      <point x="123" y="-79" type="line"/>
      <point x="122" y="-79" type="line"/>
    </contour>
  </outline>
</glyph>
<glyph name="Idotaccent.color5" format="2">
  <advance width="272"/>
  <unicode hex="0130"/>
  <outline>
    <contour>
      <point x="153" y="811" type="line"/>
      <point x="123" y="811" type="line"/>
      <point x="123" y="845" type="line"/>
      <point x="153" y="845" type="line"/>
    </contour>
  </outline>
</glyph>
<glyph name="Jcircumflex.color4" format="2">
  <advance width="300"/>
  <unicode hex="0134"/>
  <outline>
    <contour>
      <point x="225" y="760" type="line"/>
      <point x="201" y="760" type="line"/>
      <point x="157" y="850" type="line"/>
      <point x="180" y="850" type="line"/>
      <point x="181" y="850" type="line"/>
      <point x="225" y="761" type="line"/>
    </contour>
  </outline>
</glyph>
<glyph name="Jcircumflex.color5" format="2">
  <advance width="300"/>
  <unicode hex="0134"/>
  <outline>
    <contour>
      <point x="111" y="760" type="line"/>
      <point x="111" y="761" type="line"/>
      <point x="157" y="850" type="line"/>
      <point x="180" y="850" type="line"/>
      <point x="135" y="760" type="line"/>
    </contour>
  </outline>
</glyph>
<glyph name="Jcircumflex" format="2">
  <advance width="300"/>
  <unicode hex="0134"/>
  <anchor x="171" y="700" name="top"/>
  <outline>
    <contour>
      <point x="163" y="24" type="line"/>
      <point x="163" y="676" type="line"/>
      <point x="186" y="700" type="line"/>
      <point x="187" y="700" type="line"/>
      <point x="187" y="24" type="line"/>
    </contour>
    <contour>
      <point x="163" y="676" type="line"/>
      <point x="62" y="676" type="line"/>
      <point x="62" y="700" type="line"/>
      <point x="186" y="700" type="line"/>
    </contour>
    <contour>
      <point x="257" y="676" type="line"/>
      <point x="187" y="676" type="line"/>
      <point x="187" y="700" type="line"/>
      <point x="257" y="700" type="line"/>
    </contour>
    <contour>
      <point x="43" y="24" type="line"/>
      <point x="187" y="24" type="line"/>
      <point x="187" y="23" type="line"/>
      <point x="163" y="0" type="line"/>
      <point x="43" y="0" type="line"/>
    </contour>
    <contour>
      <point x="225" y="760" type="line"/>
      <point x="201" y="760" type="line"/>
      <point x="157" y="850" type="line"/>
      <point x="180" y="850" type="line"/>
      <point x="181" y="850" type="line"/>
      <point x="225" y="761" type="line"/>
    </contour>
    <contour>
      <point x="111" y="760" type="line"/>
      <point x="111" y="761" type="line"/>
      <point x="157" y="850" type="line"/>
      <point x="180" y="850" type="line"/>
      <point x="135" y="760" type="line"/>
    </contour>
  </outline>
</glyph>
<glyph name="Kcommaaccent.color3" format="2">
  <advance width="326"/>
  <unicode hex="0136"/>
  <outline>
    <contour>
      <point x="77" y="353" type="line"/>
      <point x="77" y="377" type="line"/>
      <point x="196" y="377" type="line"/>
      <point x="196" y="353" type="line"/>
    </contour>
  </outline>
</glyph>
<glyph name="kcommaaccent.color3" format="2">
  <advance width="227"/>
  <unicode hex="0137"/>
  <outline>
    <contour>
      <point x="127" y="575" type="line"/>
      <point x="150" y="598" type="line"/>
      <point x="151" y="598" type="line"/>
      <point x="151" y="377" type="line"/>
      <point x="127" y="377" type="line"/>
    </contour>
  </outline>
</glyph>
